<?xml version="1.0" encoding="UTF-8" standalone="no"?>
<!-- Created with Inkscape (http://www.inkscape.org/) -->

<svg
   xmlns:dc="http://purl.org/dc/elements/1.1/"
   xmlns:cc="http://creativecommons.org/ns#"
   xmlns:rdf="http://www.w3.org/1999/02/22-rdf-syntax-ns#"
   xmlns:svg="http://www.w3.org/2000/svg"
   xmlns="http://www.w3.org/2000/svg"
   xmlns:sodipodi="http://sodipodi.sourceforge.net/DTD/sodipodi-0.dtd"
   xmlns:inkscape="http://www.inkscape.org/namespaces/inkscape"
   width="256"
   height="256"
   viewBox="0 0 256 256"
   id="svg2"
   version="1.1"
   inkscape:version="0.92.3 (2405546, 2018-03-11)"
   sodipodi:docname="childsplay.svg">
  <defs
     id="defs4" />
  <sodipodi:namedview
     id="base"
     pagecolor="#ffffff"
     bordercolor="#666666"
     borderopacity="1.0"
     inkscape:pageopacity="0.0"
     inkscape:pageshadow="2"
     inkscape:zoom="0.98994948"
     inkscape:cx="266.07128"
     inkscape:cy="161.02336"
     inkscape:document-units="px"
     inkscape:current-layer="XMLID_839_-2"
     showgrid="false"
     units="px"
     showguides="true"
     inkscape:guide-bbox="true"
     inkscape:snap-intersection-paths="false"
     inkscape:snap-midpoints="true"
     inkscape:window-width="1920"
     inkscape:window-height="897"
     inkscape:window-x="0"
     inkscape:window-y="36"
     inkscape:window-maximized="1">
    <sodipodi:guide
       position="128.92857,237.85714"
       orientation="0,1"
       id="guide4147"
       inkscape:locked="false" />
    <sodipodi:guide
       position="18.214286,162.14286"
       orientation="1,0"
       id="guide4149"
       inkscape:locked="false" />
    <sodipodi:guide
       position="237.85714,66.785714"
       orientation="1,0"
       id="guide4151"
       inkscape:locked="false" />
    <sodipodi:guide
       position="198.21429,17.5"
       orientation="0,1"
       id="guide4153"
       inkscape:locked="false" />
  </sodipodi:namedview>
  <metadata
     id="metadata7">
    <rdf:RDF>
      <cc:Work
         rdf:about="">
        <dc:format>image/svg+xml</dc:format>
        <dc:type
           rdf:resource="http://purl.org/dc/dcmitype/StillImage" />
        <dc:title />
      </cc:Work>
    </rdf:RDF>
  </metadata>
  <g
     inkscape:label="Capa 1"
     inkscape:groupmode="layer"
     id="layer1"
     transform="translate(0,-796.36216)">
    <g
       id="g23595"
       transform="matrix(0.74931131,0,0,0.74931131,15.938109,815.217)">
      <g
         id="Capa_1-8">
        <g
           id="XMLID_839_"
           style="fill:#e6e6e6">
          <linearGradient
             gradientTransform="matrix(0.9954,0,0,-0.9999,607.6064,2766.4668)"
             y2="2767.4697"
             x2="-459.29791"
             y1="2471.4395"
             x1="-459.29791"
             gradientUnits="userSpaceOnUse"
             id="rect3438-6-0-6-7-2_60_-65">
            <stop
               id="stop23478"
               style="stop-color:#000000"
               offset="0" />
            <stop
               id="stop23480"
               style="stop-color:#000000;stop-opacity:0.5882"
               offset="1" />
          </linearGradient>
          <path
             style="opacity:0.3;fill:#e6e6e6"
             d="m 72.019,-0.726 156.804,0 c 37.431,0 67.773,30.583 67.773,68.308 l 0,159.385 c 0,37.725 -30.343,68.308 -67.773,68.308 l -156.804,0 c -37.43,0 -67.772,-30.583 -67.772,-68.308 l 0,-159.385 C 4.246,29.856 34.589,-0.726 72.019,-0.726 Z"
             enable-background="new    "
             id="rect3438-6-0-6-7-2_6_"
             inkscape:connector-curvature="0" />
          <linearGradient
             gradientTransform="matrix(0.9867,0,0,-0.9918,595.6101,2754.0723)"
             y2="2777.5752"
             x2="-451.19141"
             y1="2480.8926"
             x1="-451.19141"
             gradientUnits="userSpaceOnUse"
             id="rect3438-6-0-1-1_60_-5">
            <stop
               id="stop23484"
               style="stop-color:#000000"
               offset="0" />
            <stop
               id="stop23486"
               style="stop-color:#000000;stop-opacity:0.5882"
               offset="1" />
          </linearGradient>
          <path
             style="opacity:0.45;fill:#e6e6e6"
             d="m 72.744,-0.726 155.354,0 c 37.127,0 67.224,30.401 67.224,67.904 l 0,158.442 c 0,37.502 -30.097,67.904 -67.224,67.904 l -155.354,0 c -37.127,0 -67.225,-30.402 -67.225,-67.904 l 0,-158.442 C 5.52,29.675 35.617,-0.726 72.744,-0.726 Z"
             enable-background="new    "
             id="rect3438-6-0-1-1_6_"
             inkscape:connector-curvature="0" />
          <g
             id="rect3438-6_5_"
             style="fill:#ffffff;fill-opacity:1">
            <linearGradient
               gradientTransform="matrix(0.9996,0,0,-0.9996,-616.0945,2024.5801)"
               y2="1733.7988"
               x2="766.57233"
               y1="2026.1172"
               x1="766.57233"
               gradientUnits="userSpaceOnUse"
               id="XMLID_140_-27">
              <stop
                 id="stop23491"
                 style="stop-color:#F6D560"
                 offset="0.0866" />
              <stop
                 id="stop23493"
                 style="stop-color:#E7C85A"
                 offset="0.3574" />
              <stop
                 id="stop23495"
                 style="stop-color:#E0C257"
                 offset="0.5944" />
              <stop
                 id="stop23497"
                 style="stop-color:#EA9F84"
                 offset="1" />
            </linearGradient>
            <path
               style="fill:#ffffff;fill-opacity:1"
               d="m 71.502,-0.726 157.34,0 c 37.24,0 67.431,30.19 67.431,67.431 l 0,157.339 c 0,37.241 -30.19,67.432 -67.431,67.432 l -157.34,0 c -37.24,0 -67.431,-30.19 -67.431,-67.432 l 0,-157.339 c 0,-37.241 30.191,-67.431 67.431,-67.431 z"
               id="XMLID_1212_"
               inkscape:connector-curvature="0" />
          </g>
          <g
             transform="translate(-0.78031763,-1.6138666)"
             id="XMLID_839_-2"
             style="fill:#ffffff">
            <linearGradient
               gradientTransform="matrix(0.9954,0,0,-0.9999,607.6064,2766.4668)"
               y2="2767.4697"
               x2="-459.29791"
               y1="2471.4395"
               x1="-459.29791"
               gradientUnits="userSpaceOnUse"
               id="linearGradient6632">
              <stop
                 id="stop23478-3"
                 style="stop-color:#000000"
                 offset="0" />
              <stop
                 id="stop23480-7"
                 style="stop-color:#000000;stop-opacity:0.5882"
                 offset="1" />
            </linearGradient>
            <path
               style="opacity:0.3;fill:#ffffff"
               d="m 72.019,-0.726 156.804,0 c 37.431,0 67.773,30.583 67.773,68.308 l 0,159.385 c 0,37.725 -30.343,68.308 -67.773,68.308 l -156.804,0 c -37.43,0 -67.772,-30.583 -67.772,-68.308 l 0,-159.385 C 4.246,29.856 34.589,-0.726 72.019,-0.726 Z"
               enable-background="new    "
               id="rect3438-6-0-6-7-2_6_-5"
               inkscape:connector-curvature="0" />
            <linearGradient
               gradientTransform="matrix(0.9867,0,0,-0.9918,595.6101,2754.0723)"
               y2="2777.5752"
               x2="-451.19141"
               y1="2480.8926"
               x1="-451.19141"
               gradientUnits="userSpaceOnUse"
               id="linearGradient6637">
              <stop
                 id="stop23484-9"
                 style="stop-color:#000000"
                 offset="0" />
              <stop
                 id="stop23486-2"
                 style="stop-color:#000000;stop-opacity:0.5882"
                 offset="1" />
            </linearGradient>
            <path
               style="opacity:0.45;fill:#ffffff"
               d="m 72.744,-0.726 155.354,0 c 37.127,0 67.224,30.401 67.224,67.904 l 0,158.442 c 0,37.502 -30.097,67.904 -67.224,67.904 l -155.354,0 c -37.127,0 -67.225,-30.402 -67.225,-67.904 l 0,-158.442 C 5.52,29.675 35.617,-0.726 72.744,-0.726 Z"
               enable-background="new    "
               id="rect3438-6-0-1-1_6_-2"
               inkscape:connector-curvature="0" />
          </g>
          <g
             id="g6749"
             transform="matrix(1.1136622,0,0,1.1136622,-501.93037,-21.060119)">
            <path
               inkscape:connector-curvature="0"
               id="path4137"
               d="m 620.65386,260.99105 c -4.88905,-1.33409 -16.66543,-3.32099 -26.16974,-4.41536 -25.24548,-2.90684 -29.29195,-5.54396 -42.78608,-27.88418 -7.28525,-12.0611 -14.70456,-19.81815 -24.37669,-25.48641 -9.6054,-5.62913 -16.81351,-7.5805 -32.82108,-8.8852 -17.42625,-1.42036 -23.73169,-3.80356 -26.73687,-10.10545 -4.2336,-8.87798 1.83593,-20.22336 12.38604,-23.15245 7.25325,-2.01376 18.62086,-1.84034 27.32247,0.41683 4.01251,1.04083 7.46516,1.72273 7.67255,1.51534 0.80539,-0.8054 -6.69019,-4.8897 -19.72459,-10.74784 -16.77474,-7.53917 -19.27075,-9.15172 -22.664,-14.64211 -9.61711,-15.56081 6.34546,-30.75014 27.38453,-26.058 8.46292,1.8874 25.42563,11.39971 36.98443,20.74004 4.95455,4.00363 9.00827,6.77785 9.00827,6.16494 0,-2.08971 -17.99266,-18.40149 -26.69118,-24.19767 -21.13244,-14.08143 -28.02573,-22.008136 -28.02573,-32.227277 0,-5.564262 0.62631,-7.054383 4.66069,-11.088765 5.91914,-5.919146 15.87602,-9.095063 23.84602,-7.606105 16.181,3.022939 33.13661,17.848713 48.87824,42.738537 2.50658,3.96326 4.77025,6.56744 5.03037,5.78707 0.74355,-2.23063 -9.29977,-21.258443 -18.40809,-34.875544 -4.56124,-6.819121 -8.76122,-14.473723 -9.33329,-17.010226 -2.12533,-9.42338 3.22046,-18.05719 13.95753,-22.54238 6.84004,-2.85729 14.55117,-1.70411 22.55761,3.37343 7.52114,4.76976 13.0438,12.08188 19.66157,26.032306 4.87576,10.278232 17.267,45.709114 17.267,49.372364 0,0.97945 2.85262,3.90427 6.33916,6.49959 3.48653,2.59532 8.32794,7.60102 10.75866,11.12377 2.43074,3.52275 5.88194,8.50694 7.66932,11.07596 1.78741,2.56903 4.481,7.2233 5.98578,10.34283 1.50477,3.11953 3.26481,5.67188 3.91119,5.67188 0.6464,0 2.4382,-1.60558 3.98181,-3.56796 2.60937,-3.31728 2.74424,-4.61031 1.9196,-18.40374 -1.00964,-16.88747 -0.2544,-19.38041 8.36952,-27.62659 7.44185,-7.11591 15.31487,-10.76483 23.22645,-10.76483 13.16378,0 15.1923,7.40655 7.08113,25.85468 -4.1212,9.37329 -4.80724,12.32621 -4.64927,20.01162 0.13132,6.3883 -0.63398,11.07849 -2.626,16.09362 -2.0208,5.08761 -3.1094,11.89419 -3.87138,24.20633 -1.17206,18.93844 -0.0773,15.91956 -17.76231,48.97841 -6.73618,12.59202 -8.04882,14.24438 -12.57899,15.83453 -2.78189,0.97647 -6.85963,3.43595 -9.06165,5.4655 -8.095,7.46093 -12.50821,8.09931 -27.573,3.98851 z m 19.96871,-3.17793 c 1.98381,-1.02586 4.76926,-3.14958 6.18991,-4.71939 1.42065,-1.5698 5.06797,-3.9534 8.10516,-5.2969 4.74041,-2.0969 6.21192,-3.83762 10.39464,-12.29622 2.67986,-5.41945 7.63673,-14.79515 11.01525,-20.83491 l 6.14276,-10.98139 1.05825,-17.71162 c 0.80096,-13.40546 1.78102,-19.49623 4.03107,-25.05172 3.78899,-9.35519 3.12948,-18.64358 -1.84417,-25.97266 -1.90153,-2.80206 -3.44415,-6.66237 -3.42803,-8.57847 0.037,-4.39429 4.59285,-14.55558 8.29351,-18.49759 l 2.81892,-3.00275 h -3.62219 c -7.28422,0 -20.52822,8.91131 -24.41522,16.42793 -1.75163,3.3873 -1.95874,6.71202 -1.19287,19.14908 l 0.9268,15.0501 -6.2819,6.71586 c -3.45504,3.69372 -6.73342,6.71585 -7.2853,6.71585 -0.55188,0 -1.39256,-2.07432 -1.86819,-4.60961 -0.47562,-2.53528 -2.80124,-7.48983 -5.16805,-11.01011 -2.36681,-3.52027 -5.94223,-9.19993 -7.94539,-12.62146 -2.00314,-3.42153 -7.22429,-9.42705 -11.60253,-13.34559 l -7.96045,-7.12463 -6.87052,-21.352933 C 600.06395,67.629295 589.61811,48.8937 579.12462,43.28153 c -2.34701,-1.25523 -2.06113,-0.55654 1.37337,3.35666 6.50442,7.41099 5.78083,13.28682 -2.29878,18.666576 -7.30395,4.863284 -23.80502,1.296409 -26.00027,-5.620216 -1.30288,-4.105 2.62712,-11.8449 7.53309,-14.83598 2.57627,-1.57071 6.92083,-2.73935 10.42313,-2.8037 5.6863,-0.10449 5.80664,-0.18287 2.26385,-1.47464 -5.69762,-2.07747 -12.84447,-0.12231 -17.84999,4.88321 -3.67231,3.6723 -4.43224,5.43565 -4.43224,10.28451 0,4.887358 1.29289,7.831413 7.84158,17.856097 12.46777,19.085539 21.22437,36.491623 24.94357,49.582033 0.35114,1.23588 1.58294,1.15605 5.1483,-0.33364 9.08757,-3.79704 23.49128,-1.89323 30.9848,4.0954 4.71712,3.7698 3.36936,5.59117 -2.37622,3.21126 -7.3324,-3.03717 -16.22988,-2.26744 -22.2836,1.92779 -4.34699,3.01247 -5.83634,3.43145 -8.02806,2.25848 -1.48001,-0.79207 -4.83743,-1.44014 -7.46093,-1.44014 -4.37866,0 -4.638,-0.21137 -3.16106,-2.57633 1.38331,-2.21502 0.60531,-4.22699 -5.5475,-14.3465 -13.47404,-22.160692 -30.27577,-40.631817 -41.65836,-45.797473 -8.01925,-3.639305 -10.66486,-3.317176 -4.90439,0.597162 7.53331,5.119021 8.66523,11.335131 3.14809,17.288233 -6.84832,7.389453 -16.93525,9.337575 -24.49235,4.730286 l -4.47296,-2.727006 2.77944,3.903355 c 1.52868,2.146846 8.0969,7.545363 14.59603,11.996703 14.48023,9.91769 28.36152,22.30286 36.06861,32.18114 3.18778,4.08581 6.00582,7.64439 6.26232,7.90797 0.25651,0.26358 2.33718,-0.8529 4.62372,-2.48107 4.93733,-3.51569 6.12918,-2.85447 4.30208,2.38675 -0.73961,2.12165 -1.06936,5.30521 -0.73275,7.07456 0.4757,2.50063 -0.28508,3.74544 -3.41639,5.59005 -5.98445,3.52534 -9.4428,9.25256 -11.03075,18.26749 -0.78013,4.42886 -1.89055,8.05249 -2.4676,8.05249 -3.66663,0 -3.54466,-16.2441 0.19705,-26.24474 l 2.86637,-7.66102 -9.20552,-8.42554 c -10.9188,-9.99367 -24.20455,-19.19147 -34.09004,-23.60075 -8.25222,-3.68077 -17.9,-5.75164 -16.5394,-3.55014 0.48258,0.78082 2.00958,1.41968 3.39334,1.41968 1.38378,0 4.12588,1.38481 6.09359,3.07735 6.80591,5.85421 3.50469,15.20478 -7.01018,19.856 -3.31395,1.46592 -7.25339,2.34418 -8.75431,1.95168 -5.23461,-1.36888 -0.26014,1.54372 11.00112,6.44125 23.40715,10.1798 46.65647,26.64665 42.91067,30.39248 -1.31713,1.31712 -2.52904,1.13496 -5.93455,-0.89201 -18.19679,-10.83073 -28.13161,-14.18021 -41.59382,-14.02316 l -8.0606,0.094 5.19798,1.9049 c 7.37347,2.70213 8.81488,4.27535 8.81488,9.62083 0,3.7425 -1.07123,5.73325 -5.19716,9.65813 l -5.19714,4.94394 12.20358,0.77605 c 24.82215,1.5785 40.9382,12.4154 56.76626,38.17128 4.32925,7.04468 9.00751,13.83653 10.39612,15.09301 5.00949,4.53278 14.53074,7.44453 29.20294,8.9307 8.12058,0.82254 18.9305,2.62964 24.02206,4.01578 11.44943,3.11701 15.71571,3.31008 20.33693,0.92035 z m -37.10343,-12.86313 c -4.77105,-1.38993 -8.80593,-2.54825 -8.96639,-2.57404 -0.16047,-0.0258 0.0565,0.86075 0.48223,1.97009 0.57986,1.5111 0.15096,1.79386 -1.71009,1.12739 -7.52094,-2.69337 -8.0288,-7.77127 -0.91079,-9.10661 2.91519,-0.54689 6.71019,-2.72158 9.34191,-5.35331 4.43014,-4.43013 5.65453,-4.13842 3.05074,0.72682 -0.75984,1.41975 -1.19818,2.58138 -0.9741,2.58138 0.22407,0 4.79657,-1.21629 10.16108,-2.70288 20.56061,-5.69763 33.11134,-15.25852 39.75736,-30.28637 2.29712,-5.1942 3.71362,-7.01811 4.69124,-6.0405 2.0644,2.06441 1.93193,22.71813 -0.1944,30.31269 -2.37592,8.48595 -11.81575,18.52269 -19.36298,20.58739 -8.16602,2.23397 -25.52703,1.62425 -35.36581,-1.24205 z m 30.52616,-2.02718 c 12.7612,-3.78968 21.52163,-16.43242 21.52163,-31.0593 v -5.96801 l -3.77467,5.20483 c -7.88989,10.8793 -17.51703,17.19992 -35.59481,23.36956 -9.12721,3.11495 -9.2269,3.19773 -4.33732,3.60242 5.52079,0.45692 6.57852,2.24278 2.15914,3.64545 -2.23524,0.70943 -2.44989,1.15363 -1.00092,2.07132 2.90175,1.8378 13.37418,1.40635 21.02695,-0.86627 z m -70.50436,-28.35212 c -0.0322,-1.68796 0.86326,-4.85165 1.98993,-7.03041 1.84773,-3.5731 1.84426,-4.03975 -0.0354,-4.76104 -1.14613,-0.4398 -3.61501,-3.41232 -5.48638,-6.60559 -7.2239,-12.32666 -3.52944,-27.65427 8.54012,-35.43127 5.70816,-3.67805 7.06286,-3.99277 14.95151,-3.47358 l 8.67464,0.57091 0.0646,-5.12087 c 0.15936,-12.62713 14.40706,-21.1625 26.77097,-16.03769 9.58443,3.97273 14.0634,17.91109 8.5689,26.66608 -3.37501,5.37779 -13.32681,10.1968 -18.79786,9.1026 -3.67262,-0.73453 -3.72346,-0.66302 -2.34348,3.29565 1.78655,5.12487 0.73579,13.13991 -2.55358,19.47837 l -2.5546,4.92259 3.27563,6.07752 3.27565,6.07753 -4.41692,-5.17039 c -7.56493,-8.85542 -18.06711,-11.22611 -27.78013,-6.2709 -6.11521,3.11976 -7.96483,5.23304 -10.29472,11.76228 -1.34224,3.76147 -1.80501,4.24909 -1.84892,1.94821 z m 12.65027,-16.43307 c 5.91144,-2.61491 11.88841,-2.929 19.18945,-1.00838 3.31469,0.87196 8.14408,-7.91877 8.08624,-14.71904 l -0.0522,-6.1418 -2.00505,4.67096 c -2.80335,6.53068 -6.83623,9.27709 -13.67421,9.31223 -16.65507,0.0855 -18.86312,-22.96259 -2.52497,-26.35556 l 5.63034,-1.16926 -4.44165,-1.03186 c -20.0676,-4.66196 -34.83305,19.29615 -21.35379,34.64819 2.22844,2.53805 4.21344,4.61464 4.4111,4.61464 0.19765,0 3.22828,-1.26906 6.73472,-2.82012 z m 19.42323,-13.09193 c 4.34746,-4.34745 4.84439,-7.75283 1.94854,-13.35281 -2.23357,-4.31924 -4.43593,-5.43368 -10.73813,-5.43368 -9.09016,0 -13.47341,12.65952 -6.72116,19.41177 4.59165,4.59166 10.53334,4.35213 15.51075,-0.62528 z m -14.03985,-4.40328 c -2.69171,-3.84295 -2.61934,-5.47184 0.36304,-8.17085 3.49856,-3.16615 9.01165,-2.78667 11.53607,0.79407 1.98449,2.81489 1.94748,3.02945 -0.5916,3.42923 -2.74064,0.43152 -3.9042,4.2445 -1.29523,4.2445 0.77732,0 1.04216,0.60055 0.58851,1.33456 -1.55976,2.52374 -8.43106,1.46622 -10.60079,-1.63151 z m 37.39832,-14.23036 c 11.29339,-6.88669 7.78291,-24.31066 -5.57334,-27.66287 -6.55578,-1.6454 -14.3088,3.66946 -16.50049,11.31142 -1.37953,4.81015 -0.19218,5.35921 3.28366,1.51846 3.33734,-3.68774 9.38558,-3.41406 13.40624,0.60661 4.00328,4.00327 4.17896,8.56165 0.50977,13.22628 -3.34135,4.24782 -1.17925,4.69146 4.87416,1.0001 z m -7.74337,-0.8958 c 3.3071,-2.31638 4.11157,-9.58874 1.3646,-12.33572 -2.08841,-2.08842 -7.9923,-2.05155 -10.68702,0.0667 -3.97126,3.12176 -4.17627,7.34499 -0.53337,10.98789 3.90005,3.90005 5.76974,4.14308 9.85579,1.2811 z m -7.5572,-2.7698 c -3.13494,-2.1958 -3.66727,-5.78494 -1.22085,-8.23137 2.22543,-2.22543 5.74885,-1.99935 7.82485,0.50209 1.43978,1.73481 1.43433,2.29605 -0.0311,3.2017 -0.97727,0.60399 -1.42699,2.00989 -0.99937,3.12424 1.10913,2.89038 -2.24485,3.73487 -5.57358,1.40334 z m -127.56931,20.9283 c -2.93422,-5.67418 -2.51851,-9.96467 1.41893,-14.64403 4.20623,-4.99883 2.27157,-5.46503 -2.57336,-0.62011 -5.11432,5.11433 -6.01708,11.81932 -2.14613,15.93977 4.16735,4.43593 5.77381,4.10708 3.30056,-0.67563 z m 15.10044,0.46634 c 7.31594,-5.12428 6.27412,-13.88622 -1.97478,-16.6086 -6.02899,-1.98975 -9.56044,-0.58099 -12.14852,4.84627 -2.01335,4.22207 -2.00936,4.90014 0.0545,9.22788 1.87978,3.94194 2.91346,4.67095 6.62303,4.67095 2.41758,0 5.76823,-0.96143 7.44589,-2.1365 z m 7.88563,-50.47663 c 5.2572,-5.7366 5.47037,-9.02678 0.82174,-12.68339 -8.27066,-6.50571 -20.50568,-0.31147 -20.50568,10.38145 0,6.58999 2.5234,8.51962 10.00839,7.65336 3.95715,-0.45797 6.45929,-1.84187 9.67555,-5.35142 z m -21.44908,-0.58669 c -0.9696,-4.84799 2.43558,-11.36828 7.77065,-14.87935 2.99453,-1.97073 3.39289,-2.63708 1.58047,-2.64366 -3.36809,-0.0123 -7.82504,2.44408 -10.55906,5.81928 -2.66003,3.28386 -3.11464,11.57243 -0.76368,13.9234 2.41644,2.41644 2.81019,1.97317 1.97162,-2.21967 z m 210.75177,-2.14882 c -0.64215,-2.55856 -0.38553,-3.13088 1.14116,-2.54504 2.4582,0.9433 10.90984,-15.40873 9.65467,-18.67963 -1.52111,-3.96395 -7.11342,-2.58066 -10.2799,2.54279 -4.56126,7.38027 -5.31938,21.98272 -1.14128,21.98272 0.88016,0 1.12691,-1.30248 0.62535,-3.30084 z M 512.87449,91.190274 c 0.079,-1.250479 0.26833,-1.267217 0.75622,-0.06685 0.84648,2.082702 6.65321,-0.02538 10.81905,-3.927768 6.09297,-5.707636 0.16575,-17.024685 -8.91655,-17.024685 -7.99103,0 -17.79363,11.40808 -15.32666,17.83689 1.48419,3.867739 12.45066,6.62271 12.66794,3.182411 z m 1.2292,-3.24077 c 0,-0.742579 1.35124,-2.494188 3.00276,-3.892463 l 3.00275,-2.542318 -2.65489,3.336397 c -1.46019,1.835018 -2.81143,3.586627 -3.00276,3.892464 -0.19132,0.305835 -0.34786,-0.0515 -0.34786,-0.79408 z M 502.18053,74.68577 c 1.78669,-1.9363 5.05018,-4.321297 7.2522,-5.299993 2.64989,-1.177748 3.1843,-1.797111 1.58047,-1.831684 -3.21935,-0.0694 -7.43897,2.183521 -11.9233,6.366027 -2.7068,2.524618 -3.67003,4.700169 -3.67003,8.289141 0,6.930234 1.86062,7.902612 2.75698,1.440821 0.42701,-3.078304 2.16671,-6.97354 4.00368,-8.964312 z m 64.44114,-10.703907 c -0.77424,2.209663 -0.36728,2.383427 3.66677,1.565637 11.17585,-2.265592 14.94837,-10.20634 8.49337,-17.87766 -2.70161,-3.21069 -4.6052,-4.19004 -8.14428,-4.19004 -6.28439,0 -12.01591,3.21286 -14.58125,8.17368 -2.83195,5.47637 -1.5666,9.699549 3.66539,12.233475 3.92359,1.900253 4.4307,1.886967 6.02747,-0.157901 1.59389,-2.041179 1.66874,-2.019491 0.87253,0.252809 z"
               style="fill:#000000" />
            <path
               transform="matrix(1.3345588,0,0,1.3345588,-21.270344,-25.162893)"
               sodipodi:nodetypes="ccccccccccccccccccccccccccccccccccccccccccccccccccccccccccccccccccccccccccccccccccccccccccc"
               inkscape:connector-curvature="0"
               id="path6717"
               d="m 441.17505,48.547332 c -6.12335,0.381926 -13.63798,5.621173 -13.11816,12.29841 0.18616,6.853243 5.8171,11.985106 8.83279,17.762705 6.41865,10.209672 11.90027,21.239484 15.85379,32.651213 0.83215,1.63221 3.36385,-0.51466 4.65026,-0.60077 8.15649,-2.31244 18.41752,-1.36795 24.25451,5.37926 0.95104,1.77646 -2.14753,0.88532 -2.98311,0.59287 -6.51061,-2.81704 -13.75985,-2.08981 -19.02618,2.24325 -3.29508,1.78275 -7.28044,-1.20112 -10.5386,-0.48909 -1.136,-0.0601 -2.85462,-0.49563 -1.7243,-1.8972 2.01315,-3.55401 -3.19507,-8.3401 -5.11488,-12.1751 C 434.5127,92.365769 426.2992,80.333761 414.2176,72.434875 c -2.36389,-1.394906 -6.02689,-3.01866 -8.63759,-2.845986 1.22195,1.098864 8.80259,6.64455 7.27526,11.598011 -3.33051,7.464055 -13.62064,11.460469 -20.86201,6.871799 -0.61433,-0.520478 -3.97773,-2.735787 -2.73551,-1.329771 1.78606,5.165466 20.79229,16.503982 29.60418,25.074272 5.61428,4.78711 9.72967,11.34435 14.84451,16.5965 2.4357,0.0608 4.50984,-3.78117 7.07205,-3.2978 -0.84598,3.34419 -1.51263,4.38454 -1.23013,10.25542 -1.35676,2.76621 -5.02222,3.42487 -6.54824,6.16351 -3.72414,4.63161 -3.56356,10.87039 -5.78569,16.12889 -3.28815,-3.72286 -1.88636,-9.28272 -1.35542,-13.72189 0.69046,-4.12612 2.29242,-8.05294 3.50101,-12.01036 -12.56063,-11.50903 -26.0522,-23.99785 -43.22546,-27.63023 -1.10008,-0.46206 -2.35384,1.34026 -1.13149,1.70463 3.52742,1.41667 8.83705,2.8877 9.30939,7.31374 0.28639,5.86984 -5.74844,9.75308 -10.72498,11.2557 -2.63097,0.57126 -9.56568,-0.66534 -1.57412,2.48732 13.07339,6.18915 26.8579,12.1255 37.27374,22.44787 1.36817,0.69538 1.97401,3.73381 -0.2042,3.51481 -4.91217,-1.99836 -9.45804,-5.41665 -14.83479,-7.19962 -7.67592,-3.6232 -16.92426,-4.97528 -25.09583,-4.14191 3.37768,1.7127 9.37972,2.30738 9.72962,7.1056 0.91077,4.92131 -3.95162,8.78694 -7.28019,11.69271 -1.68074,1.50833 2.92707,0.59556 3.71615,0.92071 11.55914,0.54748 23.84246,2.67409 32.68386,10.76904 9.67275,8.19728 14.75877,19.85319 22.61893,29.55486 6.67274,5.37861 16.29946,5.56929 24.40105,6.90028 8.3628,0.8348 16.43898,3.39879 24.74524,4.50635 7.25312,0.7216 11.48351,-6.30554 17.48418,-8.91178 5.04035,-2.56245 6.4954,-8.56009 9.36065,-12.99901 3.4713,-6.93235 7.57055,-13.66503 10.83704,-20.61737 0.92278,-11.43917 0.35561,-23.34253 4.65477,-34.18128 2.0834,-6.52284 -0.22798,-13.33992 -3.64038,-18.94994 -2.99782,-5.15223 0.78302,-10.8152 3.24086,-15.34296 0.88973,-1.75124 2.66262,-3.178423 3.49312,-4.757784 -7.76118,-0.332668 -14.55846,4.597044 -19.29451,10.261334 -4.09005,5.5389 -2.04894,12.87824 -2.09748,19.2101 -0.1,2.97212 0.90005,6.36185 0.14884,9.08672 -3.27489,3.14651 -6.37489,6.70934 -9.85357,9.52077 -2.94616,-9.04522 -7.97755,-17.59357 -13.83041,-25.31497 -3.49352,-4.35209 -8.55935,-7.72023 -12.1821,-11.81865 -5.37685,-16.363288 -9.878,-33.784123 -19.67618,-48.408745 -1.80036,-3.014496 -5.82213,-7.502494 -9.47215,-9.147602 -1.01135,0.937534 2.32221,2.983956 2.60528,3.844301 3.04869,3.102458 3.47531,8.592929 -0.19236,11.451026 -3.63982,3.9826 -9.54753,3.383478 -14.36311,2.631921 -3.76385,-0.74804 -8.77144,-4.207589 -7.08685,-8.613918 1.47515,-5.301964 6.3308,-9.049378 11.74105,-9.54318 1.34428,-0.362301 8.56148,0.361018 3.27497,-1.148787 -1.40575,-0.385653 -2.27574,-0.894112 -3.74355,-0.822194 z m 32.88027,71.684328 c 7.66158,-0.32684 13.93082,6.72173 13.82055,14.14411 0.47302,6.3214 -4.83526,11.2462 -10.51881,12.90214 -2.33144,1.13702 -5.43694,-0.23732 -7.6964,0.68308 1.09932,5.60743 1.58574,12.26006 -1.42421,17.38675 -2.2557,2.48633 -2.5286,3.52115 0.41942,7.47677 2.11233,3.62697 2.15465,4.39361 -0.85579,0.93242 -3.29432,-3.89733 -8.40888,-6.82676 -13.58773,-6.26749 -6.67102,-0.3657 -13.31353,4.61787 -14.83959,11.2926 -0.0854,0.7964 -1.44417,2.44842 -1.24296,0.5978 0.391,-2.61956 2.01309,-5.30289 2.79864,-7.80698 -7.29698,-5.98156 -10.57523,-16.92591 -5.50849,-25.22422 2.69122,-4.69742 7.55524,-7.95788 12.5207,-9.72072 3.9964,0.12962 8.10322,0.55571 12.0337,0.50604 -0.81031,-6.00811 1.78212,-12.693 7.45481,-15.32985 2.04861,-1.0367 4.32832,-1.57949 6.62616,-1.57245 z m 34.87296,44.87189 c 1.80403,2.1336 0.94331,5.58755 1.29425,8.23018 0.0441,7.74949 0.13203,16.51291 -5.58345,22.5262 -3.90388,4.84624 -9.64903,8.38868 -16.03095,8.23455 -8.88736,0.72193 -18.41162,-1.56994 -26.98743,-3.6576 -1.29619,-0.0437 1.10228,2.88551 -0.60759,2.4004 -2.33086,-0.28066 -6.13626,-2.90721 -3.92716,-5.46409 2.47385,-1.96524 6.10024,-1.82522 8.35447,-4.27539 1.53873,-0.97896 3.10269,-3.34803 4.81401,-3.34515 -0.11332,1.28493 -2.73278,3.68663 -1.76537,4.79927 7.27888,-1.35941 15.07719,-4.43202 21.63645,-7.90331 7.87674,-4.06739 13.28377,-11.43715 17.00541,-19.28504 0.57643,-0.64391 0.8797,-2.03614 1.79736,-2.26002 z"
               style="opacity:1;fill:#ffcc00;fill-opacity:1;stroke:none" />
          </g>
        </g>
      </g>
      <g
         display="none"
         id="Capa_2-9"
         style="display:none" />
      <g
         display="none"
         id="Capa_3-8"
         style="display:none">
        <g
           display="inline"
           id="XMLID_115_"
           style="display:inline">
          <g
             id="XMLID_535_">
            <path
               d="M 48.863,-43.687 C 19.77,-16.179 0.217,20.788 -6.527,60.24 c -6.477,37.881 -0.514,76.823 16.537,111.229 17.598,35.509 46.172,64.609 81.404,82.744 19.223,9.895 39.904,16.765 60.96,21.523 21.642,4.891 44.1,8.054 66.308,6.099 37.061,-3.263 68.399,-22.989 87.871,-54.58 17.74,-28.784 24.893,-64.167 20.205,-97.607 C 321.182,89.86 301.321,53.581 275.732,23.132 249.392,-8.208 216.489,-35.983 179.927,-54.615 144.903,-72.463 103.281,-81.947 64.917,-69.583 32.987,-59.293 3.562,-35.256 -7.046,-2.66 c -2.599,7.983 -3.852,16.307 -3.921,24.693 -0.017,1.931 2.983,1.933 3,0 0.294,-35.446 24.65,-65.038 55.03,-80.906 34.614,-18.08 74.429,-16.016 110.27,-2.511 37.552,14.15 70.862,39.364 98.933,67.672 26.956,27.185 49.866,59.602 61.342,96.437 10.377,33.312 10.05,68.807 -2.832,101.401 -12.445,31.489 -36.652,58.704 -69.407,69.374 -20.745,6.758 -42.984,6.987 -64.461,4.305 -21.355,-2.667 -42.658,-7.801 -62.862,-15.216 C 80.706,248.887 48.212,225.388 25.708,192.368 4.766,161.64 -6.904,124.725 -6.143,87.462 -5.349,48.631 8.281,10.209 31.947,-20.568 c 5.772,-7.506 12.158,-14.494 19.037,-20.998 1.406,-1.329 -0.718,-3.447 -2.121,-2.121 l 0,0 z"
               id="XMLID_136_"
               inkscape:connector-curvature="0"
               style="fill:#d60523" />
          </g>
        </g>
      </g>
    </g>
  </g>
</svg>
