<?xml version="1.0" encoding="UTF-8" standalone="no"?>
<!-- Created with Inkscape (http://www.inkscape.org/) -->

<svg
   xmlns:dc="http://purl.org/dc/elements/1.1/"
   xmlns:cc="http://creativecommons.org/ns#"
   xmlns:rdf="http://www.w3.org/1999/02/22-rdf-syntax-ns#"
   xmlns:svg="http://www.w3.org/2000/svg"
   xmlns="http://www.w3.org/2000/svg"
   xmlns:sodipodi="http://sodipodi.sourceforge.net/DTD/sodipodi-0.dtd"
   xmlns:inkscape="http://www.inkscape.org/namespaces/inkscape"
   width="256"
   height="256"
   viewBox="0 0 256 256"
   id="svg2"
   version="1.1"
   inkscape:version="0.92.3 (2405546, 2018-03-11)"
   sodipodi:docname="gdis.svg">
  <defs
     id="defs4" />
  <sodipodi:namedview
     id="base"
     pagecolor="#ffffff"
     bordercolor="#666666"
     borderopacity="1.0"
     inkscape:pageopacity="0.0"
     inkscape:pageshadow="2"
     inkscape:zoom="0.98994948"
     inkscape:cx="108.33411"
     inkscape:cy="43.317927"
     inkscape:document-units="px"
     inkscape:current-layer="Capa_1-52"
     showgrid="false"
     units="px"
     showguides="true"
     inkscape:guide-bbox="true"
     inkscape:snap-intersection-paths="false"
     inkscape:snap-midpoints="true"
     inkscape:window-width="1920"
     inkscape:window-height="897"
     inkscape:window-x="0"
     inkscape:window-y="36"
     inkscape:window-maximized="1">
    <sodipodi:guide
       position="128.92857,237.85714"
       orientation="0,1"
       id="guide4147"
       inkscape:locked="false" />
    <sodipodi:guide
       position="18.214286,162.14286"
       orientation="1,0"
       id="guide4149"
       inkscape:locked="false" />
    <sodipodi:guide
       position="237.85714,66.785714"
       orientation="1,0"
       id="guide4151"
       inkscape:locked="false" />
    <sodipodi:guide
       position="198.21429,17.5"
       orientation="0,1"
       id="guide4153"
       inkscape:locked="false" />
  </sodipodi:namedview>
  <metadata
     id="metadata7">
    <rdf:RDF>
      <cc:Work
         rdf:about="">
        <dc:format>image/svg+xml</dc:format>
        <dc:type
           rdf:resource="http://purl.org/dc/dcmitype/StillImage" />
        <dc:title />
      </cc:Work>
    </rdf:RDF>
  </metadata>
  <g
     inkscape:label="Capa 1"
     inkscape:groupmode="layer"
     id="layer1"
     transform="translate(0,-796.36216)">
    <g
       id="g25170"
       transform="matrix(0.74931131,0,0,0.74931131,16.141552,814.9821)">
      <g
         id="Capa_1-52">
        <linearGradient
           gradientTransform="matrix(0.9954,0,0,-0.9999,610.8265,2066.5017)"
           y2="2067.1211"
           x2="-462.89401"
           y1="1771.0918"
           x1="-462.89401"
           gradientUnits="userSpaceOnUse"
           id="rect3438-6-0-6-7-2_60_-2">
          <stop
             id="stop24938"
             style="stop-color:#000000"
             offset="0" />
          <stop
             id="stop24940"
             style="stop-color:#000000;stop-opacity:0.5882"
             offset="1" />
        </linearGradient>
        <linearGradient
           gradientTransform="matrix(0.9867,0,0,-0.9918,604.92,2056.9424)"
           y2="2074.3652"
           x2="-460.9888"
           y1="1777.6816"
           x1="-460.9888"
           gradientUnits="userSpaceOnUse"
           id="rect3438-6-0-1-1_60_-78">
          <stop
             id="stop24944"
             style="stop-color:#000000"
             offset="0" />
          <stop
             id="stop24946"
             style="stop-color:#000000;stop-opacity:0.5882"
             offset="1" />
        </linearGradient>
        <g
           id="g1082"
           transform="matrix(1.427701,0,0,1.427701,-62.420855,-54.920987)">
          <g
             style="opacity:0.34000017"
             id="XMLID_1599_">
            <linearGradient
               id="XMLID_144_-51"
               gradientUnits="userSpaceOnUse"
               x1="148.28909"
               y1="197.375"
               x2="148.28909"
               y2="84.276901">
              <stop
                 offset="0"
                 style="stop-color:#000000"
                 id="stop24964" />
              <stop
                 offset="1"
                 style="stop-color:#000000;stop-opacity:0.5882"
                 id="stop24966" />
            </linearGradient>
            <path
               inkscape:connector-curvature="0"
               id="XMLID_1609_"
               d="m 212.865,137.022 c 5.636,-6.188 10.59,-12.864 13.766,-20.679 2.26,-5.568 3.402,-11.294 1.521,-17.21 -2.479,-7.805 -8.372,-11.802 -15.984,-13.658 -7.67,-1.869 -15.38,-1.296 -23.062,-0.019 -10.988,1.824 -21.487,5.272 -31.953,9.558 4.927,2.734 9.636,5.271 14.252,7.959 1.214,0.707 2.177,0.856 3.526,0.422 8.428,-2.705 16.969,-4.889 25.903,-5.032 3.672,-0.06 7.329,0.093 10.753,1.62 2.866,1.279 4.226,3.422 3.475,6.436 -0.737,2.962 -1.744,5.957 -3.21,8.624 -4.163,7.587 -10.014,13.887 -16.31,19.754 -16.766,15.625 -35.93,27.65 -56.829,36.969 -12.772,5.696 -25.917,10.259 -40.003,11.485 -4.47,0.39 -8.91,0.304 -13.173,-1.283 -3.443,-1.282 -4.933,-3.603 -3.957,-7.131 0.891,-3.23 2.146,-6.458 3.815,-9.358 3.978,-6.895 9.299,-12.797 15.218,-18.073 2.63,-2.346 3.851,-4.643 3.552,-8.208 -0.367,-4.379 -0.089,-8.812 -0.089,-13.162 0.12,-0.053 -0.056,-0.015 -0.185,0.085 -9.759,7.654 -18.834,16 -26.277,25.967 -4.096,5.484 -7.526,11.324 -9.273,18.015 -2.362,9.023 0.185,17.178 7.008,22.13 4.475,3.249 9.647,4.534 15.069,4.958 9.297,0.728 18.351,-0.788 27.289,-3.131 17.146,-4.493 33.139,-11.717 48.403,-20.578 17.258,-10.016 33.27,-21.653 46.755,-36.46 z"
               style="clip-rule:evenodd;fill:url(#XMLID_144_-51);fill-rule:evenodd" />
            <linearGradient
               id="XMLID_157_-9"
               gradientUnits="userSpaceOnUse"
               x1="143.9883"
               y1="173.3008"
               x2="143.9883"
               y2="49.767101">
              <stop
                 offset="0"
                 style="stop-color:#000000"
                 id="stop24970" />
              <stop
                 offset="1"
                 style="stop-color:#000000;stop-opacity:0.5882"
                 id="stop24972" />
            </linearGradient>
            <path
               inkscape:connector-curvature="0"
               id="XMLID_1610_"
               d="m 113.476,173.301 c 4.735,-1.548 9.097,-2.976 13.15,-4.301 -0.492,-8.053 -1.178,-15.67 -1.369,-23.3 -0.344,-13.549 0.521,-27.041 2.851,-40.417 1.72,-9.879 4.12,-19.569 8.379,-28.71 1.902,-4.086 4.072,-8.027 7.631,-10.981 2.791,-2.317 5.648,-2.548 8.21,-0.021 2.343,2.314 4.446,5.008 6.082,7.86 2.04,3.552 3.488,7.437 5.242,11.286 4.208,-1.306 8.52,-2.645 13.042,-4.047 -0.882,-2.322 -1.63,-4.491 -2.521,-6.6 -2.759,-6.522 -6.073,-12.715 -11.205,-17.754 -8.518,-8.37 -19.36,-8.756 -28.342,-0.92 -5.587,4.873 -9.097,11.201 -11.909,17.903 -7.132,17.004 -9.784,34.949 -10.969,53.173 -0.739,11.402 -0.586,22.808 0.377,34.191 0.349,4.099 0.868,8.184 1.351,12.638 z"
               style="clip-rule:evenodd;fill:url(#XMLID_157_-9);fill-rule:evenodd" />
            <linearGradient
               id="XMLID_231_-7"
               gradientUnits="userSpaceOnUse"
               x1="151.6416"
               y1="231.9287"
               x2="151.6416"
               y2="171.57179">
              <stop
                 offset="0"
                 style="stop-color:#000000"
                 id="stop24976" />
              <stop
                 offset="1"
                 style="stop-color:#000000;stop-opacity:0.5882"
                 id="stop24978" />
            </linearGradient>
            <path
               inkscape:connector-curvature="0"
               id="XMLID_1611_"
               d="m 167.365,182.338 c -1.261,4.555 -2.275,9.184 -3.716,13.68 -2.1,6.544 -4.641,12.938 -9.229,18.24 -4.198,4.854 -7.966,4.853 -12.215,0.082 -3.492,-3.92 -5.642,-8.611 -7.561,-13.42 -0.531,-1.328 -1.044,-2.662 -1.562,-3.979 -4.454,1.388 -8.737,2.722 -13.021,4.056 0.023,0.27 0.004,0.457 0.06,0.619 0.373,1.087 0.73,2.184 1.147,3.255 2.981,7.624 6.516,14.931 12.536,20.722 8.826,8.489 20.242,8.434 29.039,-0.079 3.674,-3.556 6.461,-7.745 8.743,-12.269 5.636,-11.167 8.625,-23.138 10.692,-35.378 0.346,-2.031 0.609,-4.074 0.938,-6.295 -5.165,3.119 -10.021,6.015 -14.821,9.001 -0.516,0.321 -0.852,1.121 -1.03,1.765 z"
               style="clip-rule:evenodd;fill:url(#XMLID_231_-7);fill-rule:evenodd" />
            <linearGradient
               id="XMLID_248_-9"
               gradientUnits="userSpaceOnUse"
               x1="89.113297"
               y1="135.397"
               x2="89.113297"
               y2="84.298302">
              <stop
                 offset="0"
                 style="stop-color:#000000"
                 id="stop24982" />
              <stop
                 offset="1"
                 style="stop-color:#000000;stop-opacity:0.5882"
                 id="stop24984" />
            </linearGradient>
            <path
               inkscape:connector-curvature="0"
               id="XMLID_1612_"
               d="m 82.211,135.397 c 3.455,-3.212 6.779,-6.303 10.19,-9.472 -0.76,-0.944 -1.491,-1.828 -2.194,-2.732 -3.437,-4.43 -6.71,-8.964 -8.3,-14.438 -1.584,-5.455 -0.012,-8.182 5.462,-9.592 4.443,-1.144 8.951,-0.928 13.45,-0.492 2.28,0.221 4.542,0.604 6.836,0.918 1.032,-4.55 2.019,-8.91 3.104,-13.701 -3.803,-0.482 -7.403,-1.077 -11.028,-1.37 -6.365,-0.513 -12.688,-0.243 -18.761,1.995 -10.151,3.74 -14.292,12.16 -13.381,20.634 1.203,11.214 7.666,19.811 14.622,28.25 z"
               style="clip-rule:evenodd;fill:url(#XMLID_248_-9);fill-rule:evenodd" />
            <linearGradient
               id="XMLID_279_-5"
               gradientUnits="userSpaceOnUse"
               x1="207.41499"
               y1="197.3687"
               x2="207.41499"
               y2="146.3179">
              <stop
                 offset="0"
                 style="stop-color:#000000"
                 id="stop24988" />
              <stop
                 offset="1"
                 style="stop-color:#000000;stop-opacity:0.5882"
                 id="stop24990" />
            </linearGradient>
            <path
               inkscape:connector-curvature="0"
               id="XMLID_1613_"
               d="m 214.361,146.318 c -3.464,3.212 -6.789,6.299 -10.189,9.451 1.287,1.641 2.555,3.182 3.736,4.785 2.781,3.776 5.346,7.682 6.706,12.229 1.675,5.584 -0.04,8.79 -5.792,9.812 -3.559,0.632 -7.263,0.676 -10.894,0.602 -3.013,-0.061 -6.019,-0.677 -9.069,-1.053 -1.021,4.486 -2.037,8.946 -3.069,13.487 6.062,1.253 12.09,1.927 18.213,1.69 4.168,-0.16 8.242,-0.782 12.138,-2.326 9.213,-3.65 13.993,-11.584 12.687,-21.357 -1.452,-10.825 -7.767,-19.125 -14.467,-27.32 z"
               style="clip-rule:evenodd;fill:url(#XMLID_279_-5);fill-rule:evenodd" />
            <linearGradient
               id="XMLID_280_-32"
               gradientUnits="userSpaceOnUse"
               x1="164.34959"
               y1="135.7603"
               x2="164.34959"
               y2="94.315399">
              <stop
                 offset="0"
                 style="stop-color:#000000"
                 id="stop24994" />
              <stop
                 offset="1"
                 style="stop-color:#000000;stop-opacity:0.5882"
                 id="stop24996" />
            </linearGradient>
            <path
               inkscape:connector-curvature="0"
               id="XMLID_1614_"
               d="m 183.135,135.758 c 1.562,-0.084 3.055,-2.167 4.5,-3.461 1.969,-1.762 3.865,-3.606 5.911,-5.525 -17.157,-13.425 -35.515,-24.153 -55.775,-32.456 -0.874,4.223 -1.649,8.139 -2.508,12.038 -0.308,1.396 -0.003,2.125 1.437,2.739 14.788,6.312 28.639,14.278 41.675,23.651 1.564,1.125 3.23,3.096 4.76,3.014 z"
               style="clip-rule:evenodd;fill:url(#XMLID_280_-32);fill-rule:evenodd" />
            <linearGradient
               id="XMLID_281_-26"
               gradientUnits="userSpaceOnUse"
               x1="147.91991"
               y1="154.93021"
               x2="147.91991"
               y2="126.8003">
              <stop
                 offset="0"
                 style="stop-color:#000000"
                 id="stop25000" />
              <stop
                 offset="1"
                 style="stop-color:#000000;stop-opacity:0.5882"
                 id="stop25002" />
            </linearGradient>
            <path
               inkscape:connector-curvature="0"
               id="XMLID_1615_"
               d="m 134.003,141.219 c 0.047,7.543 6.337,13.721 13.955,13.711 7.737,-0.011 13.91,-6.308 13.879,-14.158 -0.027,-7.755 -6.279,-14.058 -13.864,-13.971 -8.058,0.09 -14.022,6.244 -13.97,14.418 z"
               style="clip-rule:evenodd;fill:url(#XMLID_281_-26);fill-rule:evenodd" />
          </g>
          <g
             style="opacity:0.34000017"
             id="XMLID_1622_">
            <linearGradient
               id="XMLID_470_-5"
               gradientUnits="userSpaceOnUse"
               x1="148.28909"
               y1="199.563"
               x2="148.28909"
               y2="86.464798">
              <stop
                 offset="0"
                 style="stop-color:#000000"
                 id="stop25007" />
              <stop
                 offset="1"
                 style="stop-color:#000000;stop-opacity:0.5882"
                 id="stop25009" />
            </linearGradient>
            <path
               inkscape:connector-curvature="0"
               id="XMLID_1629_"
               d="m 212.865,139.21 c 5.636,-6.188 10.59,-12.864 13.766,-20.679 2.26,-5.568 3.402,-11.294 1.521,-17.21 -2.479,-7.805 -8.372,-11.802 -15.984,-13.658 -7.67,-1.869 -15.38,-1.296 -23.062,-0.019 -10.988,1.824 -21.487,5.272 -31.953,9.558 4.927,2.734 9.636,5.271 14.252,7.96 1.214,0.707 2.177,0.855 3.526,0.422 8.428,-2.705 16.969,-4.889 25.903,-5.031 3.672,-0.06 7.329,0.092 10.753,1.62 2.866,1.279 4.226,3.422 3.475,6.436 -0.737,2.962 -1.744,5.957 -3.21,8.624 -4.163,7.587 -10.014,13.887 -16.31,19.754 -16.766,15.625 -35.93,27.65 -56.829,36.969 -12.772,5.696 -25.917,10.259 -40.003,11.485 -4.47,0.39 -8.91,0.304 -13.173,-1.283 -3.443,-1.282 -4.933,-3.603 -3.957,-7.131 0.891,-3.23 2.146,-6.458 3.815,-9.358 3.978,-6.895 9.299,-12.797 15.218,-18.073 2.63,-2.346 3.851,-4.643 3.552,-8.208 -0.367,-4.379 -0.089,-8.812 -0.089,-13.162 0.12,-0.053 -0.056,-0.015 -0.185,0.085 -9.759,7.654 -18.834,16 -26.277,25.967 -4.096,5.484 -7.526,11.324 -9.273,18.015 -2.362,9.023 0.185,17.178 7.008,22.13 4.475,3.249 9.647,4.534 15.069,4.958 9.297,0.728 18.351,-0.788 27.289,-3.131 17.146,-4.493 33.139,-11.717 48.403,-20.578 17.258,-10.018 33.27,-21.655 46.755,-36.462 z"
               style="clip-rule:evenodd;fill:url(#XMLID_470_-5);fill-rule:evenodd" />
            <linearGradient
               id="XMLID_471_-82"
               gradientUnits="userSpaceOnUse"
               x1="143.9883"
               y1="175.4888"
               x2="143.9883"
               y2="51.955601">
              <stop
                 offset="0"
                 style="stop-color:#000000"
                 id="stop25013" />
              <stop
                 offset="1"
                 style="stop-color:#000000;stop-opacity:0.5882"
                 id="stop25015" />
            </linearGradient>
            <path
               inkscape:connector-curvature="0"
               id="XMLID_1628_"
               d="m 113.476,175.489 c 4.735,-1.548 9.097,-2.976 13.15,-4.301 -0.492,-8.053 -1.178,-15.67 -1.369,-23.3 -0.344,-13.549 0.521,-27.041 2.851,-40.417 1.72,-9.879 4.12,-19.569 8.379,-28.71 1.902,-4.086 4.072,-8.027 7.631,-10.981 2.791,-2.317 5.648,-2.548 8.21,-0.021 2.343,2.314 4.446,5.008 6.082,7.86 2.04,3.552 3.488,7.437 5.242,11.286 4.208,-1.306 8.52,-2.645 13.042,-4.047 -0.882,-2.322 -1.63,-4.491 -2.521,-6.6 -2.759,-6.522 -6.073,-12.715 -11.205,-17.754 -8.518,-8.37 -19.36,-8.756 -28.342,-0.92 -5.587,4.873 -9.097,11.201 -11.909,17.903 -7.132,17.004 -9.784,34.949 -10.969,53.173 -0.739,11.402 -0.586,22.808 0.377,34.191 0.349,4.099 0.868,8.184 1.351,12.638 z"
               style="clip-rule:evenodd;fill:url(#XMLID_471_-82);fill-rule:evenodd" />
            <linearGradient
               id="XMLID_487_-76"
               gradientUnits="userSpaceOnUse"
               x1="151.6416"
               y1="234.1167"
               x2="151.6416"
               y2="173.7598">
              <stop
                 offset="0"
                 style="stop-color:#000000"
                 id="stop25019" />
              <stop
                 offset="1"
                 style="stop-color:#000000;stop-opacity:0.5882"
                 id="stop25021" />
            </linearGradient>
            <path
               inkscape:connector-curvature="0"
               id="XMLID_1627_"
               d="m 167.365,184.526 c -1.261,4.555 -2.275,9.184 -3.716,13.68 -2.1,6.544 -4.641,12.938 -9.229,18.24 -4.198,4.854 -7.966,4.853 -12.215,0.082 -3.492,-3.921 -5.642,-8.611 -7.561,-13.421 -0.531,-1.328 -1.044,-2.662 -1.562,-3.979 -4.454,1.388 -8.737,2.722 -13.021,4.056 0.023,0.27 0.004,0.457 0.06,0.619 0.373,1.087 0.73,2.184 1.147,3.255 2.981,7.624 6.516,14.931 12.536,20.722 8.826,8.489 20.242,8.434 29.039,-0.079 3.674,-3.556 6.461,-7.746 8.743,-12.269 5.636,-11.167 8.625,-23.138 10.692,-35.378 0.346,-2.031 0.609,-4.074 0.938,-6.295 -5.165,3.119 -10.021,6.015 -14.821,9.001 -0.516,0.322 -0.852,1.122 -1.03,1.766 z"
               style="clip-rule:evenodd;fill:url(#XMLID_487_-76);fill-rule:evenodd" />
            <linearGradient
               id="XMLID_488_-4"
               gradientUnits="userSpaceOnUse"
               x1="89.113297"
               y1="137.58501"
               x2="89.113297"
               y2="86.486298">
              <stop
                 offset="0"
                 style="stop-color:#000000"
                 id="stop25025" />
              <stop
                 offset="1"
                 style="stop-color:#000000;stop-opacity:0.5882"
                 id="stop25027" />
            </linearGradient>
            <path
               inkscape:connector-curvature="0"
               id="XMLID_1626_"
               d="m 82.211,137.585 c 3.455,-3.212 6.779,-6.303 10.19,-9.472 -0.76,-0.943 -1.491,-1.828 -2.194,-2.732 -3.437,-4.43 -6.71,-8.964 -8.3,-14.438 -1.584,-5.455 -0.012,-8.182 5.462,-9.592 4.443,-1.144 8.951,-0.928 13.45,-0.492 2.28,0.221 4.542,0.604 6.836,0.918 1.032,-4.55 2.019,-8.91 3.104,-13.701 -3.803,-0.482 -7.403,-1.077 -11.028,-1.37 -6.365,-0.513 -12.688,-0.243 -18.761,1.995 -10.151,3.74 -14.292,12.16 -13.381,20.634 1.203,11.214 7.666,19.811 14.622,28.25 z"
               style="clip-rule:evenodd;fill:url(#XMLID_488_-4);fill-rule:evenodd" />
            <linearGradient
               id="XMLID_553_-42"
               gradientUnits="userSpaceOnUse"
               x1="207.41499"
               y1="199.55659"
               x2="207.41499"
               y2="148.50591">
              <stop
                 offset="0"
                 style="stop-color:#000000"
                 id="stop25031" />
              <stop
                 offset="1"
                 style="stop-color:#000000;stop-opacity:0.5882"
                 id="stop25033" />
            </linearGradient>
            <path
               inkscape:connector-curvature="0"
               id="XMLID_1625_"
               d="m 214.361,148.506 c -3.464,3.212 -6.789,6.299 -10.189,9.451 1.287,1.642 2.555,3.182 3.736,4.785 2.781,3.776 5.346,7.682 6.706,12.229 1.675,5.584 -0.04,8.79 -5.792,9.812 -3.559,0.632 -7.263,0.676 -10.894,0.602 -3.013,-0.061 -6.019,-0.677 -9.069,-1.053 -1.021,4.485 -2.037,8.946 -3.069,13.486 6.062,1.253 12.09,1.927 18.213,1.69 4.168,-0.16 8.242,-0.782 12.138,-2.326 9.213,-3.65 13.993,-11.584 12.687,-21.357 -1.452,-10.824 -7.767,-19.124 -14.467,-27.319 z"
               style="clip-rule:evenodd;fill:url(#XMLID_553_-42);fill-rule:evenodd" />
            <linearGradient
               id="XMLID_564_-3"
               gradientUnits="userSpaceOnUse"
               x1="164.34959"
               y1="137.9482"
               x2="164.34959"
               y2="96.503403">
              <stop
                 offset="0"
                 style="stop-color:#000000"
                 id="stop25037" />
              <stop
                 offset="1"
                 style="stop-color:#000000;stop-opacity:0.5882"
                 id="stop25039" />
            </linearGradient>
            <path
               inkscape:connector-curvature="0"
               id="XMLID_1624_"
               d="m 183.135,137.946 c 1.562,-0.084 3.055,-2.167 4.5,-3.461 1.969,-1.762 3.865,-3.605 5.911,-5.525 -17.157,-13.425 -35.515,-24.153 -55.775,-32.456 -0.874,4.223 -1.649,8.139 -2.508,12.038 -0.308,1.396 -0.003,2.124 1.437,2.739 14.788,6.312 28.639,14.278 41.675,23.651 1.564,1.125 3.23,3.096 4.76,3.014 z"
               style="clip-rule:evenodd;fill:url(#XMLID_564_-3);fill-rule:evenodd" />
            <linearGradient
               id="XMLID_598_-75"
               gradientUnits="userSpaceOnUse"
               x1="147.91991"
               y1="157.11819"
               x2="147.91991"
               y2="128.9883">
              <stop
                 offset="0"
                 style="stop-color:#000000"
                 id="stop25043" />
              <stop
                 offset="1"
                 style="stop-color:#000000;stop-opacity:0.5882"
                 id="stop25045" />
            </linearGradient>
            <path
               inkscape:connector-curvature="0"
               id="XMLID_1623_"
               d="m 134.003,143.407 c 0.047,7.543 6.337,13.721 13.955,13.711 7.737,-0.011 13.91,-6.308 13.879,-14.158 -0.027,-7.755 -6.279,-14.058 -13.864,-13.971 -8.058,0.09 -14.022,6.244 -13.97,14.418 z"
               style="clip-rule:evenodd;fill:url(#XMLID_598_-75);fill-rule:evenodd" />
          </g>
          <g
             id="XMLID_791_">
            <g
               id="XMLID_793_">
              <linearGradient
                 id="XMLID_603_-6"
                 gradientUnits="userSpaceOnUse"
                 x1="148.69341"
                 y1="34.128399"
                 x2="147.87131"
                 y2="246.6841">
                <stop
                   offset="0"
                   style="stop-color:#FFB13D"
                   id="stop25051" />
                <stop
                   offset="0.1044"
                   style="stop-color:#FDAC45"
                   id="stop25053" />
                <stop
                   offset="0.2633"
                   style="stop-color:#F99E5A"
                   id="stop25055" />
                <stop
                   offset="0.457"
                   style="stop-color:#F2877C"
                   id="stop25057" />
                <stop
                   offset="0.6781"
                   style="stop-color:#E968AC"
                   id="stop25059" />
                <stop
                   offset="0.9193"
                   style="stop-color:#DC40E9"
                   id="stop25061" />
                <stop
                   offset="1"
                   style="stop-color:#D831FF"
                   id="stop25063" />
              </linearGradient>
              <path
                 inkscape:connector-curvature="0"
                 id="XMLID_801_"
                 d="m 157.153,92.555 c 10.466,-4.286 20.965,-7.734 31.953,-9.558 7.682,-1.277 15.392,-1.851 23.062,0.019 7.612,1.855 13.505,5.853 15.984,13.657 1.881,5.917 0.738,11.642 -1.521,17.211 -3.176,7.815 -8.13,14.491 -13.766,20.679 -13.485,14.807 -29.497,26.444 -46.754,36.46 -15.265,8.861 -31.258,16.085 -48.403,20.578 -8.938,2.344 -17.992,3.859 -27.289,3.131 -5.422,-0.424 -10.595,-1.708 -15.069,-4.958 -6.823,-4.953 -9.37,-13.107 -7.008,-22.13 1.747,-6.692 5.178,-12.531 9.273,-18.016 7.444,-9.966 16.519,-18.313 26.277,-25.967 0.129,-0.1 0.305,-0.138 0.185,-0.085 0,4.35 -0.278,8.783 0.089,13.162 0.299,3.565 -0.922,5.862 -3.552,8.208 -5.919,5.276 -11.24,11.178 -15.218,18.073 -1.67,2.899 -2.925,6.128 -3.815,9.358 -0.976,3.528 0.514,5.849 3.957,7.131 4.263,1.587 8.703,1.673 13.173,1.284 14.086,-1.227 27.23,-5.79 40.003,-11.485 20.899,-9.319 40.063,-21.344 56.829,-36.969 6.296,-5.867 12.146,-12.167 16.31,-19.753 1.466,-2.667 2.473,-5.662 3.21,-8.624 0.751,-3.013 -0.607,-5.156 -3.475,-6.436 -3.424,-1.527 -7.081,-1.679 -10.753,-1.62 -8.935,0.142 -17.475,2.327 -25.903,5.032 -1.35,0.433 -2.312,0.284 -3.526,-0.422 -4.617,-2.69 -9.326,-5.227 -14.253,-7.96 z"
                 style="clip-rule:evenodd;fill:url(#XMLID_603_-6);fill-rule:evenodd" />
              <linearGradient
                 id="XMLID_606_-8"
                 gradientUnits="userSpaceOnUse"
                 x1="144.2744"
                 y1="34.110802"
                 x2="143.4523"
                 y2="246.66679">
                <stop
                   offset="0"
                   style="stop-color:#FFB13D"
                   id="stop25067" />
                <stop
                   offset="0.1044"
                   style="stop-color:#FDAC45"
                   id="stop25069" />
                <stop
                   offset="0.2633"
                   style="stop-color:#F99E5A"
                   id="stop25071" />
                <stop
                   offset="0.457"
                   style="stop-color:#F2877C"
                   id="stop25073" />
                <stop
                   offset="0.6781"
                   style="stop-color:#E968AC"
                   id="stop25075" />
                <stop
                   offset="0.9193"
                   style="stop-color:#DC40E9"
                   id="stop25077" />
                <stop
                   offset="1"
                   style="stop-color:#D831FF"
                   id="stop25079" />
              </linearGradient>
              <path
                 inkscape:connector-curvature="0"
                 id="XMLID_800_"
                 d="m 113.476,170.841 c -0.482,-4.454 -1.002,-8.538 -1.351,-12.639 -0.963,-11.383 -1.116,-22.789 -0.377,-34.191 1.185,-18.224 3.837,-36.169 10.969,-53.173 2.812,-6.703 6.322,-13.031 11.909,-17.903 8.981,-7.835 19.824,-7.45 28.341,0.92 5.133,5.04 8.447,11.231 11.206,17.754 0.891,2.109 1.639,4.278 2.521,6.6 -4.522,1.402 -8.834,2.742 -13.042,4.048 -1.754,-3.85 -3.202,-7.734 -5.242,-11.286 -1.636,-2.852 -3.739,-5.545 -6.082,-7.859 -2.562,-2.527 -5.419,-2.296 -8.21,0.021 -3.559,2.955 -5.729,6.896 -7.631,10.981 -4.259,9.142 -6.659,18.832 -8.379,28.711 -2.33,13.375 -3.194,26.868 -2.851,40.416 0.191,7.63 0.877,15.247 1.369,23.3 -4.054,1.325 -8.415,2.752 -13.15,4.3 z"
                 style="clip-rule:evenodd;fill:url(#XMLID_606_-8);fill-rule:evenodd" />
              <linearGradient
                 id="XMLID_607_-3"
                 gradientUnits="userSpaceOnUse"
                 x1="152.2207"
                 y1="34.140099"
                 x2="151.39861"
                 y2="246.69791">
                <stop
                   offset="0"
                   style="stop-color:#FFB13D"
                   id="stop25083" />
                <stop
                   offset="0.1044"
                   style="stop-color:#FDAC45"
                   id="stop25085" />
                <stop
                   offset="0.2633"
                   style="stop-color:#F99E5A"
                   id="stop25087" />
                <stop
                   offset="0.457"
                   style="stop-color:#F2877C"
                   id="stop25089" />
                <stop
                   offset="0.6781"
                   style="stop-color:#E968AC"
                   id="stop25091" />
                <stop
                   offset="0.9193"
                   style="stop-color:#DC40E9"
                   id="stop25093" />
                <stop
                   offset="1"
                   style="stop-color:#D831FF"
                   id="stop25095" />
              </linearGradient>
              <path
                 inkscape:connector-curvature="0"
                 id="XMLID_799_"
                 d="m 120.063,198.537 c 4.283,-1.334 8.566,-2.668 13.021,-4.056 0.518,1.317 1.031,2.651 1.562,3.979 1.919,4.81 4.068,9.5 7.561,13.421 4.249,4.771 8.017,4.771 12.215,-0.082 4.588,-5.303 7.129,-11.696 9.229,-18.241 1.44,-4.497 2.455,-9.125 3.716,-13.68 0.178,-0.643 0.515,-1.444 1.033,-1.765 4.8,-2.986 9.656,-5.882 14.821,-9.001 -0.329,2.222 -0.593,4.264 -0.938,6.295 -2.067,12.24 -5.057,24.211 -10.692,35.378 -2.282,4.523 -5.069,8.713 -8.743,12.269 -8.797,8.513 -20.213,8.567 -29.039,0.078 -6.021,-5.791 -9.555,-13.098 -12.536,-20.721 -0.417,-1.071 -0.774,-2.167 -1.147,-3.255 -0.059,-0.162 -0.039,-0.349 -0.063,-0.619 z"
                 style="clip-rule:evenodd;fill:url(#XMLID_607_-3);fill-rule:evenodd" />
              <linearGradient
                 id="XMLID_608_-93"
                 gradientUnits="userSpaceOnUse"
                 x1="89.339798"
                 y1="33.897499"
                 x2="88.5177"
                 y2="246.4556">
                <stop
                   offset="0"
                   style="stop-color:#FFB13D"
                   id="stop25099" />
                <stop
                   offset="0.1044"
                   style="stop-color:#FDAC45"
                   id="stop25101" />
                <stop
                   offset="0.2633"
                   style="stop-color:#F99E5A"
                   id="stop25103" />
                <stop
                   offset="0.457"
                   style="stop-color:#F2877C"
                   id="stop25105" />
                <stop
                   offset="0.6781"
                   style="stop-color:#E968AC"
                   id="stop25107" />
                <stop
                   offset="0.9193"
                   style="stop-color:#DC40E9"
                   id="stop25109" />
                <stop
                   offset="1"
                   style="stop-color:#D831FF"
                   id="stop25111" />
              </linearGradient>
              <path
                 inkscape:connector-curvature="0"
                 id="XMLID_798_"
                 d="m 110.759,83.43 c -1.085,4.791 -2.071,9.15 -3.104,13.701 -2.295,-0.313 -4.556,-0.698 -6.836,-0.918 -4.499,-0.437 -9.007,-0.652 -13.45,0.492 -5.474,1.41 -7.046,4.137 -5.462,9.592 1.59,5.473 4.863,10.008 8.3,14.438 0.703,0.904 1.435,1.789 2.194,2.732 -3.411,3.169 -6.735,6.26 -10.191,9.472 -6.955,-8.438 -13.418,-17.035 -14.621,-28.249 -0.911,-8.473 3.229,-16.893 13.381,-20.634 6.073,-2.238 12.396,-2.507 18.761,-1.994 3.624,0.291 7.225,0.885 11.028,1.368 z"
                 style="clip-rule:evenodd;fill:url(#XMLID_608_-93);fill-rule:evenodd" />
              <linearGradient
                 id="XMLID_693_-5"
                 gradientUnits="userSpaceOnUse"
                 x1="207.99409"
                 y1="34.355499"
                 x2="207.172"
                 y2="246.9149">
                <stop
                   offset="0"
                   style="stop-color:#FFB13D"
                   id="stop25115" />
                <stop
                   offset="0.1044"
                   style="stop-color:#FDAC45"
                   id="stop25117" />
                <stop
                   offset="0.2633"
                   style="stop-color:#F99E5A"
                   id="stop25119" />
                <stop
                   offset="0.457"
                   style="stop-color:#F2877C"
                   id="stop25121" />
                <stop
                   offset="0.6781"
                   style="stop-color:#E968AC"
                   id="stop25123" />
                <stop
                   offset="0.9193"
                   style="stop-color:#DC40E9"
                   id="stop25125" />
                <stop
                   offset="1"
                   style="stop-color:#D831FF"
                   id="stop25127" />
              </linearGradient>
              <path
                 inkscape:connector-curvature="0"
                 id="XMLID_797_"
                 d="m 214.361,143.858 c 6.699,8.195 13.015,16.495 14.466,27.32 1.307,9.773 -3.474,17.707 -12.687,21.357 -3.896,1.543 -7.97,2.166 -12.138,2.326 -6.123,0.236 -12.151,-0.438 -18.213,-1.691 1.032,-4.54 2.048,-9 3.069,-13.486 3.051,0.375 6.057,0.992 9.069,1.053 3.631,0.074 7.335,0.03 10.894,-0.603 5.752,-1.022 7.467,-4.228 5.792,-9.812 -1.36,-4.547 -3.925,-8.453 -6.706,-12.229 -1.182,-1.603 -2.449,-3.144 -3.736,-4.785 3.4,-3.151 6.726,-6.238 10.19,-9.45 z"
                 style="clip-rule:evenodd;fill:url(#XMLID_693_-5);fill-rule:evenodd" />
              <linearGradient
                 id="XMLID_694_-1"
                 gradientUnits="userSpaceOnUse"
                 x1="164.6602"
                 y1="34.188"
                 x2="163.838"
                 y2="246.7489">
                <stop
                   offset="0"
                   style="stop-color:#FFB13D"
                   id="stop25131" />
                <stop
                   offset="0.1044"
                   style="stop-color:#FDAC45"
                   id="stop25133" />
                <stop
                   offset="0.2633"
                   style="stop-color:#F99E5A"
                   id="stop25135" />
                <stop
                   offset="0.457"
                   style="stop-color:#F2877C"
                   id="stop25137" />
                <stop
                   offset="0.6781"
                   style="stop-color:#E968AC"
                   id="stop25139" />
                <stop
                   offset="0.9193"
                   style="stop-color:#DC40E9"
                   id="stop25141" />
                <stop
                   offset="1"
                   style="stop-color:#D831FF"
                   id="stop25143" />
              </linearGradient>
              <path
                 inkscape:connector-curvature="0"
                 id="XMLID_796_"
                 d="m 137.771,91.855 c 20.261,8.303 38.618,19.031 55.775,32.456 -2.046,1.92 -3.942,3.763 -5.911,5.526 -1.445,1.293 -2.938,3.377 -4.5,3.461 -1.529,0.082 -3.195,-1.889 -4.76,-3.015 -13.037,-9.374 -26.888,-17.339 -41.676,-23.651 -1.439,-0.615 -1.744,-1.343 -1.437,-2.739 0.859,-3.898 1.634,-7.814 2.509,-12.038 z"
                 style="clip-rule:evenodd;fill:url(#XMLID_694_-1);fill-rule:evenodd" />
              <linearGradient
                 id="XMLID_695_-36"
                 gradientUnits="userSpaceOnUse"
                 x1="148.3242"
                 y1="34.129398"
                 x2="147.50211"
                 y2="246.6806">
                <stop
                   offset="0"
                   style="stop-color:#FFB13D"
                   id="stop25147" />
                <stop
                   offset="0.1044"
                   style="stop-color:#FDAC45"
                   id="stop25149" />
                <stop
                   offset="0.2633"
                   style="stop-color:#F99E5A"
                   id="stop25151" />
                <stop
                   offset="0.457"
                   style="stop-color:#F2877C"
                   id="stop25153" />
                <stop
                   offset="0.6781"
                   style="stop-color:#E968AC"
                   id="stop25155" />
                <stop
                   offset="0.9193"
                   style="stop-color:#DC40E9"
                   id="stop25157" />
                <stop
                   offset="1"
                   style="stop-color:#D831FF"
                   id="stop25159" />
              </linearGradient>
              <path
                 inkscape:connector-curvature="0"
                 id="XMLID_794_"
                 d="m 161.838,138.313 c 0.03,7.849 -6.143,14.146 -13.88,14.158 -7.618,0.01 -13.908,-6.167 -13.955,-13.711 -0.052,-8.174 5.912,-14.328 13.97,-14.417 7.585,-0.088 13.837,6.215 13.865,13.97 z"
                 style="clip-rule:evenodd;fill:url(#XMLID_695_-36);fill-rule:evenodd" />
            </g>
          </g>
        </g>
      </g>
      <g
         display="none"
         id="Capa_2-1"
         style="display:none" />
      <g
         display="none"
         id="Capa_3-87"
         style="display:none" />
    </g>
  </g>
</svg>
