<?xml version="1.0" encoding="UTF-8" standalone="no"?>
<!-- Created with Inkscape (http://www.inkscape.org/) -->

<svg
   xmlns:dc="http://purl.org/dc/elements/1.1/"
   xmlns:cc="http://creativecommons.org/ns#"
   xmlns:rdf="http://www.w3.org/1999/02/22-rdf-syntax-ns#"
   xmlns:svg="http://www.w3.org/2000/svg"
   xmlns="http://www.w3.org/2000/svg"
   xmlns:xlink="http://www.w3.org/1999/xlink"
   xmlns:sodipodi="http://sodipodi.sourceforge.net/DTD/sodipodi-0.dtd"
   xmlns:inkscape="http://www.inkscape.org/namespaces/inkscape"
   width="48"
   height="48"
   viewBox="0 0 12.7 12.7"
   version="1.1"
   id="svg8"
   inkscape:version="0.92.3 (2405546, 2018-03-11)"
   sodipodi:docname="gdis.svg"
   inkscape:export-filename="/home/quique/baikonur.png"
   inkscape:export-xdpi="96"
   inkscape:export-ydpi="96">
  <defs
     id="defs2">
    <linearGradient
       inkscape:collect="always"
       id="linearGradient1776">
      <stop
         style="stop-color:#f39c1f;stop-opacity:1"
         offset="0"
         id="stop1772" />
      <stop
         style="stop-color:#9b59b6;stop-opacity:1"
         offset="1"
         id="stop1774" />
    </linearGradient>
    <linearGradient
       gradientTransform="matrix(0.9954,0,0,-0.9999,610.8265,2066.5017)"
       y2="2067.1211"
       x2="-462.89401"
       y1="1771.0918"
       x1="-462.89401"
       gradientUnits="userSpaceOnUse"
       id="rect3438-6-0-6-7-2_60_-2">
      <stop
         id="stop24938"
         style="stop-color:#000000"
         offset="0" />
      <stop
         id="stop24940"
         style="stop-color:#000000;stop-opacity:0.5882"
         offset="1" />
    </linearGradient>
    <linearGradient
       gradientTransform="matrix(0.9867,0,0,-0.9918,604.92,2056.9424)"
       y2="2074.3652"
       x2="-460.9888"
       y1="1777.6816"
       x1="-460.9888"
       gradientUnits="userSpaceOnUse"
       id="rect3438-6-0-1-1_60_-78">
      <stop
         id="stop24944"
         style="stop-color:#000000"
         offset="0" />
      <stop
         id="stop24946"
         style="stop-color:#000000;stop-opacity:0.5882"
         offset="1" />
    </linearGradient>
    <linearGradient
       y2="246.6841"
       x2="147.87131"
       y1="34.128399"
       x1="148.69341"
       gradientUnits="userSpaceOnUse"
       id="XMLID_603_-6"
       gradientTransform="matrix(0.05740845,0,0,0.05740845,-2.162615,282.70527)">
      <stop
         id="stop25051"
         style="stop-color:#f39c1f;stop-opacity:1"
         offset="0" />
      <stop
         id="stop25053"
         style="stop-color:#f39c1f;stop-opacity:1"
         offset="0.1044" />
      <stop
         id="stop25055"
         style="stop-color:#F99E5A"
         offset="0.2633" />
      <stop
         id="stop25057"
         style="stop-color:#F2877C"
         offset="0.457" />
      <stop
         id="stop25059"
         style="stop-color:#E968AC"
         offset="0.6781" />
      <stop
         id="stop25061"
         style="stop-color:#8e44ad;stop-opacity:1"
         offset="0.9193" />
      <stop
         id="stop25063"
         style="stop-color:#8e44ad;stop-opacity:1"
         offset="1" />
    </linearGradient>
    <linearGradient
       y2="246.66679"
       x2="143.4523"
       y1="34.110802"
       x1="144.2744"
       gradientUnits="userSpaceOnUse"
       id="XMLID_606_-8"
       gradientTransform="matrix(0.28304926,0,0,0.28304926,-85.992878,249.60239)">
      <stop
         id="stop25067"
         style="stop-color:#FFB13D"
         offset="0" />
      <stop
         id="stop25069"
         style="stop-color:#FDAC45"
         offset="0.1044" />
      <stop
         id="stop25071"
         style="stop-color:#F99E5A"
         offset="0.2633" />
      <stop
         id="stop25073"
         style="stop-color:#F2877C"
         offset="0.457" />
      <stop
         id="stop25075"
         style="stop-color:#E968AC"
         offset="0.6781" />
      <stop
         id="stop25077"
         style="stop-color:#DC40E9"
         offset="0.9193" />
      <stop
         id="stop25079"
         style="stop-color:#D831FF"
         offset="1" />
    </linearGradient>
    <linearGradient
       y2="246.69791"
       x2="151.39861"
       y1="34.140099"
       x1="152.2207"
       gradientUnits="userSpaceOnUse"
       id="XMLID_607_-3"
       gradientTransform="matrix(0.28304926,0,0,0.28304926,-85.992878,249.60239)">
      <stop
         id="stop25083"
         style="stop-color:#FFB13D"
         offset="0" />
      <stop
         id="stop25085"
         style="stop-color:#FDAC45"
         offset="0.1044" />
      <stop
         id="stop25087"
         style="stop-color:#F99E5A"
         offset="0.2633" />
      <stop
         id="stop25089"
         style="stop-color:#F2877C"
         offset="0.457" />
      <stop
         id="stop25091"
         style="stop-color:#E968AC"
         offset="0.6781" />
      <stop
         id="stop25093"
         style="stop-color:#DC40E9"
         offset="0.9193" />
      <stop
         id="stop25095"
         style="stop-color:#D831FF"
         offset="1" />
    </linearGradient>
    <linearGradient
       y2="246.4556"
       x2="88.5177"
       y1="33.897499"
       x1="89.339798"
       gradientUnits="userSpaceOnUse"
       id="XMLID_608_-93"
       gradientTransform="matrix(0.28304926,0,0,0.28304926,-85.992878,249.60239)">
      <stop
         id="stop25099"
         style="stop-color:#FFB13D"
         offset="0" />
      <stop
         id="stop25101"
         style="stop-color:#FDAC45"
         offset="0.1044" />
      <stop
         id="stop25103"
         style="stop-color:#F99E5A"
         offset="0.2633" />
      <stop
         id="stop25105"
         style="stop-color:#F2877C"
         offset="0.457" />
      <stop
         id="stop25107"
         style="stop-color:#E968AC"
         offset="0.6781" />
      <stop
         id="stop25109"
         style="stop-color:#DC40E9"
         offset="0.9193" />
      <stop
         id="stop25111"
         style="stop-color:#D831FF"
         offset="1" />
    </linearGradient>
    <linearGradient
       y2="246.9149"
       x2="207.172"
       y1="34.355499"
       x1="207.99409"
       gradientUnits="userSpaceOnUse"
       id="XMLID_693_-5"
       gradientTransform="matrix(0.28304926,0,0,0.28304926,-85.992878,249.60239)">
      <stop
         id="stop25115"
         style="stop-color:#FFB13D"
         offset="0" />
      <stop
         id="stop25117"
         style="stop-color:#FDAC45"
         offset="0.1044" />
      <stop
         id="stop25119"
         style="stop-color:#F99E5A"
         offset="0.2633" />
      <stop
         id="stop25121"
         style="stop-color:#F2877C"
         offset="0.457" />
      <stop
         id="stop25123"
         style="stop-color:#E968AC"
         offset="0.6781" />
      <stop
         id="stop25125"
         style="stop-color:#DC40E9"
         offset="0.9193" />
      <stop
         id="stop25127"
         style="stop-color:#D831FF"
         offset="1" />
    </linearGradient>
    <linearGradient
       y2="246.7489"
       x2="163.838"
       y1="34.188"
       x1="164.6602"
       gradientUnits="userSpaceOnUse"
       id="XMLID_694_-1"
       gradientTransform="matrix(0.28304926,0,0,0.28304926,-85.992878,249.60239)">
      <stop
         id="stop25131"
         style="stop-color:#FFB13D"
         offset="0" />
      <stop
         id="stop25133"
         style="stop-color:#FDAC45"
         offset="0.1044" />
      <stop
         id="stop25135"
         style="stop-color:#F99E5A"
         offset="0.2633" />
      <stop
         id="stop25137"
         style="stop-color:#F2877C"
         offset="0.457" />
      <stop
         id="stop25139"
         style="stop-color:#E968AC"
         offset="0.6781" />
      <stop
         id="stop25141"
         style="stop-color:#DC40E9"
         offset="0.9193" />
      <stop
         id="stop25143"
         style="stop-color:#D831FF"
         offset="1" />
    </linearGradient>
    <linearGradient
       y2="246.6806"
       x2="147.50211"
       y1="34.129398"
       x1="148.3242"
       gradientUnits="userSpaceOnUse"
       id="XMLID_695_-36"
       gradientTransform="matrix(0.28304926,0,0,0.28304926,-85.992878,249.60239)">
      <stop
         id="stop25147"
         style="stop-color:#FFB13D"
         offset="0" />
      <stop
         id="stop25149"
         style="stop-color:#FDAC45"
         offset="0.1044" />
      <stop
         id="stop25151"
         style="stop-color:#F99E5A"
         offset="0.2633" />
      <stop
         id="stop25153"
         style="stop-color:#F2877C"
         offset="0.457" />
      <stop
         id="stop25155"
         style="stop-color:#E968AC"
         offset="0.6781" />
      <stop
         id="stop25157"
         style="stop-color:#DC40E9"
         offset="0.9193" />
      <stop
         id="stop25159"
         style="stop-color:#D831FF"
         offset="1" />
    </linearGradient>
    <linearGradient
       id="XMLID_470_-5"
       gradientUnits="userSpaceOnUse"
       x1="148.28909"
       y1="199.563"
       x2="148.28909"
       y2="86.464798"
       gradientTransform="matrix(0.28304926,0,0,0.28304926,-85.992878,249.60239)">
      <stop
         offset="0"
         style="stop-color:#000000"
         id="stop25007" />
      <stop
         offset="1"
         style="stop-color:#000000;stop-opacity:0.5882"
         id="stop25009" />
    </linearGradient>
    <linearGradient
       id="XMLID_471_-82"
       gradientUnits="userSpaceOnUse"
       x1="143.9883"
       y1="175.4888"
       x2="143.9883"
       y2="51.955601"
       gradientTransform="matrix(0.28304926,0,0,0.28304926,-85.992878,249.60239)">
      <stop
         offset="0"
         style="stop-color:#000000"
         id="stop25013" />
      <stop
         offset="1"
         style="stop-color:#000000;stop-opacity:0.5882"
         id="stop25015" />
    </linearGradient>
    <linearGradient
       id="XMLID_487_-76"
       gradientUnits="userSpaceOnUse"
       x1="151.6416"
       y1="234.1167"
       x2="151.6416"
       y2="173.7598"
       gradientTransform="matrix(0.28304926,0,0,0.28304926,-85.992878,249.60239)">
      <stop
         offset="0"
         style="stop-color:#000000"
         id="stop25019" />
      <stop
         offset="1"
         style="stop-color:#000000;stop-opacity:0.5882"
         id="stop25021" />
    </linearGradient>
    <linearGradient
       id="XMLID_488_-4"
       gradientUnits="userSpaceOnUse"
       x1="89.113297"
       y1="137.58501"
       x2="89.113297"
       y2="86.486298"
       gradientTransform="matrix(0.28304926,0,0,0.28304926,-85.992878,249.60239)">
      <stop
         offset="0"
         style="stop-color:#000000"
         id="stop25025" />
      <stop
         offset="1"
         style="stop-color:#000000;stop-opacity:0.5882"
         id="stop25027" />
    </linearGradient>
    <linearGradient
       id="XMLID_553_-42"
       gradientUnits="userSpaceOnUse"
       x1="207.41499"
       y1="199.55659"
       x2="207.41499"
       y2="148.50591"
       gradientTransform="matrix(0.28304926,0,0,0.28304926,-85.992878,249.60239)">
      <stop
         offset="0"
         style="stop-color:#000000"
         id="stop25031" />
      <stop
         offset="1"
         style="stop-color:#000000;stop-opacity:0.5882"
         id="stop25033" />
    </linearGradient>
    <linearGradient
       id="XMLID_564_-3"
       gradientUnits="userSpaceOnUse"
       x1="164.34959"
       y1="137.9482"
       x2="164.34959"
       y2="96.503403"
       gradientTransform="matrix(0.28304926,0,0,0.28304926,-85.992878,249.60239)">
      <stop
         offset="0"
         style="stop-color:#000000"
         id="stop25037" />
      <stop
         offset="1"
         style="stop-color:#000000;stop-opacity:0.5882"
         id="stop25039" />
    </linearGradient>
    <linearGradient
       id="XMLID_598_-75"
       gradientUnits="userSpaceOnUse"
       x1="147.91991"
       y1="157.11819"
       x2="147.91991"
       y2="128.9883"
       gradientTransform="matrix(0.28304926,0,0,0.28304926,-85.992878,249.60239)">
      <stop
         offset="0"
         style="stop-color:#000000"
         id="stop25043" />
      <stop
         offset="1"
         style="stop-color:#000000;stop-opacity:0.5882"
         id="stop25045" />
    </linearGradient>
    <linearGradient
       inkscape:collect="always"
       xlink:href="#linearGradient1776"
       id="linearGradient1778"
       x1="6.4161458"
       y1="287.19385"
       x2="6.4161458"
       y2="294.6022"
       gradientUnits="userSpaceOnUse" />
  </defs>
  <sodipodi:namedview
     id="base"
     pagecolor="#ffffff"
     bordercolor="#666666"
     borderopacity="1.0"
     inkscape:pageopacity="0.0"
     inkscape:pageshadow="2"
     inkscape:zoom="11.313709"
     inkscape:cx="-2.8464634"
     inkscape:cy="25.018185"
     inkscape:document-units="px"
     inkscape:current-layer="layer1"
     showgrid="false"
     units="px"
     inkscape:showpageshadow="false"
     showguides="true"
     inkscape:guide-bbox="true"
     inkscape:window-width="1920"
     inkscape:window-height="1019"
     inkscape:window-x="0"
     inkscape:window-y="0"
     inkscape:window-maximized="1"
     inkscape:snap-global="false">
    <sodipodi:guide
       position="6.35,11.641667"
       orientation="0,1"
       id="guide815"
       inkscape:locked="false"
       inkscape:label=""
       inkscape:color="rgb(0,0,255)" />
    <sodipodi:guide
       position="6.35,1.0583333"
       orientation="0,1"
       id="guide817"
       inkscape:locked="false"
       inkscape:label=""
       inkscape:color="rgb(0,0,255)" />
    <sodipodi:guide
       position="1.0583333,6.35"
       orientation="1,0"
       id="guide819"
       inkscape:locked="false"
       inkscape:label=""
       inkscape:color="rgb(0,0,255)" />
    <sodipodi:guide
       position="11.641667,6.35"
       orientation="1,0"
       id="guide821"
       inkscape:locked="false"
       inkscape:label=""
       inkscape:color="rgb(0,0,255)" />
    <sodipodi:guide
       position="19.737854,6.8755084"
       orientation="0.70710678,0.70710678"
       id="guide886"
       inkscape:locked="false"
       inkscape:label=""
       inkscape:color="rgb(0,0,255)" />
  </sodipodi:namedview>
  <metadata
     id="metadata5">
    <rdf:RDF>
      <cc:Work
         rdf:about="">
        <dc:format>image/svg+xml</dc:format>
        <dc:type
           rdf:resource="http://purl.org/dc/dcmitype/StillImage" />
        <dc:title />
      </cc:Work>
    </rdf:RDF>
  </metadata>
  <g
     inkscape:label="Capa 1"
     inkscape:groupmode="layer"
     id="layer1"
     transform="translate(0,-284.29998)">
    <path
       style="clip-rule:evenodd;fill:#4d4d4d;fill-opacity:1;fill-rule:evenodd;stroke-width:0.05740845"
       d="m 6.417919,285.55061 c -0.2638922,0.005 -0.5289938,0.11197 -0.7706741,0.32281 -0.3207411,0.27969 -0.5222483,0.64296 -0.6836814,1.02778 -0.4094369,0.97617 -0.5616745,2.0064 -0.6297035,3.05261 -0.042425,0.65457 -0.033691,1.30942 0.021592,1.9629 0.020034,0.23543 0.049889,0.4698 0.07756,0.7255 v 1e-4 c 0.2718288,-0.0889 0.5222186,-0.17086 0.7549524,-0.24693 -0.028246,-0.46231 -0.067643,-0.89957 -0.078608,-1.33759 -0.019693,-0.77777 0.029953,-1.55236 0.1637144,-2.3202 0.098743,-0.56714 0.2364745,-1.12343 0.480977,-1.64826 0.1091912,-0.23451 0.2337927,-0.46079 0.438109,-0.63044 0.160228,-0.13302 0.324254,-0.14622 0.4713351,-10e-4 0.1345078,0.13285 0.2552049,0.28738 0.3491251,0.4511 0.1171131,0.20392 0.2002176,0.42692 0.3009122,0.64794 0.2415747,-0.075 0.4891673,-0.15187 0.7487685,-0.23236 -0.050635,-0.1333 -0.093593,-0.25781 -0.1447438,-0.37889 C 7.7591637,286.5712 7.5689023,286.21573 7.274224,285.9264 7.0144709,285.67113 6.7169977,285.54525 6.4179196,285.55075 Z m 3.0191824,1.98144 c -0.220822,0.004 -0.441794,0.0305 -0.6623,0.0672 -0.6307727,0.10471 -1.2333835,0.30275 -1.8341903,0.54878 0.2828054,0.15688 0.5530342,0.30247 0.8180485,0.45688 0.069694,0.0405 0.1249934,0.0491 0.2024952,0.0242 0.4838386,-0.15529 0.9741116,-0.2807 1.4870556,-0.28886 0.2108049,-0.004 0.4207699,0.005 0.6173356,0.093 0.164648,0.0735 0.24257,0.19648 0.199456,0.36945 -0.04231,0.17005 -0.100097,0.34202 -0.184258,0.49513 -0.2390477,0.4355 -0.5749356,0.79714 -0.9363806,1.13395 -0.9625085,0.89701 -2.0626675,1.58743 -3.2624468,2.12242 -0.7332787,0.32694 -1.4878559,0.58882 -2.2965111,0.65926 -0.2566157,0.0224 -0.5114782,0.0174 -0.7562105,-0.0737 -0.1976571,-0.0736 -0.2832606,-0.20686 -0.2272296,-0.40939 0.051093,-0.18543 0.1231821,-0.37083 0.2190546,-0.53726 0.2283706,-0.39583 0.5337984,-0.73464 0.8735987,-1.03753 0.150984,-0.13468 0.2211265,-0.26657 0.203962,-0.47123 -0.021069,-0.25139 -0.00513,-0.50585 -0.00513,-0.75558 0.00689,-0.003 -0.00317,-6.1e-4 -0.010586,0.005 -0.5601918,0.43941 -1.0811945,0.9186 -1.5085433,1.49073 -0.2350874,0.31489 -0.4320415,0.6501 -0.5323341,1.03428 -0.1355987,0.51799 0.010565,0.98607 0.4022638,1.27041 0.2568453,0.18657 0.5538405,0.26032 0.8651096,0.28466 0.5337262,0.0418 1.053491,-0.0452 1.5666078,-0.17975 0.9842678,-0.25793 1.9024053,-0.67273 2.7787455,-1.18143 0.9906974,-0.575 1.9099484,-1.24303 2.684101,-2.09307 0.323554,-0.35524 0.607945,-0.73855 0.790275,-1.18719 0.129685,-0.31971 0.195292,-0.64837 0.08731,-0.98806 -0.142316,-0.44801 -0.480626,-0.67749 -0.917619,-0.78398 -0.2201617,-0.0536 -0.4408497,-0.0722 -0.6616716,-0.0682 z m -6.0665585,6e-4 c -0.2725896,-0.002 -0.5421036,0.0307 -0.8035844,0.12703 -0.5828108,0.21477 -0.8205629,0.69815 -0.7682637,1.18457 0.069062,0.64378 0.4401542,1.13733 0.8394302,1.62174 0.1984035,-0.18439 0.389234,-0.36183 0.5850541,-0.54375 -0.043573,-0.0541 -0.085624,-0.1049 -0.1259827,-0.15681 -0.1973128,-0.25431 -0.3851904,-0.51464 -0.47647,-0.82884 -0.090935,-0.31316 -6.574e-4,-0.46973 0.3135941,-0.55067 0.2550657,-0.0657 0.5138612,-0.0534 0.7721416,-0.0283 0.1308914,0.0127 0.2606596,0.0347 0.3924118,0.0527 0.059304,-0.26127 0.1158905,-0.51156 0.1781788,-0.78661 -0.2183246,-0.0277 -0.4250098,-0.0618 -0.6330578,-0.0785 -0.091351,-0.007 -0.1825884,-0.0119 -0.273452,-0.0125 z m 2.4571865,0.57478 c -0.050232,0.24249 -0.094697,0.46735 -0.1440106,0.69112 -0.017624,0.0801 -1.246e-4,0.12191 0.082486,0.15722 0.8489561,0.36236 1.6441886,0.81957 2.3926228,1.35772 0.089843,0.0646 0.1854648,0.17786 0.2732418,0.17315 0.08967,-0.005 0.175404,-0.12449 0.258359,-0.19872 0.113037,-0.10121 0.221815,-0.20704 0.339273,-0.31727 -0.9849571,-0.77077 -2.0388203,-1.38663 -3.2019725,-1.86329 z m 0.5856827,1.86511 c -0.4625972,0.005 -0.8048932,0.35844 -0.8019079,0.82769 0.00268,0.43309 0.3637325,0.78774 0.8010695,0.78713 0.4441692,-3.9e-4 0.7986008,-0.36221 0.7968768,-0.8128 -0.00161,-0.44521 -0.3605951,-0.80707 -0.7960384,-0.80202 z m 3.8112379,1.12033 c -0.198863,0.18439 -0.3897607,0.3616 -0.5849497,0.5425 0.07389,0.0942 0.146586,0.18268 0.214443,0.27471 0.1596527,0.21677 0.3068957,0.44098 0.3849707,0.70202 0.09616,0.32057 -0.0023,0.50469 -0.3324607,0.56336 -0.204317,0.0362 -0.4169559,0.0389 -0.6254059,0.0346 -0.172914,-0.004 -0.345442,-0.039 -0.520596,-0.0605 -0.05862,0.25753 -0.116941,0.5136 -0.176187,0.77423 0.34801,0.0719 0.693977,0.11061 1.0454889,0.0971 0.239278,-0.009 0.4732237,-0.0449 0.6968867,-0.13353 0.528904,-0.20954 0.803364,-0.66502 0.728331,-1.22608 -0.0833,-0.62144 -0.445942,-1.09792 -0.830521,-1.56838 z m -1.7876546,1.44974 c -0.2965145,0.17905 -0.5752933,0.3454 -0.8508549,0.51682 -0.029741,0.0184 -0.049105,0.0643 -0.05932,0.10125 -0.072392,0.26149 -0.1306216,0.52719 -0.2132898,0.78535 -0.120558,0.37574 -0.2664291,0.74283 -0.5298192,1.04726 -0.2410007,0.27861 -0.4573611,0.27852 -0.7012895,0.005 -0.2005274,-0.2251 -0.323855,-0.49433 -0.4340219,-0.77047 -0.030485,-0.0762 -0.05998,-0.15278 -0.089718,-0.22838 -0.255755,0.0797 -0.501631,0.1562 -0.7475112,0.23278 v 1.1e-4 c 0.00135,0.0155 2.911e-4,0.0262 0.00367,0.0355 0.02141,0.0625 0.041881,0.12529 0.065821,0.18678 0.1711346,0.43762 0.3739756,0.85714 0.7196317,1.1896 0.5066867,0.48733 1.1620995,0.48421 1.6671216,-0.005 0.210919,-0.20414 0.3709329,-0.44467 0.5019398,-0.70433 0.3234959,-0.64108 0.4951094,-1.32834 0.6137724,-2.03103 0.0198,-0.11659 0.03499,-0.23382 0.05387,-0.36138 z"
       id="XMLID_801_-5"
       inkscape:connector-curvature="0" />
    <path
       style="clip-rule:evenodd;fill:url(#linearGradient1778);fill-rule:evenodd;stroke-width:0.05740845;fill-opacity:1"
       d="m 6.3367467,285.42134 c -0.2638923,0.005 -0.5289938,0.11197 -0.770674,0.32281 -0.3207411,0.27969 -0.5222484,0.64296 -0.6836815,1.02778 -0.409437,0.97617 -0.5616745,2.0064 -0.6297035,3.05261 -0.042425,0.65457 -0.033691,1.30942 0.021592,1.9629 0.020034,0.23543 0.049889,0.4698 0.07756,0.7255 v 10e-5 c 0.271829,-0.0889 0.5222188,-0.17086 0.7549524,-0.24693 -0.028246,-0.46231 -0.067643,-0.89957 -0.078608,-1.33759 -0.019692,-0.77777 0.029953,-1.55236 0.1637144,-2.3202 0.098743,-0.56714 0.2364745,-1.12343 0.4809768,-1.64826 0.1091914,-0.23451 0.2337927,-0.46079 0.4381092,-0.63044 0.1602278,-0.13302 0.3242539,-0.14622 0.4713349,-10e-4 0.1345079,0.13285 0.255205,0.28738 0.3491252,0.4511 0.1171131,0.20392 0.2002175,0.42692 0.3009123,0.64794 0.2415745,-0.075 0.4891671,-0.15187 0.7487683,-0.23236 -0.050635,-0.1333 -0.093593,-0.25781 -0.1447438,-0.37889 -0.15839,-0.37448 -0.3486513,-0.72995 -0.6433298,-1.01928 -0.259753,-0.25527 -0.5572261,-0.38115 -0.8563043,-0.37565 z m 3.0191819,1.98144 c -0.2208213,0.004 -0.4417938,0.0305 -0.6622995,0.0672 -0.6307726,0.10471 -1.2333836,0.30275 -1.8341903,0.54878 0.2828055,0.15688 0.5530341,0.30247 0.8180485,0.45688 0.069694,0.0405 0.1249934,0.0491 0.2024952,0.0242 0.4838383,-0.15529 0.9741117,-0.2807 1.4870558,-0.28886 0.2108042,-0.004 0.4207699,0.005 0.6173361,0.093 0.1646476,0.0735 0.2425696,0.19648 0.1994556,0.36945 -0.04231,0.17005 -0.100097,0.34202 -0.1842578,0.49513 -0.2390487,0.4355 -0.5749366,0.79714 -0.9363807,1.13395 -0.962509,0.89701 -2.0626679,1.58743 -3.2624473,2.12242 -0.7332785,0.32694 -1.4878558,0.58882 -2.296511,0.65926 -0.2566157,0.0224 -0.5114782,0.0174 -0.7562105,-0.0737 -0.1976571,-0.0736 -0.2832606,-0.20686 -0.2272296,-0.40939 0.051093,-0.18543 0.1231821,-0.37083 0.2190546,-0.53726 0.2283706,-0.39583 0.5337984,-0.73464 0.8735987,-1.03753 0.150984,-0.13468 0.2211265,-0.26657 0.203962,-0.47123 -0.021069,-0.25139 -0.00513,-0.50585 -0.00513,-0.75558 0.00689,-0.003 -0.00317,-6e-4 -0.010586,0.005 -0.5601918,0.43941 -1.0811945,0.9186 -1.5085433,1.49073 -0.2350874,0.31489 -0.4320415,0.6501 -0.5323341,1.03428 -0.1355987,0.51799 0.010565,0.98607 0.4022638,1.27041 0.2568453,0.18657 0.5538405,0.26032 0.8651096,0.28466 0.5337262,0.0418 1.053491,-0.0452 1.5666078,-0.17975 0.9842677,-0.25793 1.9024053,-0.67273 2.7787455,-1.18143 0.9906974,-0.575 1.9099486,-1.24303 2.6841013,-2.09307 0.323554,-0.35524 0.607945,-0.73855 0.790275,-1.18719 0.129685,-0.31971 0.195292,-0.64837 0.08731,-0.98806 -0.142316,-0.44801 -0.480626,-0.67749 -0.917619,-0.78398 -0.2201615,-0.0536 -0.4408502,-0.0722 -0.6616715,-0.0682 z m -6.066558,6e-4 c -0.2725896,-0.002 -0.5421036,0.0307 -0.8035844,0.12703 -0.5828108,0.21477 -0.8205629,0.69815 -0.7682637,1.18457 0.069062,0.64378 0.4401542,1.13733 0.8394302,1.62174 0.1984035,-0.18439 0.389234,-0.36183 0.5850541,-0.54375 -0.043573,-0.0541 -0.085624,-0.1049 -0.1259827,-0.15681 -0.1973128,-0.25431 -0.3851904,-0.51464 -0.47647,-0.82884 -0.090935,-0.31316 -6.574e-4,-0.46973 0.3135941,-0.55067 0.2550657,-0.0657 0.5138612,-0.0534 0.7721416,-0.0283 0.1308914,0.0127 0.2606596,0.0347 0.3924118,0.0527 0.059304,-0.26127 0.1158905,-0.51156 0.1781788,-0.78661 -0.2183246,-0.0277 -0.4250098,-0.0618 -0.6330578,-0.0785 -0.091351,-0.007 -0.1825884,-0.0119 -0.273452,-0.0125 z m 2.4571864,0.57478 c -0.050232,0.24249 -0.094697,0.46735 -0.1440106,0.69112 -0.017623,0.0801 -1.245e-4,0.12191 0.082486,0.15722 0.8489563,0.36236 1.6441887,0.81957 2.392623,1.35772 0.089843,0.0646 0.1854643,0.17786 0.2732414,0.17315 0.089672,-0.005 0.1754036,-0.12449 0.2583592,-0.19872 0.1130369,-0.10121 0.2218147,-0.20704 0.3392732,-0.31727 -0.9849572,-0.77077 -2.0388204,-1.38663 -3.2019725,-1.86329 z m 0.5856828,1.86511 c -0.4625972,0.005 -0.8048931,0.35844 -0.8019078,0.82769 0.00268,0.43309 0.3637323,0.78774 0.8010694,0.78713 0.4441693,-4.1e-4 0.7986007,-0.36221 0.7968769,-0.8128 -0.00161,-0.44521 -0.3605952,-0.80707 -0.7960385,-0.80202 z m 3.8112382,1.12033 c -0.1988631,0.18439 -0.3897609,0.3616 -0.5849501,0.5425 0.073885,0.0942 0.1465864,0.18268 0.2144434,0.27471 0.1596524,0.21677 0.3068957,0.44098 0.3849707,0.70202 0.09616,0.32057 -0.0023,0.50469 -0.3324609,0.56336 -0.2043169,0.0362 -0.416956,0.0389 -0.6254059,0.0346 -0.1729143,-0.004 -0.3454425,-0.039 -0.5205962,-0.0605 -0.058615,0.25753 -0.1169409,0.5136 -0.1761866,0.77423 0.3480095,0.0719 0.6939766,0.11061 1.0454885,0.0971 0.2392783,-0.009 0.4732241,-0.0449 0.6968871,-0.13353 0.528904,-0.20954 0.803364,-0.66502 0.728331,-1.22608 -0.0833,-0.62144 -0.445942,-1.09792 -0.830521,-1.56838 z m -1.7876548,1.44974 c -0.2965145,0.17905 -0.5752935,0.3454 -0.8508551,0.51682 -0.029741,0.0184 -0.049105,0.0643 -0.05932,0.10125 -0.072392,0.26149 -0.1306218,0.52719 -0.2132899,0.78535 -0.1205581,0.37574 -0.2664291,0.74283 -0.5298191,1.04726 -0.2410009,0.27861 -0.4573612,0.27852 -0.7012897,0.005 -0.2005273,-0.2251 -0.3238548,-0.49433 -0.4340219,-0.77047 -0.030485,-0.0762 -0.05998,-0.15278 -0.089718,-0.22838 -0.2557549,0.0797 -0.5016311,0.1562 -0.7475111,0.23278 v 1.1e-4 c 0.00136,0.0155 2.84e-4,0.0262 0.00367,0.0355 0.021411,0.0625 0.041881,0.12529 0.065821,0.18678 0.1711346,0.43762 0.3739754,0.85714 0.7196317,1.1896 0.5066864,0.48733 1.1620995,0.48421 1.6671215,-0.005 0.2109189,-0.20414 0.3709328,-0.44467 0.5019396,-0.70433 0.3234962,-0.64108 0.4951093,-1.32834 0.6137721,-2.03103 0.019801,-0.11659 0.034988,-0.23382 0.053875,-0.36138 z"
       id="XMLID_801_"
       inkscape:connector-curvature="0" />
  </g>
</svg>
