<?xml version="1.0" encoding="UTF-8" standalone="no"?>
<!-- Created with Inkscape (http://www.inkscape.org/) -->

<svg
   xmlns:dc="http://purl.org/dc/elements/1.1/"
   xmlns:cc="http://creativecommons.org/ns#"
   xmlns:rdf="http://www.w3.org/1999/02/22-rdf-syntax-ns#"
   xmlns:svg="http://www.w3.org/2000/svg"
   xmlns="http://www.w3.org/2000/svg"
   xmlns:sodipodi="http://sodipodi.sourceforge.net/DTD/sodipodi-0.dtd"
   xmlns:inkscape="http://www.inkscape.org/namespaces/inkscape"
   width="48"
   height="48"
   viewBox="0 0 12.7 12.7"
   version="1.1"
   id="svg8"
   inkscape:version="0.92.3 (2405546, 2018-03-11)"
   sodipodi:docname="hotpotatoes.svg"
   inkscape:export-filename="/home/quique/baikonur.png"
   inkscape:export-xdpi="96"
   inkscape:export-ydpi="96">
  <defs
     id="defs2">
    <linearGradient
       id="SVGID_30_"
       gradientUnits="userSpaceOnUse"
       x1="19.151899"
       y1="35.650398"
       x2="48.313499"
       y2="35.650398"
       gradientTransform="matrix(0.17282917,0,0,0.17282917,0.79955779,285.13154)">
		<stop
   offset="0"
   style="stop-color:#000000;stop-opacity:0"
   id="stop1393" />

		<stop
   offset="1"
   style="stop-color:#000000"
   id="stop1395" />

	</linearGradient>
    <linearGradient
       y2="23.5317"
       x2="25.145"
       y1="23.5317"
       x1="19.979"
       gradientUnits="userSpaceOnUse"
       id="SVGID_24_"
       gradientTransform="matrix(0.17282917,0,0,0.17282917,0.79955779,285.13154)">
			<stop
   id="stop1349"
   style="stop-color:#000000"
   offset="0" />

			<stop
   id="stop1351"
   style="stop-color:#000000;stop-opacity:0"
   offset="1" />

		</linearGradient>
    <linearGradient
       y2="24.5688"
       x2="31.6626"
       y1="24.5688"
       x1="28.340799"
       gradientUnits="userSpaceOnUse"
       id="SVGID_25_"
       gradientTransform="matrix(0.17282917,0,0,0.17282917,0.79955779,285.13154)">
			<stop
   id="stop1356"
   style="stop-color:#000000"
   offset="0" />

			<stop
   id="stop1358"
   style="stop-color:#000000;stop-opacity:0"
   offset="1" />

		</linearGradient>
    <linearGradient
       y2="32.2188"
       x2="32.543499"
       y1="32.2188"
       x1="24.835899"
       gradientUnits="userSpaceOnUse"
       id="SVGID_26_"
       gradientTransform="matrix(0.17282917,0,0,0.17282917,0.79955779,285.13154)">
			<stop
   id="stop1363"
   style="stop-color:#000000"
   offset="0" />

			<stop
   id="stop1365"
   style="stop-color:#000000;stop-opacity:0"
   offset="1" />

		</linearGradient>
    <linearGradient
       y2="31.5273"
       x2="43.379398"
       y1="31.5273"
       x1="38.6875"
       gradientUnits="userSpaceOnUse"
       id="SVGID_27_"
       gradientTransform="matrix(0.17282917,0,0,0.17282917,0.79955779,285.13154)">
			<stop
   id="stop1370"
   style="stop-color:#000000"
   offset="0" />

			<stop
   id="stop1372"
   style="stop-color:#000000;stop-opacity:0"
   offset="1" />

		</linearGradient>
    <linearGradient
       y2="36.778801"
       x2="39.438999"
       y1="36.778801"
       x1="35.110401"
       gradientUnits="userSpaceOnUse"
       id="SVGID_28_"
       gradientTransform="matrix(0.17282917,0,0,0.17282917,0.79955779,285.13154)">
			<stop
   id="stop1377"
   style="stop-color:#000000"
   offset="0" />

			<stop
   id="stop1379"
   style="stop-color:#000000;stop-opacity:0"
   offset="1" />

		</linearGradient>
    <radialGradient
       id="SVGID_3_"
       cx="32.284199"
       cy="31.9077"
       r="26.7026"
       gradientUnits="userSpaceOnUse"
       gradientTransform="matrix(0.17282917,0,0,0.17282917,0.79955779,285.13154)">
						<stop
   offset="0"
   style="stop-color:#c4e0f2;stop-opacity:1"
   id="stop1075" />

						<stop
   offset="0.7961"
   style="stop-color:#55a5d9;stop-opacity:1"
   id="stop1077" />

						<stop
   offset="0.9168"
   style="stop-color:#3192d1;stop-opacity:1"
   id="stop1079" />

						<stop
   offset="1"
   style="stop-color:#2980b9;stop-opacity:1"
   id="stop1081" />

					</radialGradient>
    <linearGradient
       id="SVGID_16_"
       gradientUnits="userSpaceOnUse"
       x1="27.813999"
       y1="17.2603"
       x2="27.813999"
       y2="15.9279"
       gradientTransform="matrix(0.17282917,0,0,0.17282917,0.79955779,285.13154)">
								<stop
   offset="0"
   style="stop-color:#42260E"
   id="stop1234" />

								<stop
   offset="0.2285"
   style="stop-color:#5E370A"
   id="stop1236" />

								<stop
   offset="0.5529"
   style="stop-color:#804A04"
   id="stop1238" />

								<stop
   offset="0.8218"
   style="stop-color:#945701"
   id="stop1240" />

								<stop
   offset="1"
   style="stop-color:#9C5B00"
   id="stop1242" />

							</linearGradient>
    <linearGradient
       id="SVGID_17_"
       gradientUnits="userSpaceOnUse"
       x1="45.065399"
       y1="86.537102"
       x2="45.065399"
       y2="77.649002"
       gradientTransform="matrix(0.17282917,0,0,0.17282917,0.79955779,285.13154)">
								<stop
   offset="0"
   style="stop-color:#42260E"
   id="stop1247" />

								<stop
   offset="0.2285"
   style="stop-color:#5E370A"
   id="stop1249" />

								<stop
   offset="0.5529"
   style="stop-color:#804A04"
   id="stop1251" />

								<stop
   offset="0.8218"
   style="stop-color:#945701"
   id="stop1253" />

								<stop
   offset="1"
   style="stop-color:#9C5B00"
   id="stop1255" />

							</linearGradient>
    <linearGradient
       id="SVGID_18_"
       gradientUnits="userSpaceOnUse"
       x1="45.007301"
       y1="46.993198"
       x2="45.007301"
       y2="45.219002"
       gradientTransform="matrix(0.17282917,0,0,0.17282917,0.79955779,285.13154)">
								<stop
   offset="0"
   style="stop-color:#42260E"
   id="stop1260" />

								<stop
   offset="0.2285"
   style="stop-color:#5E370A"
   id="stop1262" />

								<stop
   offset="0.5529"
   style="stop-color:#804A04"
   id="stop1264" />

								<stop
   offset="0.8218"
   style="stop-color:#945701"
   id="stop1266" />

								<stop
   offset="1"
   style="stop-color:#9C5B00"
   id="stop1268" />

							</linearGradient>
    <linearGradient
       id="SVGID_19_"
       gradientUnits="userSpaceOnUse"
       x1="19.651899"
       y1="11.29"
       x2="19.651899"
       y2="10.6037"
       gradientTransform="matrix(0.17282917,0,0,0.17282917,0.79955779,285.13154)">
								<stop
   offset="0"
   style="stop-color:#42260E"
   id="stop1273" />

								<stop
   offset="0.2285"
   style="stop-color:#5E370A"
   id="stop1275" />

								<stop
   offset="0.5529"
   style="stop-color:#804A04"
   id="stop1277" />

								<stop
   offset="0.8218"
   style="stop-color:#945701"
   id="stop1279" />

								<stop
   offset="1"
   style="stop-color:#9C5B00"
   id="stop1281" />

							</linearGradient>
    <linearGradient
       id="SVGID_20_"
       gradientUnits="userSpaceOnUse"
       x1="26.959"
       y1="11.9077"
       x2="26.959"
       y2="9.5998001"
       gradientTransform="matrix(0.17282917,0,0,0.17282917,0.79955779,285.13154)">
								<stop
   offset="0"
   style="stop-color:#42260E"
   id="stop1286" />

								<stop
   offset="0.2285"
   style="stop-color:#5E370A"
   id="stop1288" />

								<stop
   offset="0.5529"
   style="stop-color:#804A04"
   id="stop1290" />

								<stop
   offset="0.8218"
   style="stop-color:#945701"
   id="stop1292" />

								<stop
   offset="1"
   style="stop-color:#9C5B00"
   id="stop1294" />

							</linearGradient>
    <linearGradient
       id="SVGID_21_"
       gradientUnits="userSpaceOnUse"
       x1="31.080601"
       y1="26.8799"
       x2="31.080601"
       y2="25.0058"
       gradientTransform="matrix(0.17282917,0,0,0.17282917,0.79955779,285.13154)">
								<stop
   offset="0"
   style="stop-color:#874F00"
   id="stop1299" />

								<stop
   offset="0.7819"
   style="stop-color:#975800"
   id="stop1301" />

								<stop
   offset="1"
   style="stop-color:#9C5B00"
   id="stop1303" />

							</linearGradient>
    <linearGradient
       id="SVGID_22_"
       gradientUnits="userSpaceOnUse"
       x1="41.429199"
       y1="57.976101"
       x2="41.429199"
       y2="48.7873"
       gradientTransform="matrix(0.17282917,0,0,0.17282917,0.79955779,285.13154)">
								<stop
   offset="0"
   style="stop-color:#42260E"
   id="stop1308" />

								<stop
   offset="0.2285"
   style="stop-color:#5E370A"
   id="stop1310" />

								<stop
   offset="0.5529"
   style="stop-color:#804A04"
   id="stop1312" />

								<stop
   offset="0.8218"
   style="stop-color:#945701"
   id="stop1314" />

								<stop
   offset="1"
   style="stop-color:#9C5B00"
   id="stop1316" />

							</linearGradient>
    <linearGradient
       id="SVGID_23_"
       gradientUnits="userSpaceOnUse"
       x1="17.8862"
       y1="23.3276"
       x2="33.900398"
       y2="23.3276"
       gradientTransform="matrix(0.17282917,0,0,0.17282917,0.79955779,285.13154)">
								<stop
   offset="0"
   style="stop-color:#874F00"
   id="stop1321" />

								<stop
   offset="0.7819"
   style="stop-color:#975800"
   id="stop1323" />

								<stop
   offset="1"
   style="stop-color:#9C5B00"
   id="stop1325" />

							</linearGradient>
    <linearGradient
       id="SVGID_4_"
       gradientUnits="userSpaceOnUse"
       x1="32.004398"
       y1="41.5103"
       x2="32.043499"
       y2="41.5103"
       gradientTransform="matrix(0.17282917,0,0,0.17282917,0.79955779,285.13154)">
								<stop
   offset="0"
   style="stop-color:#EA843C;stop-opacity:0"
   id="stop1114" />

								<stop
   offset="1"
   style="stop-color:#FF8F3F"
   id="stop1116" />

							</linearGradient>
    <linearGradient
       id="SVGID_5_"
       gradientUnits="userSpaceOnUse"
       x1="31.582001"
       y1="41.3354"
       x2="32.004398"
       y2="41.3354"
       gradientTransform="matrix(0.17282917,0,0,0.17282917,0.79955779,285.13154)">
								<stop
   offset="0"
   style="stop-color:#EA843C;stop-opacity:0"
   id="stop1121" />

								<stop
   offset="1"
   style="stop-color:#FF8F3F"
   id="stop1123" />

							</linearGradient>
    <linearGradient
       id="SVGID_6_"
       gradientUnits="userSpaceOnUse"
       x1="10.4404"
       y1="39.295898"
       x2="51.374001"
       y2="39.295898"
       gradientTransform="matrix(0.17282917,0,0,0.17282917,0.79955779,285.13154)">
								<stop
   offset="0"
   style="stop-color:#EA843C;stop-opacity:0"
   id="stop1128" />

								<stop
   offset="1"
   style="stop-color:#FF8F3F"
   id="stop1130" />

							</linearGradient>
    <linearGradient
       id="SVGID_7_"
       gradientUnits="userSpaceOnUse"
       x1="36.252399"
       y1="11.7744"
       x2="37.144501"
       y2="11.7744"
       gradientTransform="matrix(0.17282917,0,0,0.17282917,0.79955779,285.13154)">
								<stop
   offset="0"
   style="stop-color:#EA843C;stop-opacity:0"
   id="stop1135" />

								<stop
   offset="1"
   style="stop-color:#FF8F3F"
   id="stop1137" />

							</linearGradient>
    <linearGradient
       id="SVGID_9_"
       gradientUnits="userSpaceOnUse"
       x1="27.225599"
       y1="9.0321999"
       x2="27.9673"
       y2="9.0321999"
       gradientTransform="matrix(0.17282917,0,0,0.17282917,0.79955779,285.13154)">
								<stop
   offset="0"
   style="stop-color:#EA843C;stop-opacity:0"
   id="stop1149" />

								<stop
   offset="1"
   style="stop-color:#FF8F3F"
   id="stop1151" />

							</linearGradient>
    <linearGradient
       id="SVGID_12_"
       gradientUnits="userSpaceOnUse"
       x1="43.9673"
       y1="17.4277"
       x2="44.491199"
       y2="17.4277"
       gradientTransform="matrix(0.17282917,0,0,0.17282917,0.79955779,285.13154)">
								<stop
   offset="0"
   style="stop-color:#EA843C;stop-opacity:0"
   id="stop1170" />

								<stop
   offset="1"
   style="stop-color:#FF8F3F"
   id="stop1172" />

							</linearGradient>
    <linearGradient
       id="SVGID_13_"
       gradientUnits="userSpaceOnUse"
       x1="18.142599"
       y1="10.0176"
       x2="18.1821"
       y2="10.0176"
       gradientTransform="matrix(0.17282917,0,0,0.17282917,0.79955779,285.13154)">
								<stop
   offset="0"
   style="stop-color:#EA843C;stop-opacity:0"
   id="stop1177" />

								<stop
   offset="1"
   style="stop-color:#FF8F3F"
   id="stop1179" />

							</linearGradient>
    <linearGradient
       id="SVGID_15_"
       gradientUnits="userSpaceOnUse"
       x1="18.1821"
       y1="9.5375996"
       x2="18.689501"
       y2="9.5375996"
       gradientTransform="matrix(0.17282917,0,0,0.17282917,0.79955779,285.13154)">
								<stop
   offset="0"
   style="stop-color:#EA843C;stop-opacity:0"
   id="stop1191" />

								<stop
   offset="1"
   style="stop-color:#FF8F3F"
   id="stop1193" />

							</linearGradient>
  </defs>
  <sodipodi:namedview
     id="base"
     pagecolor="#ffffff"
     bordercolor="#666666"
     borderopacity="1.0"
     inkscape:pageopacity="0.0"
     inkscape:pageshadow="2"
     inkscape:zoom="11.313709"
     inkscape:cx="13.453236"
     inkscape:cy="25.346731"
     inkscape:document-units="px"
     inkscape:current-layer="layer1"
     showgrid="false"
     units="px"
     inkscape:showpageshadow="false"
     showguides="true"
     inkscape:guide-bbox="true"
     inkscape:window-width="1920"
     inkscape:window-height="1019"
     inkscape:window-x="0"
     inkscape:window-y="0"
     inkscape:window-maximized="1"
     inkscape:snap-global="false">
    <sodipodi:guide
       position="6.35,11.641667"
       orientation="0,1"
       id="guide815"
       inkscape:locked="false"
       inkscape:label=""
       inkscape:color="rgb(0,0,255)" />
    <sodipodi:guide
       position="6.35,1.0583333"
       orientation="0,1"
       id="guide817"
       inkscape:locked="false"
       inkscape:label=""
       inkscape:color="rgb(0,0,255)" />
    <sodipodi:guide
       position="1.0583333,6.35"
       orientation="1,0"
       id="guide819"
       inkscape:locked="false"
       inkscape:label=""
       inkscape:color="rgb(0,0,255)" />
    <sodipodi:guide
       position="11.641667,6.35"
       orientation="1,0"
       id="guide821"
       inkscape:locked="false"
       inkscape:label=""
       inkscape:color="rgb(0,0,255)" />
    <sodipodi:guide
       position="19.737854,6.8755084"
       orientation="0.70710678,0.70710678"
       id="guide886"
       inkscape:locked="false"
       inkscape:label=""
       inkscape:color="rgb(0,0,255)" />
  </sodipodi:namedview>
  <metadata
     id="metadata5">
    <rdf:RDF>
      <cc:Work
         rdf:about="">
        <dc:format>image/svg+xml</dc:format>
        <dc:type
           rdf:resource="http://purl.org/dc/dcmitype/StillImage" />
        <dc:title />
      </cc:Work>
    </rdf:RDF>
  </metadata>
  <g
     inkscape:label="Capa 1"
     inkscape:groupmode="layer"
     id="layer1"
     transform="translate(0,-284.29998)">
    <g
       id="g2745"
       transform="translate(-0.02883139,0.02971022)">
      <circle
         id="circle1073"
         r="5.2052689"
         cy="290.62027"
         cx="6.3788314"
         stroke-miterlimit="10"
         style="clip-rule:evenodd;fill:#232629;fill-rule:evenodd;stroke:none;stroke-width:0.19922018;stroke-miterlimit:10" />
      <circle
         id="circle1084"
         r="4.615057"
         cy="290.64618"
         cx="6.3791752"
         style="clip-rule:evenodd;fill:url(#SVGID_3_);fill-rule:evenodd;stroke-width:0.17282915" />
      <path
         style="fill:#3d220c;stroke-width:0.17282915"
         inkscape:connector-curvature="0"
         d="m 9.8188203,292.89745 c -0.010711,-0.0179 -0.023506,-0.0319 -0.035774,-0.0425 -0.1432755,-0.24127 -0.142411,-0.64846 -0.1417193,-1.00898 5.178e-4,-0.17127 8.49e-4,-0.33304 -0.013305,-0.47546 -0.032671,-0.32785 -0.097475,-0.57948 -0.2106792,-0.81471 -0.026273,-0.0548 -0.079156,-0.0911 -0.1387817,-0.097 0.033872,-0.18717 0.025745,-0.35983 -0.024717,-0.52367 -3.458e-4,-0.009 0,-0.0177 0,-0.0267 1.72e-4,-0.0503 3.459e-4,-0.12945 -0.04563,-0.20687 -0.00155,-0.006 -0.00314,-0.0135 -0.00464,-0.0202 -0.02575,-0.11285 -0.05807,-0.25387 -0.1631509,-0.38004 -0.015037,-0.0182 -0.034046,-0.0319 -0.054615,-0.0422 0.1095738,-0.33304 0.1303133,-0.73971 -0.023156,-1.0057 -0.083131,-0.14396 -0.2113705,-0.22363 -0.366398,-0.24748 -0.026272,-0.0217 -0.063949,-0.0398 -0.1171778,-0.0398 -0.017976,0 -0.045111,9.1e-4 -0.111302,0.0133 -0.0017,3.5e-4 -0.00346,9.1e-4 -0.00536,9.1e-4 -0.0017,5.1e-4 -0.00346,3.5e-4 -0.00516,6.5e-4 -0.00399,9.1e-4 -0.00778,0.004 -0.011581,0.004 -0.00536,0.002 -0.010713,0.004 -0.015899,0.005 -0.012274,0.005 -0.024371,0.0104 -0.035946,0.0171 -0.00209,9.1e-4 -0.00431,0.002 -0.00656,0.004 -0.048043,0.0269 -0.2322824,0.13498 -0.3375352,0.26719 -0.026788,-0.40805 -0.110438,-0.86709 -0.3525715,-1.11406 -0.08244,-0.0842 -0.1806068,-0.13999 -0.2891433,-0.1673 -0.026788,-0.0164 -0.057895,-0.0259 -0.090736,-0.0259 -0.014175,0 -0.026965,6.5e-4 -0.053406,0.007 -0.043726,-6.5e-4 -0.088489,0.002 -0.1344612,0.009 -0.014175,0.003 -0.023679,0.005 -0.036815,0.0107 -0.013998,0.005 -0.06844,0.0167 -0.1277207,0.0238 -0.017284,-6.5e-4 -0.034568,-9.1e-4 -0.045451,-0.002 -0.00899,-0.002 0.00968,-0.003 3.455e-4,-0.003 -0.095229,0 -0.1443123,0.0771 -0.1443123,0.17231 v 0.008 c 0,0.0455 -0.010373,0.0867 0.018323,0.1177 -0.015384,0.039 -0.040441,0.0784 -0.049775,0.11614 -0.050467,-0.16626 -0.1149315,-0.32043 -0.1596942,-0.44037 -0.016422,-0.0439 -0.034046,-0.0815 -0.044419,-0.11148 -0.1031789,-0.2945 -0.3112656,-0.46352 -0.5673982,-0.46352 -0.083131,0 -0.1683354,0.019 -0.2525032,0.055 -0.059626,0.004 -0.094365,0.031 -0.2236411,0.13671 -1.731e-4,1.7e-4 -5.186e-4,3.5e-4 -5.186e-4,3.5e-4 v 0 c -7.185e-4,6.5e-4 -0.00137,9.1e-4 -0.00189,0.002 -8.492e-4,6.5e-4 -0.0017,9.1e-4 -0.00261,0.002 -0.0017,9.1e-4 -0.00366,0.003 -0.00516,0.004 -0.1017959,0.0729 -0.1702362,0.1621 -0.2184558,0.25613 -0.062911,-0.0607 -0.1496699,-0.12202 -0.2523308,-0.19184 -0.01296,-0.009 -0.024025,-0.0163 -0.031975,-0.0217 -0.1513983,-0.1711 -0.3384,-0.26478 -0.5286847,-0.26478 -0.1043887,0 -0.2499107,0.0299 -0.3904213,0.15521 -0.059455,0.0225 -0.096957,0.0836 -0.1628047,0.19909 -0.3361531,0.36415 -0.3895571,0.65849 -0.1901124,1.04303 0.00124,0.002 0.00274,0.004 0.00399,0.005 -3.463e-4,3.5e-4 -7.186e-4,6.6e-4 -0.00124,9.1e-4 -0.056339,0.0286 -0.1047348,0.0696 -0.1450041,0.12305 -0.042517,0.029 -0.071205,0.0631 -0.090563,0.0963 -0.036293,0.0302 -0.064635,0.0673 -0.083649,0.10958 -0.049605,0.0562 -0.1062901,0.1355 -0.1332514,0.24248 -0.050814,0.0826 -0.078637,0.16919 -0.082958,0.25786 -0.017108,0.0388 -0.026096,0.0767 -0.028519,0.11406 -0.01279,-0.002 -0.02558,-0.004 -0.03854,-0.004 -0.3918034,0 -0.4766629,0.65607 -0.5468317,1.51399 -0.00985,0.11977 -0.020047,0.24335 -0.028343,0.28569 -0.078292,0.29105 0.085377,0.50535 0.2053211,0.66245 0.1209802,0.15865 0.2355661,0.3187 0.3465221,0.47356 0.3807426,0.53144 0.7404001,1.03334 1.3145387,1.44519 0.7269199,0.52177 1.4892692,1.08918 2.1181941,1.78429 0.1501886,0.16591 0.3126484,0.2468 0.4967113,0.2468 0.085896,0 0.1755947,-0.0177 0.2734159,-0.0539 0.6719598,-0.12131 1.2677012,-0.37468 1.7706344,-0.75249 0.00242,-0.002 0.0045,-0.004 0.00674,-0.005 0.00933,-0.004 0.018492,-0.007 0.027481,-0.0128 0.28344,-0.16177 0.5096738,-0.38645 0.735388,-0.62218 0.3162779,-0.33046 0.3261289,-0.4205 0.087456,-0.8066 z"
         id="path1086" />
      <path
         id="path1088"
         d="m 6.3307824,292.29703 c 0.00411,0.008 0.00588,0.0131 0.00674,0.0175 -0.00399,-0.0104 -0.0064,-0.0166 -0.00674,-0.0175 z"
         inkscape:connector-curvature="0"
         style="fill:#ffcb8d;stroke-width:0.17282915" />
      <path
         id="path1090"
         d="m 6.2578486,292.254 c 0.024718,0.0135 0.049258,0.0273 0.072934,0.043 -0.037161,-0.0244 -0.059626,-0.0371 -0.072934,-0.043 z"
         inkscape:connector-curvature="0"
         style="fill:#ffcb8d;stroke-width:0.17282915" />
      <path
         id="path1092"
         d="m 9.656361,292.9766 c -0.2673672,-0.39768 -0.1545092,-1.1329 -0.1996176,-1.58899 -0.025236,-0.25527 -0.075006,-0.50863 -0.1944331,-0.75734 -0.2398865,0.74662 -0.2345289,1.55736 -1.0756882,1.89352 -0.2034202,0.0814 -1.5160574,0.0512 -1.5105273,0.0795 -0.1258192,0.24213 -0.302105,-0.19495 -0.3385718,-0.28881 0.0076,0.0418 -0.1410286,-0.0881 -0.079674,-0.0605 -0.2084323,-0.11493 -0.444344,-0.16333 -0.6603803,-0.26081 -0.2061852,-0.0928 -2.0623705,-1.14862 -1.9569446,-1.22276 -0.095229,0.0463 -0.1743849,0.16263 -0.3019325,0.0693 -0.066194,-0.0541 0.2049755,-0.59367 0.1918401,-0.74783 -0.031113,-0.36432 -0.095402,-0.73522 -0.3128209,-1.04096 -0.544066,-0.67126 -0.5572008,1.27221 -0.6137161,1.52782 0.02264,0.0783 0.041825,0.15797 0.087279,0.2271 0.5929765,0.90268 1.2419498,1.79828 2.1707338,2.38314 0.4052845,0.25509 1.967833,1.8491 2.2832465,1.74091 0.6261598,-0.11113 1.2025448,-0.33996 1.7132549,-0.72382 0.2101601,-0.1946 0.957301,-0.87952 0.7979522,-1.2295 z"
         inkscape:connector-curvature="0"
         style="fill:#ffcb8d;stroke-width:0.17282915" />
      <path
         id="path1094"
         d="m 7.0649607,287.18993 c 0.046143,-0.0158 0.088834,-0.0256 0.1294491,-0.0325 0.044242,-0.0197 0.044765,-0.0273 -0.1294491,0.0325 z"
         inkscape:connector-curvature="0"
         style="fill:#ffcb8d;stroke-width:0.17282915" />
      <path
         id="path1096"
         d="m 7.174189,289.29223 c 0.3499788,0.16851 0.6042105,0.015 0.6116421,-0.36848 0.00916,-0.45246 0.1875197,-1.89714 -0.5912488,-1.76649 -0.049429,0.0219 -0.1538179,0.059 -0.1294491,0.0325 -0.2552684,0.27394 -0.069132,1.46922 -0.021948,1.81816 0.014691,0.11045 0.046143,0.2086 0.131005,0.28431 z"
         inkscape:connector-curvature="0"
         style="fill:#ffcb8d;stroke-width:0.17282915" />
      <path
         id="path1098"
         d="m 5.5050048,286.74196 c 0.034392,-0.0281 0.068613,-0.0517 0.1026602,-0.0719 0.041479,-0.0385 0.047874,-0.0515 -0.1026602,0.0719 z"
         inkscape:connector-curvature="0"
         style="fill:#ffcb8d;stroke-width:0.17282915" />
      <path
         id="path1100"
         d="m 5.7677046,288.21826 c 0.080193,0.29865 0.3764223,0.29641 0.6220126,0.2354 0.4322458,-0.19184 -0.01279,-1.22363 -0.115277,-1.51657 -0.1189069,-0.33927 -0.3841994,-0.43571 -0.6667752,-0.26703 -0.041309,0.0383 -0.1168324,0.10145 -0.1100918,0.0836 -0.057208,0.0863 -0.045973,0.18113 -0.033876,0.27791 0.050813,0.40874 0.198235,0.79242 0.3040071,1.18664 z"
         inkscape:connector-curvature="0"
         style="fill:#ffcb8d;stroke-width:0.17282915" />
      <path
         id="path1102"
         d="m 8.4889,288.14015 c 0.00399,0.008 -0.1140671,0.0408 -0.090563,0.009 -0.2637372,0.3626 -0.3449669,1.04233 -0.269786,1.47907 0.6532941,0.54269 1.1667693,-1.49773 0.3603485,-1.48788 z"
         inkscape:connector-curvature="0"
         style="fill:#ffcb8d;stroke-width:0.17282915" />
      <path
         id="path1104"
         d="m 8.3983374,288.14896 c 0.031975,-0.005 0.061872,-0.008 0.090563,-0.009 -0.0017,-0.004 -0.024711,-0.004 -0.090563,0.009 z"
         inkscape:connector-curvature="0"
         style="fill:#ffcb8d;stroke-width:0.17282915" />
      <path
         id="path1106"
         d="m 3.9351971,286.87608 c 0.00242,-0.009 0.00399,-0.0171 0.00691,-0.0263 -0.00379,0.0117 -0.00608,0.0202 -0.00691,0.0263 z"
         inkscape:connector-curvature="0"
         style="fill:#ffcb8d;stroke-width:0.17282915" />
      <path
         id="path1108"
         d="m 4.3216435,287.38437 c 0.2761809,0.0745 0.7246728,0.0542 0.783089,-0.29952 0.013136,-0.0794 -0.3240549,-0.28205 -0.340301,-0.3009 -0.2125795,-0.24922 -0.5212525,-0.3116 -0.7438563,-0.0471 -0.025234,0.0582 -0.094192,0.18786 -0.085724,0.13948 -0.086761,0.32613 0.1391278,0.39076 0.3867921,0.50811 z"
         inkscape:connector-curvature="0"
         style="fill:#ffcb8d;stroke-width:0.17282915" />
      <path
         id="path1110"
         d="m 3.9419376,286.84963 c 0.024541,-0.043 0.051159,-0.08 0.07881,-0.11303 0.019532,-0.0452 0.012444,-0.0471 -0.07881,0.11303 z"
         inkscape:connector-curvature="0"
         style="fill:#ffcb8d;stroke-width:0.17282915" />
      <path
         id="path1119"
         d="m 6.3307824,292.29703 c 0.00411,0.008 0.00588,0.0131 0.00674,0.0175 -0.00399,-0.0104 -0.0064,-0.0166 -0.00674,-0.0175 z"
         inkscape:connector-curvature="0"
         style="fill:url(#SVGID_4_);stroke-width:0.17282915" />
      <path
         id="path1126"
         d="m 6.2578486,292.254 c 0.024718,0.0135 0.049258,0.0273 0.072934,0.043 -0.037161,-0.0244 -0.059626,-0.0371 -0.072934,-0.043 z"
         inkscape:connector-curvature="0"
         style="fill:url(#SVGID_5_);stroke-width:0.17282915" />
      <path
         id="path1133"
         d="m 9.656361,292.9766 c -0.2673672,-0.39768 -0.1545092,-1.1329 -0.1996176,-1.58899 -0.025236,-0.25527 -0.075006,-0.50863 -0.1944331,-0.75734 -0.2398865,0.74662 -0.2345289,1.55736 -1.0756882,1.89352 -0.2034202,0.0814 -1.5160574,0.0512 -1.5105273,0.0795 -0.1258192,0.24213 -0.302105,-0.19495 -0.3385718,-0.28881 0.0076,0.0418 -0.1410286,-0.0881 -0.079674,-0.0605 -0.2084323,-0.11493 -0.444344,-0.16333 -0.6603803,-0.26081 -0.2061852,-0.0928 -2.0623705,-1.14862 -1.9569446,-1.22276 -0.095229,0.0463 -0.1743849,0.16263 -0.3019325,0.0693 -0.066194,-0.0541 0.2049755,-0.59367 0.1918401,-0.74783 -0.031113,-0.36432 -0.095402,-0.73522 -0.3128209,-1.04096 -0.544066,-0.67126 -0.5572008,1.27221 -0.6137161,1.52782 0.02264,0.0783 0.041825,0.15797 0.087279,0.2271 0.5929765,0.90268 1.2419498,1.79828 2.1707338,2.38314 0.4052845,0.25509 1.967833,1.8491 2.2832465,1.74091 0.6261598,-0.11113 1.2025448,-0.33996 1.7132549,-0.72382 0.2101601,-0.1946 0.957301,-0.87952 0.7979522,-1.2295 z"
         inkscape:connector-curvature="0"
         style="fill:url(#SVGID_6_);stroke-width:0.17282915" />
      <path
         id="path1140"
         d="m 7.0649607,287.18993 c 0.046143,-0.0158 0.088834,-0.0256 0.1294491,-0.0325 0.044242,-0.0197 0.044765,-0.0273 -0.1294491,0.0325 z"
         inkscape:connector-curvature="0"
         style="fill:url(#SVGID_7_);stroke-width:0.17282915" />
      <path
         id="path1154"
         d="m 5.5050048,286.74196 c 0.034392,-0.0281 0.068613,-0.0517 0.1026602,-0.0719 0.041479,-0.0385 0.047874,-0.0515 -0.1026602,0.0719 z"
         inkscape:connector-curvature="0"
         style="fill:url(#SVGID_9_);stroke-width:0.17282915" />
      <path
         id="path1175"
         d="m 8.3983374,288.14896 c 0.031975,-0.005 0.061872,-0.008 0.090563,-0.009 -0.0017,-0.004 -0.024711,-0.004 -0.090563,0.009 z"
         inkscape:connector-curvature="0"
         style="fill:url(#SVGID_12_);stroke-width:0.17282915" />
      <path
         id="path1182"
         d="m 3.9351971,286.87608 c 0.00242,-0.009 0.00399,-0.0171 0.00691,-0.0263 -0.00379,0.0117 -0.00608,0.0202 -0.00691,0.0263 z"
         inkscape:connector-curvature="0"
         style="fill:url(#SVGID_13_);stroke-width:0.17282915" />
      <path
         id="path1196"
         d="m 3.9419376,286.84963 c 0.024541,-0.043 0.051159,-0.08 0.07881,-0.11303 0.019532,-0.0452 0.012444,-0.0471 -0.07881,0.11303 z"
         inkscape:connector-curvature="0"
         style="fill:url(#SVGID_15_);stroke-width:0.17282915" />
      <path
         style="clip-rule:evenodd;fill:#281a0f;fill-rule:evenodd;stroke-width:0.17282915"
         inkscape:connector-curvature="0"
         d="m 6.7585347,292.06562 c 0.4063212,0 0.8129885,0 1.2194827,0 -0.2813661,0.15208 -0.9332776,0.20687 -1.2194827,0 0.4063212,0 0.1353248,0.098 0,0 z"
         id="path1200" />
      <path
         id="path1202"
         d="m 4.5167673,292.88552 c -0.8053837,-0.55617 -1.4152981,-1.47786 -1.9126999,-2.30692 0.3907661,0.65139 -0.058933,0.21171 0,0 -0.058933,0.21171 0.062042,0.36985 0.1747298,0.51745 0.5276475,0.69183 0.9070079,1.36846 1.6245946,1.88331 0.7602754,0.54562 1.5151932,1.11199 2.145501,1.80883 0.1840628,0.20342 0.3651882,0.2309 0.5966064,0.14154 -0.080711,-0.005 -0.1391278,-0.0465 -0.19547,-0.10196 C 6.2039259,294.091 5.377111,293.47952 4.5167673,292.88552 Z"
         inkscape:connector-curvature="0"
         style="clip-rule:evenodd;fill:#ffe2d4;fill-rule:evenodd;stroke-width:0.17282915" />
      <path
         id="path1204"
         d="m 9.1110849,291.10088 c 0.010543,0.0717 0.015207,0.14017 0.016592,0.20637 0.025234,0.17023 0.058247,0.3078 -0.016592,-0.20637 z"
         inkscape:connector-curvature="0"
         style="clip-rule:evenodd;fill:#e89458;fill-rule:evenodd;stroke-width:0.17282915" />
      <path
         id="path1206"
         d="m 9.1110849,291.10088 c -0.6367026,1.1609 -1.4104589,1.35844 -2.6458413,1.07138 0.079501,0.16228 0.1451765,0.2964 0.2110243,0.43085 0.023849,-0.0956 0.087797,-0.0437 0.1341157,-0.0323 0.9650777,0.23765 2.3413161,-0.0796 2.317293,-1.26372 -0.013653,-0.0907 -0.025057,-0.19097 -0.016592,-0.20619 z"
         inkscape:connector-curvature="0"
         style="clip-rule:evenodd;fill:#af7045;fill-rule:evenodd;stroke-width:0.17282915" />
      <path
         id="path1208"
         d="m 6.2454049,292.27422 c 0.023679,0.007 0.051675,0.0148 0.085377,0.0227 -0.028689,-0.006 -0.056862,-0.0154 -0.085377,-0.0227 z"
         inkscape:connector-curvature="0"
         style="clip-rule:evenodd;fill:#e89458;fill-rule:evenodd;stroke-width:0.17282915" />
      <path
         id="path1210"
         d="m 3.7659974,290.60987 c -0.049605,0.0636 -0.087451,0.11183 -0.1254736,0.16056 0.2321093,0.005 0.8859222,0.82354 1.212051,0.95142 0.4645647,0.18234 0.9082169,0.42413 1.3928301,0.55237 -0.2542316,-0.079 0.029382,-0.12392 0.080711,0.008 -0.041648,-0.15261 -0.151917,-0.2245 -0.2974391,-0.28466 -0.8235305,-0.34064 -1.6983919,-0.59971 -2.2626793,-1.38764 z"
         inkscape:connector-curvature="0"
         style="clip-rule:evenodd;fill:#af7045;fill-rule:evenodd;stroke-width:0.17282915" />
      <path
         id="path1212"
         d="m 3.2876067,290.74538 c -0.037847,0.0539 -0.030073,0.0976 0.051159,0.0944 -0.081229,0.004 -0.015037,-0.0809 0,0 -0.024371,-0.13083 0.3159321,-0.43657 0.308846,-0.70773 -0.010712,-0.40322 -0.1581388,-0.78189 -0.4298262,-1.08122 0.1697183,0.5648 0.4557503,1.14343 0.069824,1.69459 z"
         inkscape:connector-curvature="0"
         style="clip-rule:evenodd;fill:#af7045;fill-rule:evenodd;stroke-width:0.17282915" />
      <path
         id="path1214"
         d="m 9.6719156,292.98697 c -0.00291,-0.005 -0.010375,-0.007 -0.015553,-0.0106 -0.00155,0.14743 -0.095747,0.25406 -0.1614228,0.37383 -0.1621135,0.29571 -0.412024,0.52575 -0.5998892,0.80176 0.1541635,-0.21137 0.2267517,-0.10698 0.015384,0.0242 0.2687494,-0.15329 0.4847861,-0.37089 0.696501,-0.59176 0.2647744,-0.276 0.2620097,-0.2786 0.064977,-0.59747 z"
         inkscape:connector-curvature="0"
         style="clip-rule:evenodd;fill:#af7045;fill-rule:evenodd;stroke-width:0.17282915" />
      <path
         id="path1216"
         d="m 4.0805467,287.60454 c -0.00968,-0.008 -0.3534357,-0.21448 -0.248874,-0.3268 0.080539,-0.0865 0.3492878,0.19166 0.4899708,0.17542 -0.2423066,-0.0959 -0.412198,-0.24318 -0.3797059,-0.53439 -0.032491,0.29121 -0.2993399,0.318 0,0 -0.2993399,0.318 -0.3454855,0.53784 -0.1774955,0.86189 0.1052528,-0.0588 0.21016,-0.11717 0.3161046,-0.17612 z"
         inkscape:connector-curvature="0"
         style="clip-rule:evenodd;fill:#ffe2d4;fill-rule:evenodd;stroke-width:0.17282915" />
      <path
         id="path1218"
         d="m 8.3713761,288.16192 c 0.0083,-0.005 0.017284,-0.0107 0.026958,-0.0129 -0.00464,9.1e-4 -0.014344,0.005 -0.026958,0.0129 z"
         inkscape:connector-curvature="0"
         style="clip-rule:evenodd;fill:#e89458;fill-rule:evenodd;stroke-width:0.17282915" />
      <path
         id="path1220"
         d="m 8.1285515,289.69699 c -0.016768,-0.51261 0.1266833,-0.99585 0.2697859,-1.47925 -0.1330784,0.44971 -0.1377448,0.0921 -0.026958,0.013 -0.097648,0.0543 -0.3961243,0.26426 -0.3079812,0.32181 0.2582065,0.1692 -0.068959,0.87158 0.065158,1.14447 z"
         inkscape:connector-curvature="0"
         style="clip-rule:evenodd;fill:#ffe2d4;fill-rule:evenodd;stroke-width:0.17282915" />
      <path
         id="path1222"
         d="m 5.2751419,287.33528 c 0.1014505,-0.0498 0.1325597,0.0213 0.1671258,0.094 0.1232272,0.2589 0.1911489,0.5349 0.2597623,0.81126 0.089179,0.35862 0.3484237,0.46352 0.6876872,0.28206 -0.1847547,-0.004 -0.488588,0.0415 -0.5611762,-0.20118 -0.1477691,-0.49463 -0.3278573,-0.98305 -0.3237093,-1.51052 -0.00411,0.50881 -0.1757671,0.15054 -0.018323,0.014 -0.172829,0.12375 -0.2272703,0.3092 -0.2547503,0.50881 0.014344,3.5e-4 -0.040271,0.0588 0,0 -0.040271,0.0588 -0.080711,0.11735 -0.1209802,0.17611 0.2326279,0.0894 0.1481147,-0.0847 0.1643607,-0.17455 z"
         inkscape:connector-curvature="0"
         style="clip-rule:evenodd;fill:#ffe2d4;fill-rule:evenodd;stroke-width:0.17282915" />
      <path
         id="path1224"
         d="m 6.8090006,287.76062 c 0.126511,0.006 0.1088821,0.10007 0.1069812,0.18112 -0.0076,0.33701 -0.1598672,1.2575 0.2582072,1.41945 -0.087452,-0.2131 -0.1016236,-0.44089 -0.1061177,-0.66522 -0.00985,-0.47891 -0.00314,-0.95817 -0.00314,-1.43707 0,0.46369 -0.2495651,0.0874 -0.024025,0.007 -0.2402327,0.0707 -0.2215671,0.30591 -0.2887977,0.48634 0.018839,0.004 -0.037508,0.0724 0,0 -0.037508,0.0724 -0.120116,0.14172 -0.010713,0.24283 0.031798,-0.0869 -3.456e-4,-0.17733 0.067576,-0.23453 z"
         inkscape:connector-curvature="0"
         style="clip-rule:evenodd;fill:#ffe2d4;fill-rule:evenodd;stroke-width:0.17282915" />
      <path
         id="path1226"
         d="m 5.8821181,289.24885 c -0.064812,6.5e-4 0.089698,0.064 0,0 z"
         inkscape:connector-curvature="0"
         style="clip-rule:evenodd;fill:#e89458;fill-rule:evenodd;stroke-width:0.17282915" />
      <path
         id="path1228"
         d="m 4.2561413,288.86499 c 0,0.038 0,0.0759 0,0.11425 0,0.0136 -0.013998,0.0273 0.010021,0.041 0.2563062,0.008 0.4851319,0.0724 0.7350425,-0.0415 -0.03854,-0.0382 -0.092464,-0.0757 -0.1308313,-0.11372 0.038369,0.038 -0.037847,-0.0128 0,0 -0.037847,-0.0128 -0.021602,-0.0256 -0.059279,-0.0383 -0.1996178,0.0676 -0.3821254,0.029 -0.5549543,0.0383 z"
         inkscape:connector-curvature="0"
         style="clip-rule:evenodd;fill:#e89458;fill-rule:evenodd;stroke-width:0.17282915" />
      <path
         id="path1230"
         d="m 6.1083511,288.98062 c 0.00105,0.0128 -0.049944,-0.0263 0,0 -0.049944,-0.0263 -0.099895,-0.0521 -0.14967,-0.0784 -0.078119,3.5e-4 -0.157447,-0.007 -0.2274433,0.0396 -0.026442,0.0461 -0.080884,0.0828 -0.050291,0.14795 0.0083,0.008 0.016938,0.0116 0.025925,0.0117 -0.00222,0.0248 0.00411,0.0477 0.023849,0.0678 0.052191,0.0235 0.086588,0.0804 0.1513983,0.0796 0.089698,0.064 0.1591754,0.01 0.2293442,-0.0394 0.00608,-0.0632 0.00366,-0.12633 -0.00555,-0.18907 8.492e-4,-6.6e-4 0.00189,-9.1e-4 0.00294,-0.002 7.185e-4,-0.0124 5.186e-4,-0.0251 -5.187e-4,-0.0379 z"
         inkscape:connector-curvature="0"
         style="clip-rule:evenodd;fill:#e89458;fill-rule:evenodd;stroke-width:0.17282915" />
      <path
         id="path1245"
         d="m 5.6211459,288.4827 c -0.020047,-0.0123 -0.027826,-0.0164 -0.028866,-0.0158 0.00968,0.005 0.019701,0.0102 0.028866,0.0158 z"
         inkscape:connector-curvature="0"
         style="fill:url(#SVGID_16_);stroke-width:0.17282915" />
      <path
         id="path1258"
         d="m 8.5906966,291.57167 c -8.492e-4,0.006 -0.00346,0.0116 -0.00483,0.0178 0.00189,-0.004 0.00379,-0.009 0.00483,-0.0178 z"
         inkscape:connector-curvature="0"
         style="fill:url(#SVGID_17_);stroke-width:0.17282915" />
      <path
         id="path1271"
         d="m 8.5906966,291.57167 c -0.012444,-0.0131 -0.020393,-0.0181 -0.024887,-0.0181 0.010196,0.005 0.018662,0.0117 0.024887,0.0181 z"
         inkscape:connector-curvature="0"
         style="fill:url(#SVGID_18_);stroke-width:0.17282915" />
      <path
         id="path1284"
         d="m 4.1298028,287.68544 c 0.024718,-0.009 0.071379,-0.0225 0.1325604,-0.0375 -0.02057,9.1e-4 -0.061526,0.0123 -0.1325604,0.0375 z"
         inkscape:connector-curvature="0"
         style="fill:url(#SVGID_19_);stroke-width:0.17282915" />
      <path
         id="path1297"
         d="m 5.4652541,287.94761 c -0.00274,0.004 -0.00691,0.007 -0.012613,0.011 8.491e-4,0.002 0.00431,6.5e-4 0.012613,-0.011 z"
         inkscape:connector-curvature="0"
         style="fill:url(#SVGID_20_);stroke-width:0.17282915" />
      <path
         id="path1306"
         d="m 9.0683962,290.54196 c 0.066366,-0.19047 0.071033,-0.3811 0.0083,-0.57155 -0.00933,-0.0665 0.016592,-0.13913 -0.03249,-0.19841 -3.456e-4,1.7e-4 0.00124,3.5e-4 7.185e-4,3.5e-4 -0.00555,-0.008 -0.025057,-0.11217 0.00222,-3.5e-4 -0.029898,-0.12306 -0.047704,-0.25043 -0.1394732,-0.36053 -0.061526,0.1146 -0.1166592,0.21778 -0.1721379,0.32095 0.00431,0.0112 0.00968,0.0209 0.014691,0.0309 -0.00536,-0.009 -0.010196,-0.0192 -0.014514,-0.0309 0.063603,0.16679 -0.02575,0.0256 0,0 -0.02575,0.0256 -0.051506,0.0512 -0.077255,0.0767 0.029382,0.0177 0.058933,0.0306 0.088662,0.0394 -0.251466,0.0437 -0.5530527,0.0444 -0.7308937,-0.0698 -0.025234,-0.0382 -0.050637,-0.0762 -0.075873,-0.11441 -0.00261,-6.5e-4 -0.00503,-9.1e-4 -0.00744,-0.002 0.00411,-0.003 0.00709,-0.004 0.00744,0.002 -3.456e-4,-0.007 0.00209,-0.0142 0.00189,-0.0213 0.0083,0.0138 0.1130299,-0.62321 -0.068786,-0.38368 v 1.7e-4 c 0,0 0,0 0,-1.7e-4 0,0.14414 -0.1864831,0.19789 -0.311438,0.25665 1.724e-4,1.8e-4 -0.00105,3.5e-4 -0.00105,3.5e-4 -0.101969,-0.005 -0.2048024,-0.006 -0.3076356,0 -0.1007594,-0.0529 -0.2018649,-0.10577 -0.3026243,-0.15883 0.059455,0.0315 0.018146,0.0196 -0.00744,0.008 0.00242,-0.003 0.0045,-0.005 0.00725,-0.008 -0.00222,0.004 -0.00536,0.005 -0.00813,0.008 -0.017454,-0.008 -0.026958,-0.015 0.00813,-0.008 -0.00813,-9.1e-4 -0.017108,-0.003 -0.025234,-0.005 0.00608,-0.005 0.01486,-0.006 0.025234,0.005 -0.034914,-0.0382 -0.069824,-0.0765 -0.1049072,-0.11511 -0.028173,-0.0202 -0.061526,-0.0348 -0.09834,-0.0455 0.028519,-0.01 0.08555,-0.005 0.09834,0.0455 -0.026618,-0.10421 -0.053231,-0.2086 -0.08002,-0.31316 -7.185e-4,3.4e-4 -0.00137,9.1e-4 -0.00209,9.1e-4 -1.731e-4,-0.005 0.00105,-0.0144 0.00209,-9.1e-4 -0.00189,-0.0212 -0.00366,-0.0427 -0.00555,-0.064 -0.00157,-0.038 -0.00327,-0.0759 -0.00483,-0.11425 -0.00795,-0.005 -0.016768,-0.0119 -0.02575,-0.0177 0.015729,0.005 0.074143,0.0102 0.074316,0.0177 -0.00124,-0.0634 0.044765,-0.12702 0.044765,-0.19062 0,-0.092 0,-0.14518 0,-0.31801 0,0 -0.1199436,0 -0.1294491,0 -0.015207,0.17283 -0.028689,0.10162 -0.043903,0.14189 -0.064119,0.10353 -0.1553731,0.18631 -0.2592438,0.2456 -0.00379,9.1e-4 -0.00709,0.008 -0.010889,0.009 -0.172311,-0.0166 -0.377632,-0.006 -0.5819158,0.008 -0.00657,-0.003 -0.01262,-0.004 -0.019015,-0.007 -0.06101,-0.0532 -0.1220168,-0.10577 -0.1830255,-0.159 0.029898,0.026 0.00899,0.0663 -0.0095,0.0532 0.00294,0 0.00674,0.0531 0.00968,0.0531 -0.00366,0 -0.00656,0 -0.00985,0 -0.010713,0 -0.020739,-0.0684 -0.019008,-0.0686 -0.00588,-0.004 -0.012097,-0.0323 -0.018146,-0.035 0.025234,0.005 0.043204,1.7e-4 0.047011,0.0113 -0.026096,-0.0773 -0.052191,-0.1616 -0.078119,-0.2392 -0.00536,-3.4e-4 -0.010713,-0.004 -0.016075,-0.004 0.00588,-0.0124 0.015037,-0.0244 0.016075,-6.4e-4 -0.00222,-0.0525 0.00189,-0.10716 -0.037161,-0.15036 -0.013482,0.003 -0.027134,0.004 -0.040616,0.005 -0.061872,-1.8e-4 -0.1237459,-5.3e-4 -0.1857913,-6.6e-4 0.161077,-0.0388 0.2455903,-0.0918 0.1857913,-0.15883 0.00516,0.005 -0.00124,0.01 -0.01486,0.0121 5.187e-4,-3.5e-4 0.00157,-6.6e-4 0.00222,-9.1e-4 -7.186e-4,-0.002 1.725e-4,-0.006 0.00189,-0.0115 0.00366,1.6e-4 0.00725,1.6e-4 0.010713,3.5e-4 -0.00379,-1.9e-4 -0.00691,-3.5e-4 -0.010543,-3.5e-4 0.00379,-0.0106 0.010889,0.0123 0.010543,0.0332 5.187e-4,-0.0423 0.00242,-0.0838 -0.033183,-0.0838 0,0 -1.725e-4,0 -3.456e-4,0 -0.00242,0 -0.00157,-0.12185 -0.037508,-0.15589 -0.030936,-0.27722 -0.7986432,-0.15883 -1.1322036,-0.0761 0.052368,-0.004 -0.029382,0.0432 -0.089525,0.0642 -0.029382,-0.0104 -0.045457,-0.0261 -0.04321,-0.0392 -0.088143,0.0124 -0.1645332,0.0477 -0.2298629,0.10803 -0.047704,0.0123 -0.084514,0.0392 -0.1125119,0.079 -0.026958,0.0225 -0.053922,0.0442 -0.08071,0.0667 -0.051846,0.0217 -0.089006,0.0596 -0.1178697,0.10681 7.186e-4,0.009 0.0064,0.0173 0.014175,0.0252 0.016422,0.0392 -0.044588,-0.0105 -0.014175,-0.0256 -0.035261,0.0178 -0.061702,0.0432 -0.073798,0.0819 -0.035084,0.0196 -0.059802,0.0477 -0.070687,0.0871 -0.05911,0.0623 -0.1059446,0.13118 -0.1208078,0.21794 -0.04839,0.0696 -0.076736,0.14569 -0.072588,0.23175 -0.00242,0.0129 -0.00105,0.0246 0.00209,0.0356 -0.00222,0.0587 -0.041648,0.0327 -0.00209,-0.0356 -0.045973,0.0798 -0.043896,0.14795 0.04632,0.1953 0.022817,0.009 0.045627,0.0161 0.068613,0.0232 -0.027304,-9.1e-4 -0.055654,-0.008 -0.068613,-0.0232 0.045457,0.0532 0.090909,0.10612 0.1363621,0.15952 0.02558,0.0377 0.051159,0.0602 0.076736,0.098 -0.00709,-0.0115 0.0076,-0.0148 0.026958,-0.0148 -0.00812,0 -0.016592,0 -0.026618,0 0.00725,0 0.017284,0.0148 0.028859,0.0158 0.010543,0.005 0.021948,0.0171 0.032145,0.0223 -0.00431,5.1e-4 -0.00899,0.004 -0.013828,0.004 -0.019355,-0.005 -0.035946,-0.009 -0.047181,-0.0144 0.01486,0.006 0.026958,0.0123 0.037501,0.0169 -0.016075,-0.002 -0.031452,-0.005 -0.037501,-0.0157 0.023503,0.0388 0.047011,0.0774 0.070686,0.11615 0.010713,0.004 0.026788,0.007 0.045111,0.0107 -0.020563,0 -0.041132,-0.004 -0.045111,-0.0107 0.012613,0.0252 0.025234,0.05 0.037677,0.0754 v 0 c 0.00608,0.0115 0.011928,0.0227 0.017976,0.0337 0.02575,0.0636 0.051675,0.1272 0.077427,0.1908 0.013828,0.0506 0.027481,0.10094 0.041309,0.15157 0.011928,0.0508 0.024025,0.0727 0.035946,0.12375 -0.00503,-0.0207 0.00709,-0.0289 0.0178,-0.0289 -0.00588,0 -0.011928,0 -0.0178,0 0.0064,0 0.011581,0 0.0178,0 7.185e-4,0 0.00124,0.0305 0.00189,0.0314 -0.012444,-9.1e-4 -0.020047,0.0128 -0.019701,0.0119 -0.00366,0.0121 0.037331,0.0318 0.040963,0.0441 0.012274,0.11476 0.078119,0.23799 0.078119,0.35273 v -6.4e-4 c 0,0.0636 0,0.12633 0,0.19011 l -0.044242,-0.0302 c 0.066539,0.066 0.040787,0.0921 0.099895,0.0921 h 0.00222 c 0.044072,0.34565 0.1408561,0.23747 0.2347026,0.31213 v 0 c 0.038193,0.0602 0.08676,0.1329 0.1486326,0.16833 -0.00124,-0.002 0.00709,0.0123 0.018839,0.0167 -0.00327,0 -0.00656,0.005 -0.00968,0.005 -0.00314,-0.002 -0.0095,-9.1e-4 -0.012444,-0.003 5.186e-4,6.5e-4 0.00516,0.004 0.00516,0.007 v 0 c 0.066366,0.0686 0.1462131,0.1158 0.2303809,0.15399 0.062388,0.0621 0.1413741,0.1495 0.2255419,0.17007 v 0 c 0.079502,0.0956 0.2015193,0.0329 0.3072908,0.20567 0,0 0.013137,0 0.013137,0 0.099031,0 0.1631509,0.0115 0.3359799,0.0451 v 3.5e-4 c 0,0.0859 0.2189744,0.11924 0.3418562,0.15157 0.041309,0.0104 0.081056,0.0198 0.1225355,0.0289 -0.050814,-0.005 -0.096957,-0.0145 -0.1246095,-0.0289 0.1586569,0.0811 0.3171412,0.16142 0.4958465,0.19028 0.026618,0.002 0.05306,0.004 0.079674,0.005 0.023679,0.0154 0.015037,0.0383 -0.046836,0.0113 0.1334239,0.0692 0.2753167,0.11268 0.4241231,0.13601 0.4064942,0.0645 0.8129884,0.0897 1.2194826,0 0.1330783,-0.029 0.2428246,-0.10024 0.3416831,-0.19098 0.065329,-0.0363 0.1163135,-0.0871 0.152781,-0.15243 0.055647,-0.0302 0.099203,-0.0928 0.1135486,-0.15538 -0.00744,0.0119 -0.018839,-0.0406 -0.023503,-0.0406 0.00933,0 0.018669,0 0.028173,0 -0.010889,0 -0.019015,0.0225 -0.028173,0.0225 -0.00314,-0.01 -0.00314,-0.007 0.00327,-0.006 -0.00222,-9.1e-4 -0.00568,0.004 -0.00813,0.002 0.031798,3.5e-4 0.059455,0.008 0.036815,0.0247 0.068787,-0.0492 0.1552007,-0.098 0.1552007,-0.19012 v 6.5e-4 c 0,-0.0235 0.06844,-0.0612 0.07086,-0.11406 0.072761,-0.0761 0.1017966,-0.17006 0.1458682,-0.26271 -0.025057,0.0522 -0.049944,0.005 -0.050121,0.005 0.015899,0 0.032145,0 0.047874,0 -0.033529,0 -0.041303,-0.0131 -0.038369,-0.0217 0.00483,-0.002 0.011928,-0.004 0.021602,0.002 -0.00588,-0.004 -0.011751,-0.008 -0.0178,-0.0117 0.013136,-0.014 0.049775,-0.0223 0.034738,0.0221 0.02558,-0.0759 0.051329,-0.15244 0.076908,-0.22831 -0.00709,-0.006 -0.014175,-0.0125 -0.021432,-0.0178 0.010889,-0.0131 0.034222,-0.0242 0.020909,0.005 0.038024,-0.0667 0.02765,-0.14102 0.02765,-0.21517 z m -0.2775637,0.16141 c -0.00516,-0.006 -0.00847,-0.01 -0.010543,-0.0121 0.00366,-0.002 0.00795,-0.004 0.012613,-0.003 -7.185e-4,0.005 -0.00137,0.01 -0.00209,0.0147 z m -2.7898081,0.58572 c -0.01763,-0.008 -0.035777,-0.0148 -0.053923,-0.0212 0.075699,6.5e-4 0.1512253,0.002 0.2269248,0.004 0.034392,0.002 0.051675,0.004 0.055654,0.006 -0.010196,0.003 -0.02057,0.005 -0.029898,0.007 -0.04338,0.004 -0.124437,0.006 -0.1987537,0.004 z M 5.321633,291.04022 c -0.00124,0 -0.00189,-1.7e-4 -0.00314,-3.4e-4 0,0 0,-1.8e-4 0,-3.4e-4 0.00105,3.4e-4 0.00209,3.4e-4 0.00314,6.4e-4 z m 2.2979365,-0.70445 c -0.013306,0.007 -0.027481,0.0123 -0.039062,0.0115 -0.00261,-0.004 -0.00503,-0.008 -0.00744,-0.0115 0.00209,1.7e-4 0.00399,6.5e-4 0.00608,6.5e-4 0.01279,-5.2e-4 0.026272,-6.5e-4 0.040441,-6.5e-4 z m -0.115277,-0.0325 c 0.00157,0.004 0.00327,0.005 0.00503,0.008 -0.00503,-1.7e-4 -0.010196,-3.5e-4 -0.015207,-6.6e-4 0.00346,-0.003 0.00691,-0.005 0.010196,-0.007 z m -2.0390384,0.0819 c -3.461e-4,-0.005 -0.00189,-0.0109 -0.00274,-0.0163 0.020047,0.008 0.043896,0.0158 0.071724,0.0228 0.028866,0.0171 -0.027134,0.0109 -0.068958,-0.006 z M 5.349631,290.4894 c 0.00916,0.004 0.018146,0.005 0.025234,0.009 -3.455e-4,3.5e-4 -8.492e-4,6.6e-4 -0.00137,9.1e-4 -0.0083,-0.003 -0.016075,-0.005 -0.02264,-0.008 -3.455e-4,-6.5e-4 -7.186e-4,-9.1e-4 -0.00124,-0.002 z m 1.334414,0.0842 c 8.491e-4,0 0.0017,-1.7e-4 0.00261,-3.4e-4 0,5.1e-4 0,9.1e-4 0,0.002 -8.491e-4,-6.6e-4 -0.00157,-9.1e-4 -0.00261,-9.1e-4 z m 0.8812563,-0.23868 c 0.00137,0 0.00294,3.5e-4 0.00431,3.5e-4 0.0045,0.0102 7.185e-4,0.006 -0.00431,-3.5e-4 z m -2.1923382,0.16471 c -0.00366,0.004 -0.00709,0.005 -0.010543,0.008 -0.00366,-0.005 -0.00744,-0.01 -0.010713,-0.015 0.00691,0.002 0.014175,0.005 0.021256,0.006 z m -0.41479,0.1317 c 0.00242,-0.003 0.00516,-0.005 0.00813,-0.007 0.0017,9.1e-4 0.00327,0.003 0.00483,0.004 -0.00431,9.1e-4 -0.00865,0.002 -0.01296,0.004 z m 1.7623388,0.0249 c 0.017284,0.019 0.03854,0.0354 0.063081,0.05 -0.041132,9.1e-4 -0.081403,9.1e-4 -0.1201161,-6.5e-4 0.01763,-0.014 0.036639,-0.0306 0.057032,-0.0492 z m 1.6226931,-0.29312 c 0.011581,0.005 0.025403,0.0112 0.038193,0.0168 -0.00846,6.4e-4 -0.017284,3.4e-4 -0.02558,-6.6e-4 -0.0045,-0.005 -0.00846,-0.0106 -0.012613,-0.0161 z m 0.041648,0.0161 c -0.010713,-0.005 -0.02558,-0.011 -0.043896,-0.0194 -3.462e-4,-3.5e-4 -8.492e-4,-6.6e-4 -0.00137,-9.1e-4 0.01763,0.007 0.035084,0.0138 0.052715,0.0198 -0.00242,3.5e-4 -0.00503,5.1e-4 -0.00744,6.5e-4 z m 0.5629045,-0.20135 c 0.00656,-1.7e-4 0.01296,-1.7e-4 0.019185,0 -5.18e-4,0.002 -0.00124,0.005 -0.00189,0.006 -0.00568,-0.002 -0.011405,-0.004 -0.017284,-0.006 z m -0.1614225,0.52402 c -0.00294,-0.004 -0.0064,-0.005 -0.0095,-0.008 7.186e-4,-6.6e-4 0.00157,-9.1e-4 0.00242,-9.1e-4 0.0017,0.003 0.00399,0.005 0.00709,0.0101 0.00137,9.1e-4 0.00261,0.004 0.00399,0.005 0,1.7e-4 0,6.5e-4 0,9.1e-4 -0.00124,-0.002 -0.00274,-0.004 -0.00399,-0.005 z m -0.7877553,-0.90494 c -0.071724,0.0692 -0.1653973,0.0596 -0.2557869,0.0588 0.1301402,-0.019 0.2200111,-0.039 0.2557869,-0.0588 z m -0.094883,-0.31558 c -5.187e-4,0.0217 -0.00105,0.0436 0.00105,0.065 0.00209,0.005 0.00431,0.0149 0.00608,0.0227 -7.185e-4,-6.4e-4 -0.0017,-9.1e-4 -0.00261,-0.002 -0.00105,-0.007 -0.00274,-0.0138 -0.00346,-0.0209 -0.00379,-0.0117 -0.00621,-0.0138 0.0017,0.0198 -0.0045,-0.004 -0.00865,-0.006 -0.013482,-0.009 -0.00865,-9.1e-4 -0.017454,-0.003 -0.025925,-0.004 -0.016761,-0.0425 0.018839,-0.10612 0.036639,-0.0721 z M 6.1085206,289.0182 c 1.724e-4,1.7e-4 1.724e-4,3.4e-4 3.455e-4,5.2e-4 0.00157,0.0214 0.00294,0.0427 0.00431,0.064 -0.00346,0.002 -0.00744,0.004 -0.010713,0.005 -0.020739,0.0356 -0.021778,0.0698 -0.00294,0.10284 -0.076563,0.0107 -0.1510522,0.0321 -0.2269248,0.045 -0.033699,-0.0517 -0.082094,-0.0779 -0.1420652,-0.0847 -3.455e-4,-0.0184 -7.186e-4,-0.0369 -0.00105,-0.0553 -0.012274,-6.5e-4 -0.024541,-9.1e-4 -0.036639,-0.002 -0.0178,-0.008 -0.0356,-0.0147 -0.053231,-0.0214 0.0017,0 0.00366,-3.4e-4 0.00555,-3.4e-4 0.012097,0.005 0.027304,0.0125 0.047704,0.0217 0.0045,0 -0.020223,-0.0116 -0.043896,-0.0223 0.023679,-9.1e-4 0.048567,0.004 0.043896,0.0223 0.00778,-0.0311 0.015729,-0.0621 0.023503,-0.0932 0.00399,-9.1e-4 0.0083,-0.002 0.012444,-0.004 0.00709,-0.004 0.014514,-0.006 0.021948,-0.009 0.1036975,0.006 0.2079137,0.0112 0.3088461,0.0121 0.015729,0.006 0.031975,0.0128 0.048913,0.0171 z m -1.3974967,-0.17162 c 0.011059,0.008 0.02264,0.0158 0.033353,0.0246 0.036639,0.0225 0.076045,0.0358 0.1175235,0.0421 0.010366,0.0278 0.03059,0.0469 0.055131,0.0621 -0.207913,-0.0124 -0.479428,-0.0398 -0.666429,0.0277 -0.0095,0.005 -0.019532,0.01 -0.027827,0.0131 -5.186e-4,-6.5e-4 -0.00124,-9.1e-4 -0.00157,-0.002 0.00968,-0.004 0.019532,-0.007 0.029382,-0.0109 0.03336,-0.0171 0.057208,-0.0329 -0.03042,0.01 -0.017454,-0.0286 -0.041132,-0.0484 -0.069477,-0.0615 0.0083,-0.0209 0.0064,-0.0437 -0.00431,-0.0673 -0.0017,-0.002 -0.00346,-0.004 -0.00503,-0.005 0.00222,-9.1e-4 0.00431,-0.004 0.00656,-0.005 0.1764588,0.0778 0.3962974,0.0842 0.5630776,-0.0281 z m 2.0129411,-0.29156 c -7.184e-4,1.7e-4 -0.00137,6.5e-4 -0.00209,6.5e-4 7.185e-4,-0.002 0.00137,-0.005 0.00209,-0.006 0,0.002 1.732e-4,0.004 0,0.005 z m -0.00242,6.5e-4 v 0 c 0.00105,-0.004 0.00124,-0.005 0,0 z m -1.2901658,-0.72524 c -0.045973,-0.006 -0.092636,-0.0117 -0.1393001,-0.0166 0.057724,-0.003 0.1323872,1.8e-4 0.1393001,0.0166 z m 2.9643663,3.43446 c -0.00274,0 -0.00209,-0.002 -1.731e-4,-0.005 3.456e-4,5.2e-4 0.00105,9.1e-4 0.00137,0.002 -0.0017,9.1e-4 -0.00242,9.1e-4 -0.00124,0.003 0.00124,0 0.00209,0 0.00327,0 v 0 c -0.00124,0 -0.00222,0 -0.00327,0 z"
         inkscape:connector-curvature="0"
         style="fill:url(#SVGID_21_);stroke-width:0.17282915" />
      <path
         id="path1319"
         d="m 7.9783629,288.66347 c -0.046665,0.0406 -0.050467,0.0834 -0.00656,0.14103 0.00274,-0.0582 0.00464,-0.0997 0.00656,-0.14103 z"
         inkscape:connector-curvature="0"
         style="fill:url(#SVGID_22_);stroke-width:0.17282915" />
      <path
         id="path1328"
         d="m 4.7371247,288.72638 c -0.1475961,0.0323 -0.3273386,-0.0353 -0.481502,-0.0225 -0.1728289,0.0144 -0.4142713,0.13048 -0.3560283,0.34116 0.06775,0.24404 0.4932545,0.32544 0.7122291,0.27428 0.2065308,-0.0485 0.3931862,-0.33097 0.6052478,-0.19011 0.1111291,0.074 0.2250233,0.1457 0.3337328,0.22296 0.086069,0.0612 0.1643607,0.13324 0.2620094,0.17696 0.2136169,0.0963 0.5333507,0.14847 0.7459303,0.0149 0.1066357,-0.0669 0.116833,-0.24508 0.081403,-0.35517 -0.032145,-0.099 -0.1289305,-0.1685 -0.2020373,-0.23608 -0.1247826,-0.11562 -0.2996855,-0.20723 -0.4690583,-0.23937 -0.06101,-0.0115 -0.1277207,-0.0135 -0.1894205,-0.0104 -0.086242,0.005 -0.1353254,0.0452 -0.2110249,0.0761 -0.062565,0.0252 -0.1550277,0.0508 -0.2219127,0.0569 -0.1272021,0.0112 -0.2231224,-0.0513 -0.3406458,-0.0867 -0.072242,-0.0221 -0.1156232,0.005 -0.1830262,-1.8e-4 -0.028173,-0.003 -0.031106,-0.0177 -0.05617,-0.0244 -0.023503,-0.005 -0.052538,-0.002 -0.075872,-0.0102"
         inkscape:connector-curvature="0"
         style="fill:url(#SVGID_23_);stroke-width:0.17282915" />
      <path
         style="fill:#603813;stroke-width:0.17282915"
         inkscape:connector-curvature="0"
         d="m 4.5746654,289.34321 c -0.049428,0.0256 -0.1648793,0.0577 -0.2207028,0.0339 -0.071898,-0.0306 -0.1142404,-0.15278 -0.097994,-0.23298 0.053577,-0.26322 0.613025,-0.16177 0.7737565,-0.12236 0.099203,0.0247 0.1296216,0.0373 0.1100918,0.17594 -0.019701,0.13826 -0.1195974,0.17749 -0.2533675,0.1991 -0.09039,0.0147 -0.4206662,0.0659 -0.4776995,-0.009"
         id="path1339" />
      <path
         style="fill:#603813;stroke-width:0.17282915"
         inkscape:connector-curvature="0"
         d="m 6.0910685,289.18819 c -0.1038707,-0.0573 -0.4714785,0.0738 -0.3784963,0.27392 0.032837,0.0707 0.4182469,0.16402 0.5010317,0.0942 0.1444854,-0.12185 -0.00516,-0.39388 -0.1780134,-0.37902"
         id="path1341" />
      <path
         style="fill:#603813;stroke-width:0.17282915"
         inkscape:connector-curvature="0"
         d="m 5.338397,290.38364 c -0.095229,0.0538 -0.3606942,0.17214 -0.1911489,0.31248 0.053576,0.0442 0.2001365,0.0377 0.2696135,0.0696 0.1576202,0.0726 0.3167957,0.2207 0.4916992,0.25129 0.1043886,0.0179 0.3090186,0.0156 0.394223,-0.0485 0.1600404,-0.12045 0.1615956,-0.30694 0.00503,-0.40545 -0.2188014,-0.1374 -0.7384986,-0.22053 -1.0247037,-0.1794"
         id="path1343" />
      <path
         style="fill:#603813;stroke-width:0.17282915"
         inkscape:connector-curvature="0"
         d="m 8.0834426,290.31727 c -0.3556821,-0.14015 -0.9721639,0.51746 -0.290871,0.54321 0.1126844,0.004 0.3100552,0.0117 0.4102965,-0.0559 0.1030058,-0.0696 0.1182152,-0.2036 0.06101,-0.30972 -0.029728,-0.055 -0.1465587,-0.20307 -0.2246778,-0.18873"
         id="path1345" />
      <path
         style="fill:#603813;stroke-width:0.17282915"
         inkscape:connector-curvature="0"
         d="m 7.2642324,291.30223 c -0.080193,-0.17732 -0.6005814,0.14017 -0.3083269,0.3479 0.1396458,0.0994 0.6479366,0.13827 0.6596886,-0.12374 0.0076,-0.17093 -0.3002041,-0.30038 -0.4398499,-0.22416"
         id="path1347" />
      <path
         style="opacity:0.7;fill:url(#SVGID_24_);stroke-width:0.17282915"
         inkscape:connector-curvature="0"
         d="m 4.5746654,289.34321 c -0.049428,0.0256 -0.1648793,0.0577 -0.2207028,0.0339 -0.071898,-0.0306 -0.1142404,-0.15278 -0.097994,-0.23298 0.053577,-0.26322 0.613025,-0.16177 0.7737565,-0.12236 0.099203,0.0247 0.1296216,0.0373 0.1100918,0.17594 -0.019701,0.13826 -0.1195974,0.17749 -0.2533675,0.1991 -0.09039,0.0147 -0.4206662,0.0659 -0.4776995,-0.009"
         id="path1354" />
      <path
         style="opacity:0.7;fill:url(#SVGID_25_);stroke-width:0.17282915"
         inkscape:connector-curvature="0"
         d="m 6.0910685,289.18819 c -0.1038707,-0.0573 -0.4714785,0.0738 -0.3784963,0.27392 0.032837,0.0707 0.4182469,0.16402 0.5010317,0.0942 0.1444854,-0.12185 -0.00516,-0.39388 -0.1780134,-0.37902"
         id="path1361" />
      <path
         style="opacity:0.7;fill:url(#SVGID_26_);stroke-width:0.17282915"
         inkscape:connector-curvature="0"
         d="m 5.338397,290.38364 c -0.095229,0.0538 -0.3606942,0.17214 -0.1911489,0.31248 0.053576,0.0442 0.2001365,0.0377 0.2696135,0.0696 0.1576202,0.0726 0.3167957,0.2207 0.4916992,0.25129 0.1043886,0.0179 0.3090186,0.0156 0.394223,-0.0485 0.1600404,-0.12045 0.1615956,-0.30694 0.00503,-0.40545 -0.2188014,-0.1374 -0.7384986,-0.22053 -1.0247037,-0.1794"
         id="path1368" />
      <path
         style="opacity:0.7;fill:url(#SVGID_27_);stroke-width:0.17282915"
         inkscape:connector-curvature="0"
         d="m 8.0834426,290.31727 c -0.3556821,-0.14015 -0.9721639,0.51746 -0.290871,0.54321 0.1126844,0.004 0.3100552,0.0117 0.4102965,-0.0559 0.1030058,-0.0696 0.1182152,-0.2036 0.06101,-0.30972 -0.029728,-0.055 -0.1465587,-0.20307 -0.2246778,-0.18873"
         id="path1375" />
      <path
         style="opacity:0.7;fill:url(#SVGID_28_);stroke-width:0.17282915"
         inkscape:connector-curvature="0"
         d="m 7.2642324,291.30223 c -0.080193,-0.17732 -0.6005814,0.14017 -0.3083269,0.3479 0.1396458,0.0994 0.6479366,0.13827 0.6596886,-0.12374 0.0076,-0.17093 -0.3002041,-0.30038 -0.4398499,-0.22416"
         id="path1382" />
      <path
         id="path1398"
         d="m 4.13758,290.70752 c 0.055131,0.18441 0.4025194,0.25199 0.5616949,0.30988 0.2196662,0.0804 0.4564421,0.10872 0.6740337,0.19479 0.1213264,0.0479 0.2029015,0.0933 0.3371897,0.10871 0.090563,0.0102 0.1721378,0.0227 0.2614908,0.0463 0.1052528,0.028 0.2111973,0.0765 0.3150673,0.10214 0.1330783,0.0327 0.3188703,0.0353 0.4491829,-0.004 0.2072226,-0.0629 0.4286166,-0.0684 0.6391228,-0.1298 0.2991668,-0.0873 0.5760394,-0.19442 0.8579235,-0.32768 0.201173,-0.0952 0.315932,-0.21846 0.4773539,-0.35948 0.058586,-0.051 0.3126484,-0.26236 0.3907667,-0.27497 0.1081913,-0.0171 0,0.1908 0,0.27462 -1.724e-4,0.26564 -0.1092275,0.53767 -0.2659835,0.76011 -0.1802612,0.25578 -0.4350113,0.42982 -0.7015136,0.58468 -0.1113022,0.0644 -0.2222582,0.12392 -0.346004,0.15969 -0.209469,0.0601 -0.4562691,0.0444 -0.6738607,0.0582 -0.2761815,0.0175 -0.5553006,-0.0254 -0.8102233,-0.12737 -0.250948,-0.10024 -0.5404367,-0.11701 -0.7986439,-0.19738 -0.1190793,-0.0371 -0.2480098,-0.12426 -0.3570649,-0.18976 -0.091254,-0.0546 -0.1840629,-0.12064 -0.2701321,-0.18355 -0.1296216,-0.0949 -0.2611446,-0.19045 -0.3916304,-0.28101 -0.067058,-0.0461 -0.1291036,-0.0684 -0.1828539,-0.13343 -0.039925,-0.0487 -0.075699,-0.0978 -0.1102648,-0.15071 -0.04528,-0.0688 -0.126511,-0.17801 -0.055478,-0.25595"
         inkscape:connector-curvature="0"
         style="fill:url(#SVGID_30_);stroke-width:0.17282915" />
    </g>
  </g>
</svg>
