<?xml version="1.0" encoding="UTF-8" standalone="no"?>
<!-- Created with Inkscape (http://www.inkscape.org/) -->

<svg
   xmlns:dc="http://purl.org/dc/elements/1.1/"
   xmlns:cc="http://creativecommons.org/ns#"
   xmlns:rdf="http://www.w3.org/1999/02/22-rdf-syntax-ns#"
   xmlns:svg="http://www.w3.org/2000/svg"
   xmlns="http://www.w3.org/2000/svg"
   xmlns:xlink="http://www.w3.org/1999/xlink"
   xmlns:sodipodi="http://sodipodi.sourceforge.net/DTD/sodipodi-0.dtd"
   xmlns:inkscape="http://www.inkscape.org/namespaces/inkscape"
   width="48"
   height="48"
   viewBox="0 0 12.7 12.7"
   version="1.1"
   id="svg8"
   inkscape:version="0.92.3 (2405546, 2018-03-11)"
   sodipodi:docname="llum.svg"
   inkscape:export-filename="/home/quique/baikonur.png"
   inkscape:export-xdpi="96"
   inkscape:export-ydpi="96">
  <defs
     id="defs2">
    <linearGradient
       inkscape:collect="always"
       id="linearGradient1860">
      <stop
         style="stop-color:#232629;stop-opacity:0.46575344"
         offset="0"
         id="stop1856" />
      <stop
         style="stop-color:#232629;stop-opacity:0;"
         offset="1"
         id="stop1858" />
    </linearGradient>
    <linearGradient
       inkscape:collect="always"
       id="linearGradient1183">
      <stop
         style="stop-color:#fdbc4b;stop-opacity:1;"
         offset="0"
         id="stop1179" />
      <stop
         style="stop-color:#ed9703;stop-opacity:1"
         offset="1"
         id="stop1181" />
    </linearGradient>
    <linearGradient
       gradientUnits="userSpaceOnUse"
       y2="523.798"
       x2="428.571"
       y1="523.798"
       x1="388.571"
       id="linearGradient4205"
       xlink:href="#d"
       gradientTransform="translate(-0.13681623,0.08656289)" />
    <linearGradient
       id="d"
       y1="537.6"
       x1="400.57"
       y2="546.58"
       x2="392.9"
       gradientUnits="userSpaceOnUse"
       gradientTransform="matrix(1.25 0 0 1.26667-92.14-151.08)">
      <stop
         id="stop1129"
         stop-color="#ffc35a" />
      <stop
         id="stop1131"
         offset="1"
         stop-color="#faae2a" />
    </linearGradient>
    <linearGradient
       id="f"
       y1="535.36"
       x1="390.57"
       y2="540.75"
       x2="386.57"
       gradientUnits="userSpaceOnUse"
       gradientTransform="matrix(1.25,0,0,1.26667,-92.14,-151.08)">
      <stop
         id="stop1134"
         stop-color="#fdbc4b" />
      <stop
         id="stop1136"
         offset="1"
         stop-color="#dde341" />
    </linearGradient>
    <linearGradient
       xlink:href="#f"
       gradientTransform="translate(395.10346,494.86111)"
       gradientUnits="userSpaceOnUse"
       x2="31"
       y2="31"
       x1="13"
       y1="13"
       id="c-5">
      <stop
         id="stop1139"
         stop-color="#383e51" />
      <stop
         id="stop1141"
         stop-opacity="0"
         stop-color="#655c6f"
         offset="1" />
    </linearGradient>
    <linearGradient
       inkscape:collect="always"
       xlink:href="#linearGradient1183"
       id="linearGradient1185"
       x1="5.3247395"
       y1="289.26089"
       x2="9.2934895"
       y2="295.14789"
       gradientUnits="userSpaceOnUse"
       gradientTransform="matrix(0.95238094,0,0,0.95238094,0.3023813,13.840463)" />
    <linearGradient
       id="rect3438-6-0-6-7-2_60_-80"
       gradientUnits="userSpaceOnUse"
       x1="-460.2334"
       y1="370.53909"
       x2="-460.2334"
       y2="666.56842"
       gradientTransform="matrix(0.19734331,0,0,-0.19823545,44.540648,344.02909)">
      <stop
         offset="0"
         style="stop-color:#000000"
         id="stop29185" />
      <stop
         offset="1"
         style="stop-color:#000000;stop-opacity:0.5882"
         id="stop29187" />
    </linearGradient>
    <linearGradient
       id="rect3438-6-0-1-1_60_-262"
       gradientUnits="userSpaceOnUse"
       x1="-452.13281"
       y1="371.53421"
       x2="-452.13281"
       y2="668.2168"
       gradientTransform="matrix(0.19561848,0,0,-0.19662959,42.162318,343.25799)">
      <stop
         offset="0"
         style="stop-color:#000000"
         id="stop29191" />
      <stop
         offset="1"
         style="stop-color:#000000;stop-opacity:0.5882"
         id="stop29193" />
    </linearGradient>
    <linearGradient
       gradientUnits="userSpaceOnUse"
       x2="0"
       y2="503.8"
       y1="543.8"
       id="a">
      <stop
         id="stop1731"
         stop-color="#197cf1" />
      <stop
         id="stop1733"
         stop-color="#20bcfa"
         offset="1" />
    </linearGradient>
    <linearGradient
       gradientUnits="userSpaceOnUse"
       x2="39.28"
       y2="36.633"
       x1="22.285"
       y1="18.71"
       id="b">
      <stop
         id="stop1736"
         stop-color="#292c2f" />
      <stop
         id="stop1738"
         stop-opacity="0"
         stop-color="#292c2f"
         offset="1" />
    </linearGradient>
    <linearGradient
       inkscape:collect="always"
       xlink:href="#linearGradient1860"
       id="linearGradient1862"
       x1="6.6184974"
       y1="291.72723"
       x2="10.654534"
       y2="293.41229"
       gradientUnits="userSpaceOnUse" />
    <linearGradient
       inkscape:collect="always"
       xlink:href="#linearGradient1860"
       id="linearGradient1872"
       gradientUnits="userSpaceOnUse"
       x1="8.0863285"
       y1="286.77216"
       x2="8.9048834"
       y2="287.51633" />
    <linearGradient
       inkscape:collect="always"
       xlink:href="#linearGradient1860"
       id="linearGradient1880"
       x1="9.2468557"
       y1="287.93793"
       x2="9.6963234"
       y2="288.77301"
       gradientUnits="userSpaceOnUse" />
  </defs>
  <sodipodi:namedview
     id="base"
     pagecolor="#ffffff"
     bordercolor="#666666"
     borderopacity="1.0"
     inkscape:pageopacity="0.0"
     inkscape:pageshadow="2"
     inkscape:zoom="8"
     inkscape:cx="-3.63369"
     inkscape:cy="8.3108028"
     inkscape:document-units="px"
     inkscape:current-layer="layer1"
     showgrid="false"
     units="px"
     inkscape:showpageshadow="false"
     showguides="true"
     inkscape:guide-bbox="true"
     inkscape:window-width="1920"
     inkscape:window-height="949"
     inkscape:window-x="0"
     inkscape:window-y="36"
     inkscape:window-maximized="1"
     inkscape:snap-global="false">
    <sodipodi:guide
       position="6.35,11.641667"
       orientation="0,1"
       id="guide815"
       inkscape:locked="false"
       inkscape:label=""
       inkscape:color="rgb(0,0,255)" />
    <sodipodi:guide
       position="6.35,1.0583333"
       orientation="0,1"
       id="guide817"
       inkscape:locked="false"
       inkscape:label=""
       inkscape:color="rgb(0,0,255)" />
    <sodipodi:guide
       position="1.0583333,6.35"
       orientation="1,0"
       id="guide819"
       inkscape:locked="false"
       inkscape:label=""
       inkscape:color="rgb(0,0,255)" />
    <sodipodi:guide
       position="11.641667,6.35"
       orientation="1,0"
       id="guide821"
       inkscape:locked="false"
       inkscape:label=""
       inkscape:color="rgb(0,0,255)" />
    <sodipodi:guide
       position="11.889714,7.830013"
       orientation="0.70710678,0.70710678"
       id="guide886"
       inkscape:locked="false"
       inkscape:label=""
       inkscape:color="rgb(0,0,255)" />
  </sodipodi:namedview>
  <metadata
     id="metadata5">
    <rdf:RDF>
      <cc:Work
         rdf:about="">
        <dc:format>image/svg+xml</dc:format>
        <dc:type
           rdf:resource="http://purl.org/dc/dcmitype/StillImage" />
        <dc:title />
      </cc:Work>
    </rdf:RDF>
  </metadata>
  <g
     inkscape:label="Capa 1"
     inkscape:groupmode="layer"
     id="layer1"
     transform="translate(0,-284.29998)">
    <circle
       style="opacity:1;fill:url(#linearGradient1185);fill-opacity:1;stroke:none;stroke-width:0.09654436;stroke-miterlimit:4;stroke-dasharray:none;stroke-opacity:1"
       id="path1177"
       cx="6.3499999"
       cy="290.64999"
       r="5.2916665" />
    <path
       style="fill:url(#linearGradient1880);stroke:none;stroke-width:0.26458332px;stroke-linecap:butt;stroke-linejoin:miter;stroke-opacity:1;fill-opacity:1"
       d="m 8.7672988,288.47676 1.3357832,-1.09093 0.858281,0.87103 -1.313243,1.10955 z"
       id="path1811"
       inkscape:connector-curvature="0"
       sodipodi:nodetypes="ccccc" />
    <path
       style="fill:url(#linearGradient1872);stroke:none;stroke-width:0.26458332px;stroke-linecap:butt;stroke-linejoin:miter;stroke-opacity:1;fill-opacity:1"
       d="m 7.6476616,287.58833 0.897818,-1.4768 1.1187298,1.06326 -1.2884387,1.18397 z"
       id="path1811-2"
       inkscape:connector-curvature="0"
       sodipodi:nodetypes="ccccc" />
    <path
       style="opacity:1;fill:url(#linearGradient1862);fill-opacity:1;stroke:none;stroke-width:0.09654436;stroke-miterlimit:4;stroke-dasharray:none;stroke-opacity:1"
       d="m 7.9583625,288.47737 -0.5048787,2.63033 -1.8743041,2.57142 0.1777669,0.17725 -0.2356445,0.22531 0.2346108,0.23978 -0.053743,0.47025 1.1265463,1.12758 a 5.2916663,5.2916663 0 0 0 4.8141748,-5.26583 5.2916663,5.2916663 0 0 0 -0.04651,-0.64595 l -0.738973,-0.73639 -1.5792309,0.5271 z"
       id="path1177-3"
       inkscape:connector-curvature="0" />
    <path
       style="fill:#ffffff;stroke-width:0.19523229"
       d="M 24.039062 4.71875 C 23.648598 4.71875 23.257812 5.0119429 23.257812 5.5976562 L 23.257812 10.673828 C 23.257812 11.454754 24.820312 11.454754 24.820312 10.673828 L 24.820312 5.5976562 C 24.820312 5.0119429 24.429527 4.71875 24.039062 4.71875 z M 31.673828 6.6992188 C 31.492287 6.7359274 31.323145 6.8479323 31.205078 7.0585938 C 30.375731 8.5394126 29.54419 10.021134 28.714844 11.501953 C 28.242967 12.344599 29.551366 13.077021 30.023438 12.234375 C 30.85298 10.753329 31.681786 9.2718723 32.511719 7.7910156 C 32.865626 7.158918 32.218453 6.5890928 31.673828 6.6992188 z M 16.265625 6.7734375 C 15.80901 6.8562176 15.408324 7.3403922 15.703125 7.8671875 C 16.533252 9.3480064 17.363622 10.827548 18.193359 12.308594 C 18.665431 13.151202 19.972072 12.418666 19.5 11.576172 C 18.670848 10.095315 17.841261 8.6156223 17.011719 7.1347656 C 16.834692 6.8187877 16.539594 6.7237694 16.265625 6.7734375 z M 37.890625 11.525391 C 37.708946 11.489744 37.508028 11.52833 37.318359 11.677734 C 35.984142 12.727687 34.650428 13.778172 33.316406 14.828125 C 32.557538 15.425555 33.485271 16.601147 34.244141 16.003906 C 35.577968 14.953765 36.912267 13.903468 38.246094 12.853516 C 38.815245 12.405301 38.435662 11.632331 37.890625 11.525391 z M 10.326172 11.599609 C 9.780943 11.70655 9.4015522 12.481473 9.9707031 12.929688 C 11.30453 13.97964 12.638634 15.028134 13.972656 16.078125 C 14.731134 16.675895 15.65711 15.500152 14.898438 14.902344 C 13.56461 13.852391 12.230116 12.801906 10.896484 11.751953 C 10.70667 11.602548 10.507915 11.563963 10.326172 11.599609 z M 23.875 13.578125 C 19.177906 13.578125 15.363281 17.400535 15.363281 22.097656 C 15.363281 23.640573 15.867427 25.120478 16.449219 26.396484 C 16.893568 27.720944 18.341797 29.962891 18.341797 29.962891 C 18.341797 29.962891 20.320313 33.010502 20.798828 34.775391 C 20.815609 34.836241 20.841226 35.042724 20.875 35.082031 C 20.928688 35.206 21.033847 35.46875 21.171875 35.46875 L 23.835938 35.46875 L 24.359375 35.46875 L 27.056641 35.46875 C 27.194083 35.46875 27.297485 35.205886 27.351562 35.082031 C 27.385351 35.042724 27.413288 34.910838 27.429688 34.849609 C 27.908397 33.084494 29.886719 30.001953 29.886719 30.001953 C 29.886719 30.001953 31.334948 27.738522 31.779297 26.414062 C 32.361089 25.138018 32.855469 23.650338 32.855469 22.107422 C 32.854688 17.410527 29.033031 13.578125 24.335938 13.578125 C 24.259209 13.578125 24.185321 13.579688 24.109375 13.582031 C 24.032454 13.579688 23.953875 13.578125 23.875 13.578125 z M 40.421875 18.609375 C 38.746199 18.881123 37.070015 19.154222 35.394531 19.425781 C 34.441017 19.580364 34.68125 21.058917 35.634766 20.904297 C 37.310444 20.632927 38.98604 20.35945 40.662109 20.087891 C 41.615038 19.933686 41.375404 18.454944 40.421875 18.609375 z M 7.7949219 18.685547 C 6.8414075 18.530964 6.6015651 20.009442 7.5546875 20.164062 C 9.2303664 20.435811 10.906353 20.706919 12.582031 20.978516 C 13.535546 21.133476 13.77363 19.654809 12.820312 19.5 C 11.144634 19.22863 9.4706007 18.957144 7.7949219 18.685547 z M 21.542969 18.974609 C 22.360602 18.974609 23.023437 19.809028 23.023438 20.837891 C 23.023438 21.867169 22.360406 22.701172 21.542969 22.701172 C 20.725141 22.701588 20.0625 21.867169 20.0625 20.837891 L 20.0625 20.835938 C 20.0625 20.832158 20.0625 20.826045 20.0625 20.822266 C 20.801259 20.755746 21.355469 20.487868 21.355469 20.167969 C 21.355469 19.908315 20.989819 19.683573 20.457031 19.572266 C 20.727233 19.204518 21.113653 18.974609 21.542969 18.974609 z M 27.164062 18.974609 C 27.981696 18.974609 28.625 19.76857 28.625 20.75 C 28.624805 21.731846 27.938727 22.527344 27.121094 22.527344 C 26.303266 22.527344 25.601563 21.731657 25.601562 20.75 L 25.601562 20.736328 C 26.187259 20.67321 26.933594 20.416638 26.933594 20.111328 C 26.933594 19.863391 26.61228 19.650938 26.080078 19.544922 C 26.350084 19.194182 26.734747 18.974609 27.164062 18.974609 z M 27.189453 23.939453 C 27.189453 23.939453 27.186468 23.971825 27.177734 24.025391 C 27.172906 24.055159 27.16529 24.086507 27.158203 24.126953 C 27.151778 24.16815 27.144138 24.216932 27.128906 24.267578 C 27.11564 24.319358 27.09981 24.375138 27.082031 24.4375 C 27.064645 24.500996 27.035731 24.565286 27.009766 24.636719 C 26.984783 24.708908 26.947642 24.78032 26.910156 24.857422 C 26.87444 24.935658 26.828688 25.01249 26.779297 25.09375 C 26.732442 25.1769 26.669507 25.253985 26.609375 25.337891 C 26.580273 25.380977 26.543147 25.418543 26.507812 25.458984 C 26.47168 25.498669 26.437484 25.541968 26.398438 25.582031 C 26.242056 25.740393 26.057141 25.892137 25.845703 26.023438 C 25.738327 26.085422 25.627491 26.146935 25.507812 26.195312 C 25.390674 26.250872 25.265966 26.289888 25.138672 26.326172 C 24.883505 26.400629 24.610827 26.428805 24.341797 26.425781 C 24.072377 26.418222 23.804195 26.378513 23.554688 26.296875 C 23.491237 26.281757 23.429859 26.254343 23.369141 26.232422 L 23.279297 26.199219 L 23.191406 26.158203 C 23.134203 26.131746 23.075369 26.105589 23.021484 26.074219 C 22.966817 26.043983 22.914041 26.013036 22.861328 25.982422 C 22.654966 25.850894 22.468687 25.706687 22.314453 25.550781 C 22.156121 25.398466 22.028666 25.238063 21.919922 25.085938 C 21.81391 24.931355 21.727121 24.785509 21.662109 24.650391 C 21.628547 24.583871 21.597452 24.520591 21.574219 24.458984 C 21.549614 24.398512 21.526551 24.342859 21.507812 24.292969 C 21.472474 24.193567 21.454292 24.113019 21.4375 24.058594 C 21.422646 24.004547 21.416016 23.972656 21.416016 23.972656 C 21.416016 23.972656 21.438283 23.991628 21.478516 24.033203 C 21.517951 24.073266 21.577766 24.132197 21.652344 24.207031 C 21.730047 24.276953 21.81157 24.365189 21.919922 24.457031 C 22.022222 24.552275 22.140871 24.653875 22.271484 24.757812 C 22.404437 24.859482 22.548308 24.964169 22.707031 25.060547 C 22.861656 25.162216 23.034449 25.248062 23.210938 25.330078 C 23.389573 25.407936 23.577228 25.469578 23.769531 25.517578 C 23.817754 25.528917 23.874827 25.570693 23.923828 25.582031 C 23.97283 25.58959 24.056467 25.59791 24.105469 25.605469 C 24.30485 25.624366 24.641325 25.597023 24.919922 25.578125 C 25.016489 25.535416 25.142447 25.513161 25.230469 25.474609 C 25.324182 25.448153 25.411755 25.405551 25.501953 25.373047 C 25.676099 25.294811 25.839906 25.202539 25.992188 25.103516 C 26.142322 25.001846 26.28384 24.895518 26.40625 24.785156 C 26.437469 24.7587 26.467981 24.731157 26.498047 24.705078 C 26.527905 24.678621 26.55353 24.648748 26.582031 24.623047 C 26.637477 24.570133 26.690252 24.518576 26.736328 24.466797 C 26.78299 24.415773 26.829705 24.368376 26.869141 24.322266 C 26.908969 24.275399 26.947281 24.231911 26.980469 24.193359 C 27.047824 24.115501 27.096499 24.049702 27.132812 24.005859 C 27.169512 23.962017 27.189453 23.939453 27.189453 23.939453 z M 35.173828 24.423828 C 34.491094 24.557212 34.330147 25.698188 35.152344 25.892578 C 36.804594 26.283041 38.457124 26.671848 40.109375 27.0625 C 41.049419 27.284358 41.39318 25.82744 40.453125 25.605469 C 38.800682 25.215006 37.149907 24.824057 35.498047 24.433594 C 35.380566 24.405861 35.271362 24.404773 35.173828 24.423828 z M 13.041016 24.498047 C 12.943482 24.478995 12.836231 24.482014 12.71875 24.509766 C 11.06689 24.900229 9.413384 25.289225 7.7617188 25.679688 C 6.8216754 25.901546 7.1673763 27.360833 8.1074219 27.138672 C 9.7594776 26.748171 11.410249 26.357033 13.0625 25.966797 C 13.884696 25.772671 13.723751 24.631412 13.041016 24.498047 z M 21.494141 36.054688 C 20.517979 36.054688 20.517979 37.224609 21.494141 37.224609 L 26.763672 37.224609 C 27.349369 37.224609 27.349369 36.054688 26.763672 36.054688 L 21.494141 36.054688 z M 26.796875 37.738281 C 26.772081 37.735333 26.745301 37.810547 26.71875 37.810547 L 21.404297 37.810547 L 21.402344 37.810547 C 20.804738 37.810547 20.330478 38.773439 21.306641 38.779297 L 21.349609 38.988281 C 21.345301 39.710058 22.142973 40.267201 23.103516 40.273438 L 25.029297 40.285156 C 25.989645 40.292715 26.778713 39.74345 26.783203 39.021484 L 26.787109 38.8125 C 27.439966 38.747492 27.444257 37.810697 26.796875 37.738281 z "
       transform="matrix(0.26458333,0,0,0.26458333,0,284.29998)"
       id="XMLID_1342_" />
    <path
       style="opacity:1;fill:#e38b0c;fill-opacity:1;stroke:none;stroke-width:0.09654436;stroke-miterlimit:4;stroke-dasharray:none;stroke-opacity:1"
       d="m 11.633914,290.43308 a 5.2916663,5.2916663 0 0 1 -5.2839157,5.1387 5.2916663,5.2916663 0 0 1 -5.2839152,-5.07928 5.2916663,5.2916663 0 0 0 -0.00775,0.15297 5.2916663,5.2916663 0 0 0 5.2916667,5.29166 5.2916663,5.2916663 0 0 0 5.2916672,-5.29166 5.2916663,5.2916663 0 0 0 -0.0078,-0.21239 z"
       id="path1177-5"
       inkscape:connector-curvature="0" />
  </g>
</svg>
