<?xml version="1.0" encoding="UTF-8" standalone="no"?>
<!-- Created with Vectornator for iOS (http://vectornator.io/) -->

<svg
   xmlns:vectornator="http://vectornator.io"
   xmlns:dc="http://purl.org/dc/elements/1.1/"
   xmlns:cc="http://creativecommons.org/ns#"
   xmlns:rdf="http://www.w3.org/1999/02/22-rdf-syntax-ns#"
   xmlns:svg="http://www.w3.org/2000/svg"
   xmlns="http://www.w3.org/2000/svg"
   xmlns:sodipodi="http://sodipodi.sourceforge.net/DTD/sodipodi-0.dtd"
   xmlns:inkscape="http://www.inkscape.org/namespaces/inkscape"
   height="48"
   style="clip-rule:evenodd;fill-rule:evenodd;stroke-linecap:round;stroke-linejoin:round"
   xml:space="preserve"
   width="48"
   version="1.1"
   viewBox="0 0 16272 16272"
   id="svg1033"
   sodipodi:docname="logo-color.svg"
   inkscape:version="0.92.5 (2060ec1f9f, 2020-04-08)"><sodipodi:namedview
   pagecolor="#ffffff"
   bordercolor="#666666"
   borderopacity="1"
   objecttolerance="10"
   gridtolerance="10"
   guidetolerance="10"
   inkscape:pageopacity="0"
   inkscape:pageshadow="2"
   inkscape:window-width="1920"
   inkscape:window-height="901"
   id="namedview1035"
   showgrid="false"
   units="px"
   inkscape:zoom="7.87621"
   inkscape:cx="2.9632224"
   inkscape:cy="19.096266"
   inkscape:window-x="0"
   inkscape:window-y="32"
   inkscape:window-maximized="1"
   inkscape:current-layer="svg1033" />
<metadata
   id="metadata1015">
<vectornator:setting
   key="DisplayWhiteBackground"
   value="0" />
<vectornator:setting
   key="RulersVisible"
   value="1" />
<vectornator:setting
   key="Units"
   value="Pixels" />
<vectornator:setting
   key="New"
   value="1" />
<vectornator:setting
   key="DynamicGuides"
   value="0" />
<vectornator:setting
   key="GuidesVisible"
   value="1" />
<vectornator:setting
   key="SnapToPoints"
   value="0" />
<vectornator:setting
   key="SnapToGrid"
   value="0" />
<vectornator:setting
   key="SnapToGuides"
   value="1" />
<vectornator:setting
   key="DimensionsVisible"
   value="1" />
<vectornator:setting
   key="SnapToEdges"
   value="0" />
<rdf:RDF><cc:Work
     rdf:about=""><dc:format>image/svg+xml</dc:format><dc:type
       rdf:resource="http://purl.org/dc/dcmitype/StillImage" /><dc:title></dc:title></cc:Work></rdf:RDF></metadata>
<defs
   id="defs1022">
<linearGradient
   y1="648.211"
   id="LinearGradient"
   x1="387.04401"
   y2="430.45901"
   x2="168.037"
   gradientUnits="userSpaceOnUse"
   gradientTransform="matrix(1.07381,0,0,1.07381,-125.542,-412.757)">
<stop
   stop-color="#3498db"
   offset="0"
   id="stop1017" />
<stop
   stop-color="#1abc9c"
   offset="1"
   id="stop1019" />
</linearGradient>
</defs>
<g
   id="Ebene 1"
   vectornator:layerName="Ebene 1"
   transform="matrix(46.077475,0,0,46.077475,325.86803,325.86803)">
<g
   id="g1030"
   style="opacity:1">
<path
   d="M 0.284998,169.5 C 0.284998,76.0451 76.0451,0.284998 169.5,0.284998 c 93.455,0 169.215,75.760102 169.215,169.215002 0,93.455 -75.76,169.215 -169.215,169.215 C 76.0451,338.715 0.284998,262.955 0.284998,169.5 Z"
   id="path1024"
   inkscape:connector-curvature="0"
   style="opacity:1;fill:url(#LinearGradient)" />
<path
   d="M 169.5,33.7847 83.6525,83.349 v 99.129 L 169.5,232.042 255.347,182.478 V 83.349 Z m 61.488,72.5463 c 1.704,-0.023 3.346,0.579 4.552,1.67 1.206,1.091 1.873,2.578 1.848,4.121 v 0.51 c 0.038,2.063 -1.155,3.983 -3.121,5.025 -1.966,1.041 -4.4,1.041 -6.366,0 -1.966,-1.042 -3.16,-2.962 -3.122,-5.025 v -0.51 c -0.049,-3.151 2.729,-5.743 6.209,-5.791 z m -123.677,0.545 c 1.42,-0.019 2.788,0.484 3.792,1.393 1.005,0.909 1.56,2.148 1.54,3.434 v 33.724 h 18.802 c 2.903,0 5.255,2.131 5.255,4.759 0,2.628 -2.352,4.759 -5.255,4.759 h -24.056 c -2.902,-0.001 -5.255,-2.132 -5.254,-4.76 v -38.482 c -0.042,-2.627 2.275,-4.788 5.176,-4.827 z M 231.004,119.3 c 1.42,-0.019 2.789,0.483 3.794,1.392 1.004,0.909 1.56,2.148 1.54,3.434 v 26.008 c 0.031,1.719 -0.963,3.319 -2.602,4.187 -1.638,0.868 -3.666,0.868 -5.305,0 -1.638,-0.868 -2.633,-2.468 -2.601,-4.187 v -26.008 c -0.042,-2.626 2.274,-4.786 5.174,-4.826 z m -67.922,0.235 c 1.42,-0.02 2.788,0.482 3.793,1.391 1.005,0.908 1.561,2.147 1.541,3.433 v 16.654 c 0.068,0.781 0.185,3.545 -1.336,6.605 -1.78,3.583 -6.818,7.327 -13.9,7.327 -6.898,0 -11.837,-3.698 -13.615,-7.194 -1.556,-3.059 -1.465,-5.829 -1.416,-6.508 v -16.515 c -0.049,-1.729 0.941,-3.345 2.587,-4.222 1.645,-0.877 3.686,-0.877 5.331,0 1.646,0.877 2.636,2.493 2.587,4.222 v 16.791 l -0.015,0.185 c 0,0 -0.005,1.133 0.468,2.065 0.474,0.932 0.422,1.66 4.073,1.66 3.898,0 3.853,-0.778 4.318,-1.715 0.466,-0.937 0.436,-2.094 0.436,-2.094 l -0.026,-0.236 v -17.025 c -0.04,-2.626 2.275,-4.784 5.174,-4.824 z m 23.684,0.013 c 4.021,0 7.371,1.261 9.824,3.002 2.493,-1.748 5.899,-3.002 9.994,-3.002 6.897,0 11.837,3.7 13.615,7.196 1.556,3.058 1.464,5.827 1.416,6.505 v 16.516 c 0.032,1.719 -0.963,3.319 -2.601,4.187 -1.639,0.868 -3.667,0.868 -5.305,0 -1.639,-0.868 -2.633,-2.468 -2.602,-4.187 v -16.791 l 0.016,-0.186 c 0,0 0.007,-1.132 -0.467,-2.064 -0.474,-0.932 -0.422,-1.66 -4.072,-1.66 -3.898,0 -3.853,0.778 -4.318,1.715 -0.466,0.937 -0.436,2.093 -0.436,2.093 l 0.025,0.237 v 17.025 c 0.003,2.509 -2.146,4.588 -4.911,4.752 -2.764,0.164 -5.194,-1.643 -5.553,-4.131 -0.072,-0.326 -0.106,-0.658 -0.102,-0.99 v -16.791 l 0.016,-0.186 c 0,0 0.007,-1.132 -0.467,-2.064 -0.474,-0.932 -0.422,-1.66 -4.072,-1.66 -3.898,0 -3.851,0.778 -4.317,1.715 -0.465,0.937 -0.437,2.093 -0.437,2.093 l 0.025,0.237 v 17.025 c 0.032,1.719 -0.963,3.319 -2.601,4.187 -1.639,0.868 -3.667,0.868 -5.305,0 -1.639,-0.868 -2.633,-2.468 -2.602,-4.187 v -16.642 c -0.067,-0.761 -0.193,-3.54 1.336,-6.618 1.781,-3.583 6.818,-7.326 13.901,-7.326 z"
   id="path1026"
   inkscape:connector-curvature="0"
   style="opacity:1;fill:#ffffff" />
<path
   d="m 120.547,223.483 -0.887,0.512 v 57.549 l 49.84,28.775 49.84,-28.775 v -57.549 l -0.887,-0.512 -48.953,28.262 c 0,0 -48.953,-28.262 -48.953,-28.262 z"
   id="path1028"
   inkscape:connector-curvature="0"
   style="opacity:1;fill:#ffffff" />
</g>
</g>
</svg>