<?xml version="1.0" encoding="UTF-8" standalone="no"?>
<!-- Created with Inkscape (http://www.inkscape.org/) -->

<svg
   xmlns:dc="http://purl.org/dc/elements/1.1/"
   xmlns:cc="http://creativecommons.org/ns#"
   xmlns:rdf="http://www.w3.org/1999/02/22-rdf-syntax-ns#"
   xmlns:svg="http://www.w3.org/2000/svg"
   xmlns="http://www.w3.org/2000/svg"
   xmlns:xlink="http://www.w3.org/1999/xlink"
   xmlns:sodipodi="http://sodipodi.sourceforge.net/DTD/sodipodi-0.dtd"
   xmlns:inkscape="http://www.inkscape.org/namespaces/inkscape"
   width="48"
   height="48"
   viewBox="0 0 12.7 12.7"
   version="1.1"
   id="svg8"
   inkscape:version="0.92.3 (2405546, 2018-03-11)"
   sodipodi:docname="openboard.svg"
   inkscape:export-filename="/home/quique/baikonur.png"
   inkscape:export-xdpi="96"
   inkscape:export-ydpi="96">
  <defs
     id="defs2">
    <linearGradient
       inkscape:collect="always"
       id="linearGradient895">
      <stop
         style="stop-color:#fcfcfc;stop-opacity:1"
         offset="0"
         id="stop891" />
      <stop
         style="stop-color:#eff0f1;stop-opacity:1"
         offset="1"
         id="stop893" />
    </linearGradient>
    <linearGradient
       gradientUnits="userSpaceOnUse"
       x2="407.69"
       y2="504.13"
       x1="407.63"
       y1="543.77"
       id="a"
       gradientTransform="matrix(0.26458333,0,0,0.26458333,-125.89444,164.69469)">
      <stop
         id="stop818"
         stop-color="#c6cdd1" />
      <stop
         id="stop820"
         stop-color="#e0e5e7"
         offset="1" />
    </linearGradient>
    <linearGradient
       gradientUnits="userSpaceOnUse"
       x2="401.92"
       y2="532.44"
       x1="401.58"
       y1="513.81"
       id="b"
       gradientTransform="matrix(0.26458333,0,0,0.26458333,-101.75121,152.06084)">
      <stop
         id="stop823"
         stop-color="#9559b6" />
      <stop
         id="stop825"
         stop-color="#8e44ad"
         offset="1" />
    </linearGradient>
    <linearGradient
       gradientUnits="userSpaceOnUse"
       x2="417.53"
       y2="533.46"
       x1="417.87"
       y1="516.47"
       id="c"
       gradientTransform="matrix(0.26458333,0,0,0.26458333,-101.75121,152.06084)">
      <stop
         id="stop828"
         stop-color="#1d99f3" />
      <stop
         id="stop830"
         stop-color="#2972a7"
         offset="1" />
    </linearGradient>
    <linearGradient
       gradientUnits="userSpaceOnUse"
       x2="38.26"
       y2="35.796"
       x1="29.439"
       y1="26.03"
       id="d"
       gradientTransform="matrix(0.26458333,0,0,0.26458333,5.5393146,283.75389)">
      <stop
         id="stop833"
         stop-color="#292c2f" />
      <stop
         id="stop835"
         stop-opacity="0"
         stop-color="#292c2f"
         offset="1" />
    </linearGradient>
    <linearGradient
       gradientUnits="userSpaceOnUse"
       x2="407.69"
       y2="504.13"
       x1="407.63"
       y1="543.77002"
       id="a-1"
       gradientTransform="matrix(0.26458333,0,0,0.26458333,-98.129151,158.23851)"
       spreadMethod="pad">
      <stop
         id="stop818-2"
         stop-color="#c6cdd1" />
      <stop
         id="stop820-7"
         stop-color="#e0e5e7"
         offset="1" />
    </linearGradient>
    <linearGradient
       inkscape:collect="always"
       xlink:href="#linearGradient895"
       id="linearGradient897"
       x1="4.0183592"
       y1="288.1199"
       x2="5.953125"
       y2="290.02161"
       gradientUnits="userSpaceOnUse" />
  </defs>
  <sodipodi:namedview
     id="base"
     pagecolor="#ffffff"
     bordercolor="#666666"
     borderopacity="1.0"
     inkscape:pageopacity="0.0"
     inkscape:pageshadow="2"
     inkscape:zoom="2.0000001"
     inkscape:cx="-198.61785"
     inkscape:cy="50.69309"
     inkscape:document-units="px"
     inkscape:current-layer="layer1"
     showgrid="false"
     units="px"
     inkscape:showpageshadow="false"
     showguides="true"
     inkscape:guide-bbox="true"
     inkscape:window-width="1920"
     inkscape:window-height="1009"
     inkscape:window-x="0"
     inkscape:window-y="0"
     inkscape:window-maximized="1"
     inkscape:snap-global="false">
    <sodipodi:guide
       position="6.35,11.641667"
       orientation="0,1"
       id="guide815"
       inkscape:locked="false"
       inkscape:label=""
       inkscape:color="rgb(0,0,255)" />
    <sodipodi:guide
       position="6.35,1.0583333"
       orientation="0,1"
       id="guide817"
       inkscape:locked="false"
       inkscape:label=""
       inkscape:color="rgb(0,0,255)" />
    <sodipodi:guide
       position="1.0583333,6.35"
       orientation="1,0"
       id="guide819"
       inkscape:locked="false"
       inkscape:label=""
       inkscape:color="rgb(0,0,255)" />
    <sodipodi:guide
       position="11.641667,6.35"
       orientation="1,0"
       id="guide821"
       inkscape:locked="false"
       inkscape:label=""
       inkscape:color="rgb(0,0,255)" />
    <sodipodi:guide
       position="4.8964611,2.0053566"
       orientation="0.70710678,0.70710678"
       id="guide886"
       inkscape:locked="false"
       inkscape:label=""
       inkscape:color="rgb(0,0,255)" />
  </sodipodi:namedview>
  <metadata
     id="metadata5">
    <rdf:RDF>
      <cc:Work
         rdf:about="">
        <dc:format>image/svg+xml</dc:format>
        <dc:type
           rdf:resource="http://purl.org/dc/dcmitype/StillImage" />
        <dc:title />
      </cc:Work>
    </rdf:RDF>
  </metadata>
  <g
     inkscape:label="Capa 1"
     inkscape:groupmode="layer"
     id="layer1"
     transform="translate(0,-284.29998)">
    <path
       inkscape:connector-curvature="0"
       id="path4161-7"
       d="m 10.514258,287.07875 c 0.225597,0.004 0.602837,0.28214 0.73717,0.55065 0.04047,0.0808 0.08434,0.2123 0.09783,0.29301 0.0175,0.10465 0.02269,0.7842 0.01828,2.38845 -0.0062,2.23418 -0.0064,2.24254 -0.05222,2.3624 -0.119927,0.31321 -0.322738,0.51703 -0.640527,0.64372 l -0.128732,0.0513 -1.5135066,0.007 -1.513505,0.007 -1.275675,1.27582 c -0.70162,0.70169 -1.282945,1.2758 -1.291833,1.2758 -0.0089,0 -0.01631,-0.5624 -0.01649,-1.2498 h 4.6e-5 c -1.65e-4,-0.6874 -0.0077,-1.26146 -0.0168,-1.27572 -0.01252,-0.0198 -0.345937,-0.0275 -1.388932,-0.0325 -1.361001,-0.007 -1.373519,-0.007 -1.499461,-0.0547 -0.351762,-0.13299 -0.613557,-0.43244 -0.677469,-0.7749 -0.02907,-0.15573 -0.02839,-4.52601 7.29e-4,-4.65833 0.07305,-0.33203 0.322793,-0.62768 0.637623,-0.75482 l 0.123219,-0.0497 3.620656,-0.005 c 1.991363,-0.003 3.620658,-2.7e-4 3.620658,0.007"
       style="fill:url(#linearGradient897);fill-opacity:1;stroke-width:0.01716459"
       sodipodi:nodetypes="cssssscccsscccssccscsc" />
    <text
       id="text842"
       y="187.03612"
       x="91.627457"
       style="font-size:3.17499995px;font-family:'Droid Sans';stroke-width:0.26458332" />
    <path
       inkscape:connector-curvature="0"
       id="path4161"
       d="m 10.514257,287.07853 c 0.225597,0.004 0.602837,0.28214 0.73717,0.55065 0.04047,0.0808 0.08434,0.2123 0.09783,0.29301 0.0175,0.10465 0.02269,0.7842 0.01828,2.38845 -0.0062,2.23418 -0.0064,2.24254 -0.05222,2.3624 -0.119927,0.31321 -0.322738,0.51703 -0.640527,0.64372 l -0.128732,0.0513 -1.5135065,0.007 -1.5135054,0.007 -1.2756747,1.27582 c -0.7016202,0.70169 -1.2829455,1.2758 -1.2918334,1.2758 -0.00889,0 -0.016307,-0.5624 -0.016488,-1.2498 h 4.59e-5 c -1.651e-4,-0.6874 -0.00774,-1.26146 -0.016801,-1.27572 -0.012517,-0.0198 -0.345937,-0.0275 -1.3889313,-0.0325 -1.3610013,-0.007 -1.3735194,-0.007 -1.4994613,-0.0547 -0.3517622,-0.13299 -0.6135566,-0.43244 -0.677469,-0.7749 -0.029067,-0.15573 -0.028389,-4.52601 7.285e-4,-4.65833 0.073045,-0.33203 0.3227939,-0.62768 0.6376233,-0.75482 l 0.1232188,-0.0497 3.6206564,-0.005 c 1.9913629,-0.003 3.6206581,-2.7e-4 3.6206581,0.007 m -0.3898093,0.568 -3.3506572,4.3e-4 c -3.1945525,4.3e-4 -3.3546636,0.003 -3.4366642,0.0395 -0.1081681,0.0491 -0.215977,0.1704 -0.2452664,0.27586 -0.015026,0.0542 -0.022548,0.80949 -0.022625,2.27245 l -1.736e-4,2.1914 0.059952,0.11478 c 0.043641,0.0835 0.088418,0.13238 0.1645841,0.17947 l 0.1046327,0.0647 1.5945566,0.007 1.5945561,0.007 0.00559,0.91493 c 0.00416,0.68314 0.012057,0.91706 0.031084,0.9234 0.014019,0.005 0.4471032,-0.40698 0.9624122,-0.91478 l 0.9369237,-0.92326 1.5479096,-0.007 c 1.7308333,-0.007 1.6045273,0.005 1.7572893,-0.16405 0.04258,-0.0471 0.08767,-0.12254 0.100182,-0.16767 0.03216,-0.11583 0.03183,-4.35123 -3.48e-4,-4.47904 -0.05048,-0.2005 -0.229847,-0.3326 -0.452773,-0.33345"
       style="fill:#31363b;fill-opacity:1;stroke-width:0.01716459"
       sodipodi:nodetypes="cssssscccsscccssccscsccssscccscccscscssssc" />
    <path
       sodipodi:nodetypes="cssssssccssssc"
       inkscape:connector-curvature="0"
       id="path4163"
       d="m 10.139337,287.67009 -0.4296721,0.74376 c -0.2363189,0.40907 -0.4972548,0.8431 -0.5798596,0.96453 -0.3338156,0.49067 -1.2012073,1.61712 -1.3944303,1.8109 -0.095396,0.0956 -0.235907,0.14957 -0.3338021,0.12806 -0.1350543,-0.0296 -0.2205974,-0.21683 -0.1724885,-0.3774 0.054217,-0.18096 0.7547474,-1.6961 0.9612613,-2.07904 0.054091,-0.10032 0.2473454,-0.40318 0.4294549,-0.67306 1.3383644,-1.96369 0.9349009,-1.3709 1.3383644,-1.96369 0.571958,-0.84092 0.580462,-0.84982 0.811439,-0.84982 0.119763,0 0.154661,0.009 0.231429,0.0613 0.09944,0.0674 0.177796,0.20276 0.177796,0.30699 0,0.10912 -0.03896,0.19 -0.357836,0.74327 -0.16901,0.29324 -0.307292,0.54534 -0.307292,0.56026"
       style="fill:#f39c1f;fill-opacity:1;stroke-width:0.01716459" />
  </g>
</svg>
