<?xml version="1.0" encoding="UTF-8" standalone="no"?>
<!-- Created with Inkscape (http://www.inkscape.org/) -->

<svg
   xmlns:dc="http://purl.org/dc/elements/1.1/"
   xmlns:cc="http://creativecommons.org/ns#"
   xmlns:rdf="http://www.w3.org/1999/02/22-rdf-syntax-ns#"
   xmlns:svg="http://www.w3.org/2000/svg"
   xmlns="http://www.w3.org/2000/svg"
   xmlns:xlink="http://www.w3.org/1999/xlink"
   xmlns:sodipodi="http://sodipodi.sourceforge.net/DTD/sodipodi-0.dtd"
   xmlns:inkscape="http://www.inkscape.org/namespaces/inkscape"
   width="48"
   height="48"
   viewBox="0 0 12.7 12.7"
   version="1.1"
   id="svg8"
   inkscape:version="0.92.3 (2405546, 2018-03-11)"
   sodipodi:docname="posterazor.svg"
   inkscape:export-filename="/home/quique/baikonur.png"
   inkscape:export-xdpi="96"
   inkscape:export-ydpi="96">
  <defs
     id="defs2">
    <linearGradient
       inkscape:collect="always"
       id="linearGradient1592">
      <stop
         style="stop-color:#bdc3c7;stop-opacity:1;"
         offset="0"
         id="stop1588" />
      <stop
         id="stop1596"
         offset="0.55963731"
         style="stop-color:#dbdfe1;stop-opacity:1" />
      <stop
         style="stop-color:#bdc3c7;stop-opacity:1"
         offset="1"
         id="stop1590" />
    </linearGradient>
    <linearGradient
       inkscape:collect="always"
       xlink:href="#linearGradient1592"
       id="linearGradient1594"
       x1="5.7831779"
       y1="288.87842"
       x2="10.178031"
       y2="288.87842"
       gradientUnits="userSpaceOnUse"
       spreadMethod="pad" />
  </defs>
  <sodipodi:namedview
     id="base"
     pagecolor="#ffffff"
     bordercolor="#666666"
     borderopacity="1.0"
     inkscape:pageopacity="0.0"
     inkscape:pageshadow="2"
     inkscape:zoom="2.8284271"
     inkscape:cx="84.469573"
     inkscape:cy="30.709878"
     inkscape:document-units="px"
     inkscape:current-layer="layer1"
     showgrid="false"
     units="px"
     inkscape:showpageshadow="false"
     showguides="true"
     inkscape:guide-bbox="true"
     inkscape:window-width="1920"
     inkscape:window-height="1009"
     inkscape:window-x="0"
     inkscape:window-y="0"
     inkscape:window-maximized="1"
     inkscape:snap-global="false">
    <sodipodi:guide
       position="6.35,11.641667"
       orientation="0,1"
       id="guide815"
       inkscape:locked="false"
       inkscape:label=""
       inkscape:color="rgb(0,0,255)" />
    <sodipodi:guide
       position="6.35,1.0583333"
       orientation="0,1"
       id="guide817"
       inkscape:locked="false"
       inkscape:label=""
       inkscape:color="rgb(0,0,255)" />
    <sodipodi:guide
       position="1.0583333,6.35"
       orientation="1,0"
       id="guide819"
       inkscape:locked="false"
       inkscape:label=""
       inkscape:color="rgb(0,0,255)" />
    <sodipodi:guide
       position="11.641667,6.35"
       orientation="1,0"
       id="guide821"
       inkscape:locked="false"
       inkscape:label=""
       inkscape:color="rgb(0,0,255)" />
    <sodipodi:guide
       position="19.737854,6.8755084"
       orientation="0.70710678,0.70710678"
       id="guide886"
       inkscape:locked="false"
       inkscape:label=""
       inkscape:color="rgb(0,0,255)" />
  </sodipodi:namedview>
  <metadata
     id="metadata5">
    <rdf:RDF>
      <cc:Work
         rdf:about="">
        <dc:format>image/svg+xml</dc:format>
        <dc:type
           rdf:resource="http://purl.org/dc/dcmitype/StillImage" />
        <dc:title />
      </cc:Work>
    </rdf:RDF>
  </metadata>
  <g
     inkscape:label="Capa 1"
     inkscape:groupmode="layer"
     id="layer1"
     transform="translate(0,-284.29998)">
    <g
       style="display:none"
       id="Capa_2-172"
       display="none"
       transform="matrix(0.19825528,0,0,0.19825528,-104.4136,218.17377)" />
    <g
       style="display:none"
       id="Capa_3-03"
       display="none"
       transform="matrix(0.19825528,0,0,0.19825528,-104.4136,218.17377)">
      <g
         style="display:inline"
         id="XMLID_2948_"
         display="inline">
        <g
           id="XMLID_3350_">
          <path
             style="fill:#d60523"
             inkscape:connector-curvature="0"
             id="XMLID_3117_"
             d="M 171.774,339.796 C 236.868,326.349 290.542,273.118 307.576,209.266 325.18,143.279 300.248,70.561 250.645,24.789 222.967,-0.752 186.533,-19.058 148.491,-20.696 110.098,-22.35 71.429,-7.028 41.195,16.004 14.276,36.511 -7.232,64.215 -19.115,95.997 c -12.412,33.2 -13.346,70.383 -3.174,104.302 10.029,33.443 30.894,62.958 60.267,82.083 28.59,18.616 63.92,27.314 97.839,22.871 8.237,-1.079 16.312,-2.946 24.2,-5.548 1.825,-0.602 1.043,-3.5 -0.797,-2.893 C 126.967,307.45 91.4,304.746 60.438,291.109 29.097,277.305 3.959,252.81 -10.78,221.908 -25.748,190.527 -30.023,154.034 -22.944,120.011 -16.03,86.782 1.809,56.481 26.077,32.939 51.695,8.086 84.852,-9.791 120.153,-15.825 c 39.924,-6.825 79.853,5.896 112.178,29.419 53.604,39.01 85.248,107.959 76.499,174.092 -8.43,63.719 -54.85,121.064 -115.267,142.882 -7.369,2.661 -14.915,4.751 -22.586,6.336 -1.89,0.39 -1.09,3.282 0.797,2.892 z" />
        </g>
      </g>
    </g>
    <path
       inkscape:connector-curvature="0"
       style="fill:url(#linearGradient1594);stroke:none;stroke-width:0.18071985;stroke-miterlimit:10;fill-opacity:1"
       id="path235"
       d="m 11.410156,288.48135 h -1.321422 l 0.405354,-1.08432 H 2.3875372 l 0.4593901,1.08432 H 1.2898442 v 4.15656 h 1.5435289 l -0.4458359,1.26503 h 8.1065508 l -0.6214958,-1.26503 h 1.5375638 z m -1.265038,3.42336 c 0,-0.28336 -0.2089128,-0.48631 -0.312103,-0.64515 0,-0.12434 -0.3777051,-0.37265 -0.3777051,-0.37265 -0.1434913,0.36939 -0.4465585,0.50693 -0.8020343,0.50693 -0.355115,0 -0.658363,-0.38223 -0.8016735,-0.74367 H 7.1914324 c -0.1433112,0.36144 -0.4492693,0.62547 -0.804926,0.62547 -0.3554763,0 -0.6614346,-0.26403 -0.8045649,-0.62547 H 4.9215909 c -0.1431301,0.36144 -0.4489082,0.74367 -0.8047452,0.74367 -0.3554764,0 -0.6616157,-0.19646 -0.8045649,-0.56656 0,0 -0.4995101,0.27831 -0.4995101,0.40264 -0.1022873,0.15922 -0.258068,0.39162 -0.4387876,0.67499 0,-0.95692 0,-1.91364 0,-2.87074 0.1807196,0.28337 0.3363199,0.48667 0.4387876,0.64553 0,0.12416 0.406801,0.37264 0.406801,0.37264 0.1227088,-0.42541 0.4805341,-0.70281 0.8685393,-0.70281 0.3880054,0 0.746192,0.39668 0.8689008,0.75812 h 0.5900506 c 0.1225283,-0.36144 0.4516191,-0.72993 0.8396244,-0.72993 0.3883672,0 0.7174577,0.36849 0.8399862,0.72993 h 0.5902309 c 0.1223474,-0.36144 0.4517995,-0.75812 0.8396243,-0.75812 0.3881863,0 0.7172767,0.29113 0.8399856,0.71636 0,0 0.3363202,-0.25535 0.3363202,-0.38004 0.1030102,-0.15831 0.312103,-0.36849 0.312103,-0.65186 1.81e-4,0.95709 1.81e-4,1.91382 1.81e-4,2.87072 z"
       stroke-miterlimit="10" />
    <path
       inkscape:connector-curvature="0"
       style="fill:none;fill-opacity:1;stroke:#7f8c8d;stroke-width:0.18071985;stroke-miterlimit:10"
       id="path235-3"
       d="m 11.410156,288.48135 h -1.321422 l 0.405354,-1.08432 H 2.3875369 l 0.45939,1.08432 H 1.2898438 v 4.15656 h 1.543529 l -0.4458359,1.26503 h 8.1065511 l -0.6214956,-1.26503 h 1.5375636 z"
       stroke-miterlimit="10"
       sodipodi:nodetypes="ccccccccccccc" />
  </g>
</svg>
