<?xml version="1.0" encoding="UTF-8" standalone="no"?>
<!-- Created with Inkscape (http://www.inkscape.org/) -->

<svg
   xmlns:dc="http://purl.org/dc/elements/1.1/"
   xmlns:cc="http://creativecommons.org/ns#"
   xmlns:rdf="http://www.w3.org/1999/02/22-rdf-syntax-ns#"
   xmlns:svg="http://www.w3.org/2000/svg"
   xmlns="http://www.w3.org/2000/svg"
   xmlns:xlink="http://www.w3.org/1999/xlink"
   xmlns:sodipodi="http://sodipodi.sourceforge.net/DTD/sodipodi-0.dtd"
   xmlns:inkscape="http://www.inkscape.org/namespaces/inkscape"
   width="48"
   height="48"
   viewBox="0 0 12.7 12.7"
   version="1.1"
   id="svg8"
   inkscape:version="0.92.3 (2405546, 2018-03-11)"
   sodipodi:docname="scite.svg"
   inkscape:export-filename="/home/quique/baikonur.png"
   inkscape:export-xdpi="96"
   inkscape:export-ydpi="96">
  <defs
     id="defs2">
    <linearGradient
       inkscape:collect="always"
       id="linearGradient1183">
      <stop
         style="stop-color:#2980b9;stop-opacity:1"
         offset="0"
         id="stop1179" />
      <stop
         style="stop-color:#1d5981;stop-opacity:1"
         offset="1"
         id="stop1181" />
    </linearGradient>
    <linearGradient
       gradientUnits="userSpaceOnUse"
       y2="523.798"
       x2="428.571"
       y1="523.798"
       x1="388.571"
       id="linearGradient4205"
       xlink:href="#d"
       gradientTransform="translate(-0.13681623,0.08656289)" />
    <linearGradient
       id="d"
       y1="537.6"
       x1="400.57"
       y2="546.58"
       x2="392.9"
       gradientUnits="userSpaceOnUse"
       gradientTransform="matrix(1.25 0 0 1.26667-92.14-151.08)">
      <stop
         id="stop1129"
         stop-color="#ffc35a" />
      <stop
         id="stop1131"
         offset="1"
         stop-color="#faae2a" />
    </linearGradient>
    <linearGradient
       id="f"
       y1="535.36"
       x1="390.57"
       y2="540.75"
       x2="386.57"
       gradientUnits="userSpaceOnUse"
       gradientTransform="matrix(1.25,0,0,1.26667,-92.14,-151.08)">
      <stop
         id="stop1134"
         stop-color="#fdbc4b" />
      <stop
         id="stop1136"
         offset="1"
         stop-color="#dde341" />
    </linearGradient>
    <linearGradient
       xlink:href="#f"
       gradientTransform="translate(395.10346,494.86111)"
       gradientUnits="userSpaceOnUse"
       x2="31"
       y2="31"
       x1="13"
       y1="13"
       id="c-5">
      <stop
         id="stop1139"
         stop-color="#383e51" />
      <stop
         id="stop1141"
         stop-opacity="0"
         stop-color="#655c6f"
         offset="1" />
    </linearGradient>
    <linearGradient
       inkscape:collect="always"
       xlink:href="#linearGradient1183"
       id="linearGradient1185"
       x1="5.3247395"
       y1="289.26089"
       x2="9.2934895"
       y2="295.14789"
       gradientUnits="userSpaceOnUse"
       gradientTransform="matrix(0.95238094,0,0,0.95238094,0.3023813,13.840463)" />
    <linearGradient
       id="rect3438-6-0-6-7-2_60_-80"
       gradientUnits="userSpaceOnUse"
       x1="-460.2334"
       y1="370.53909"
       x2="-460.2334"
       y2="666.56842"
       gradientTransform="matrix(0.19734331,0,0,-0.19823545,44.540648,344.02909)">
      <stop
         offset="0"
         style="stop-color:#000000"
         id="stop29185" />
      <stop
         offset="1"
         style="stop-color:#000000;stop-opacity:0.5882"
         id="stop29187" />
    </linearGradient>
    <linearGradient
       id="rect3438-6-0-1-1_60_-262"
       gradientUnits="userSpaceOnUse"
       x1="-452.13281"
       y1="371.53421"
       x2="-452.13281"
       y2="668.2168"
       gradientTransform="matrix(0.19561848,0,0,-0.19662959,42.162318,343.25799)">
      <stop
         offset="0"
         style="stop-color:#000000"
         id="stop29191" />
      <stop
         offset="1"
         style="stop-color:#000000;stop-opacity:0.5882"
         id="stop29193" />
    </linearGradient>
    <linearGradient
       gradientUnits="userSpaceOnUse"
       x2="0"
       y2="503.8"
       y1="543.8"
       id="a">
      <stop
         id="stop1731"
         stop-color="#197cf1" />
      <stop
         id="stop1733"
         stop-color="#20bcfa"
         offset="1" />
    </linearGradient>
    <linearGradient
       gradientUnits="userSpaceOnUse"
       x2="39.28"
       y2="36.633"
       x1="22.285"
       y1="18.71"
       id="b">
      <stop
         id="stop1736"
         stop-color="#292c2f" />
      <stop
         id="stop1738"
         stop-opacity="0"
         stop-color="#292c2f"
         offset="1" />
    </linearGradient>
  </defs>
  <sodipodi:namedview
     id="base"
     pagecolor="#ffffff"
     bordercolor="#666666"
     borderopacity="1.0"
     inkscape:pageopacity="0.0"
     inkscape:pageshadow="2"
     inkscape:zoom="1.4142136"
     inkscape:cx="-313.06443"
     inkscape:cy="52.097944"
     inkscape:document-units="px"
     inkscape:current-layer="layer1"
     showgrid="false"
     units="px"
     inkscape:showpageshadow="false"
     showguides="true"
     inkscape:guide-bbox="true"
     inkscape:window-width="1920"
     inkscape:window-height="1009"
     inkscape:window-x="0"
     inkscape:window-y="0"
     inkscape:window-maximized="1"
     inkscape:snap-global="false">
    <sodipodi:guide
       position="6.35,11.641667"
       orientation="0,1"
       id="guide815"
       inkscape:locked="false"
       inkscape:label=""
       inkscape:color="rgb(0,0,255)" />
    <sodipodi:guide
       position="6.35,1.0583333"
       orientation="0,1"
       id="guide817"
       inkscape:locked="false"
       inkscape:label=""
       inkscape:color="rgb(0,0,255)" />
    <sodipodi:guide
       position="1.0583333,6.35"
       orientation="1,0"
       id="guide819"
       inkscape:locked="false"
       inkscape:label=""
       inkscape:color="rgb(0,0,255)" />
    <sodipodi:guide
       position="11.641667,6.35"
       orientation="1,0"
       id="guide821"
       inkscape:locked="false"
       inkscape:label=""
       inkscape:color="rgb(0,0,255)" />
    <sodipodi:guide
       position="11.889714,7.830013"
       orientation="0.70710678,0.70710678"
       id="guide886"
       inkscape:locked="false"
       inkscape:label=""
       inkscape:color="rgb(0,0,255)" />
  </sodipodi:namedview>
  <metadata
     id="metadata5">
    <rdf:RDF>
      <cc:Work
         rdf:about="">
        <dc:format>image/svg+xml</dc:format>
        <dc:type
           rdf:resource="http://purl.org/dc/dcmitype/StillImage" />
        <dc:title />
      </cc:Work>
    </rdf:RDF>
  </metadata>
  <g
     inkscape:label="Capa 1"
     inkscape:groupmode="layer"
     id="layer1"
     transform="translate(0,-284.29998)">
    <circle
       style="opacity:1;fill:url(#linearGradient1185);fill-opacity:1;stroke:none;stroke-width:0.09654436;stroke-miterlimit:4;stroke-dasharray:none;stroke-opacity:1"
       id="path1177"
       cx="6.3499999"
       cy="290.64999"
       r="5.2916665" />
    <g
       style="opacity:0.371;fill:#7bbce8;fill-opacity:1"
       id="path4617_3_"
       transform="matrix(0.0598808,0,0,0.05988114,-2.618048,282.14683)">
      <path
         style="fill:#7bbce8;fill-opacity:1"
         id="XMLID_856_"
         inkscape:connector-curvature="0"
         d="m 234.712,155.123 c 0.433,-2.69 0.736,-5.4 0.912,-8.12 -10.476,9.524 -19.411,20.201 -25.845,31.775 -6.001,10.236 -10.279,21.809 -12.676,33.778 2.868,-1.862 5.622,-3.894 8.249,-6.083 2.364,-8.632 5.774,-16.917 10.171,-24.393 4.81,-8.707 11.207,-16.889 18.632,-24.462 0.199,-0.829 0.384,-1.66 0.557,-2.495 z m 0.726,-23.594 c -0.271,-2.529 -0.655,-5.044 -1.148,-7.538 -16.583,12.796 -30.713,28.228 -40.492,45.578 -9.234,15.867 -14.925,34.163 -16.724,52.722 2.351,-0.771 4.666,-1.644 6.94,-2.614 2.033,-16.514 7.308,-32.71 15.525,-46.799 8.714,-15.528 21.203,-29.512 35.899,-41.349 z m -4.592,-19.769 c -0.755,-2.156 -1.595,-4.281 -2.518,-6.37 -20.617,14.854 -38.293,33.499 -50.527,54.975 -11.535,19.929 -18.2,42.874 -19.533,66.016 2.24,-0.246 4.471,-0.58 6.685,-1.001 1.457,-21.655 7.812,-43.105 18.598,-61.705 11.423,-20.123 27.961,-37.73 47.295,-51.915 z m -8.174,-16.875 c -1.175,-1.877 -2.423,-3.708 -3.739,-5.488 -23.16,16.403 -43.08,37.333 -57.115,61.765 -13.13,22.776 -20.618,48.761 -21.993,75.036 2.197,0.232 4.402,0.381 6.611,0.443 1.309,-25.277 8.506,-50.311 21.125,-72.171 13.459,-23.493 32.71,-43.697 55.111,-59.585 z M 211.239,80.362 c -1.585,-1.607 -3.232,-3.151 -4.938,-4.629 -24.318,17.6 -45.291,39.985 -60.467,66.225 -14.05,24.453 -22.281,51.991 -24.237,80.015 2.146,0.76 4.323,1.435 6.522,2.022 1.687,-27.571 9.655,-54.736 23.459,-78.734 14.85,-25.734 35.592,-47.687 59.661,-64.899 z M 196.477,68.235 c -2.021,-1.284 -4.096,-2.483 -6.217,-3.595 -24.041,18.387 -44.846,41.337 -60.414,68.107 -14.259,24.884 -23.032,52.492 -26,80.779 2.052,1.289 4.156,2.492 6.31,3.604 2.56,-28.396 11.153,-56.177 25.434,-81.075 15.532,-26.758 36.551,-49.652 60.887,-67.82 z m -18.574,-8.947 c -2.521,-0.876 -5.079,-1.635 -7.67,-2.273 -22.105,18.492 -41.364,40.835 -56.377,66.529 -13.536,23.675 -22.53,49.485 -26.774,76.083 1.868,1.982 3.829,3.875 5.876,5.672 3.778,-27.446 12.735,-54.131 26.647,-78.445 15.333,-26.283 35.301,-49.01 58.298,-67.566 z m -23.067,-4.583 c -3.225,-0.188 -6.459,-0.196 -9.686,-0.021 -18.129,17.294 -34.146,37.26 -47.284,59.656 -11.554,20.248 -20.052,41.86 -25.386,64.189 1.459,2.986 3.089,5.887 4.883,8.686 5.006,-24.255 13.793,-47.749 26.254,-69.571 14,-23.899 31.39,-44.998 51.219,-62.939 z m -29.629,3.369 c -4.732,1.428 -9.332,3.26 -13.75,5.476 -10.873,12.806 -20.799,26.674 -29.573,41.581 -7.137,12.527 -13.188,25.522 -18.137,38.856 0.181,5.08 0.811,10.134 1.882,15.104 5.459,-17.495 12.782,-34.483 21.998,-50.651 10.833,-18.424 23.494,-35.24 37.58,-50.366 z" />
    </g>
    <path
       style="fill:#acd5f1;stroke-width:0.05988097;fill-opacity:1;opacity:0.294"
       inkscape:connector-curvature="0"
       id="XMLID_2823_"
       d="m 6.35,285.35832 c -2.9178716,0 -5.2916663,2.37386 -5.2916663,5.29163 0,2.91789 2.3738546,5.2917 5.2916663,5.2917 2.9178118,0 5.291666,-2.37387 5.291666,-5.2917 0,-2.91783 -2.3738542,-5.29163 -5.291666,-5.29163 z m 0.9827038,4.38048 c -1.2239037,-0.99205 -2.210859,-2.27806 -2.9302669,-3.70473 0.2184451,-0.0925 0.4449742,-0.16952 0.6777309,-0.23066 0.6741979,1.3099 1.5832483,2.48657 2.699127,3.38664 1.0294707,0.84217 2.2685842,1.44248 3.5712912,1.75392 -0.01395,0.23958 -0.04425,0.47492 -0.0909,0.70438 -1.4315107,-0.33054 -2.7918827,-0.98331 -3.9269832,-1.90955 z m 3.8313532,2.29465 c -0.06617,0.23012 -0.148444,0.4533 -0.245571,0.66863 -1.5598351,-0.37462 -3.0361363,-1.09235 -4.2834534,-2.10704 -1.3404916,-1.09349 -2.4153519,-2.48249 -3.1967964,-4.0182 0.1920976,-0.13773 0.3940756,-0.26216 0.6050356,-0.37204 0.7427016,1.47559 1.7658249,2.80734 3.038771,3.84161 1.1825859,0.96403 2.5943357,1.6426 4.0820142,1.98704 z m -3.1339814,-3.15143 c -1.043363,-0.83905 -1.9014549,-1.93823 -2.5473292,-3.16526 0.2497628,-0.0438 0.5056335,-0.0689 0.766594,-0.0741 0.5863528,1.04583 1.3356412,1.97764 2.2275059,2.6904 0.8101273,0.66582 1.7819327,1.16175 2.8069127,1.45296 0.04287,0.24521 0.06766,0.49641 0.07335,0.75234 -1.214143,-0.30365 -2.3683458,-0.87091 -3.3270374,-1.65631 z m -1.3159404,-3.22735 c 0.3246737,0.0235 0.6407844,0.0775 0.9455777,0.16018 0.4371897,0.64049 0.9430627,1.21038 1.5148644,1.66176 0.49737,0.41138 1.0739617,0.74846 1.6884587,0.99918 0.133475,0.27605 0.2415,0.56653 0.322997,0.86774 -0.897912,-0.28282 -1.7463634,-0.73187 -2.4584658,-1.31835 -0.7921032,-0.63043 -1.468876,-1.44876 -2.013432,-2.37051 z m 3.8114728,2.23117 c -0.396112,-0.20126 -0.7684503,-0.44139 -1.1007289,-0.71708 -0.4030577,-0.31647 -0.7716839,-0.69899 -1.1065373,-1.12528 0.9028228,0.38725 1.6693569,1.03247 2.2072662,1.84236 z m -7.406776,-1.06032 c 0.8015644,1.55374 1.8992993,2.96041 3.2659588,4.07749 1.2716286,1.03343 2.7679301,1.76991 4.3517772,2.16404 -0.120839,0.21833 -0.257607,0.42648 -0.408447,0.62343 -1.5951047,-0.43181 -3.0982924,-1.19014 -4.3904003,-2.23854 -1.3901926,-1.14002 -2.5147541,-2.55088 -3.3480553,-4.10701 0.1633548,-0.18581 0.340123,-0.35946 0.5291666,-0.51941 z m 3.2217068,8.83421 c -0.8767147,-0.46103 -1.7133693,-1.00672 -2.4954724,-1.63793 -0.901745,-0.74786 -1.7078603,-1.57416 -2.4200825,-2.45836 -0.054791,-0.29635 -0.084911,-0.60139 -0.084911,-0.91349 0,-0.11838 0.00563,-0.23539 0.013713,-0.35174 0.8217442,1.16325 1.8028911,2.23518 2.9383508,3.17502 1.0230036,0.82642 2.1437327,1.50385 3.3308097,2.0223 -0.4066506,0.10689 -0.8331815,0.16438 -1.2729461,0.16438 -0.00317,6e-5 -0.00629,-1.8e-4 -0.00946,-1.8e-4 z m -1.7979809,-2.49471 c -1.2223467,-1.01049 -2.263075,-2.17991 -3.1126638,-3.45562 0.059761,-0.31312 0.1488636,-0.61582 0.2641941,-0.90558 0.8670141,1.42193 1.9698388,2.7192 3.29542,3.81263 1.2194725,0.98678 2.5960124,1.74398 4.0599782,2.25069 -0.2671283,0.17156 -0.5513226,0.31833 -0.8497685,0.43743 -1.3100122,-0.52282 -2.5442753,-1.24002 -3.65716,-2.13955 z m -2.848829,-0.66977 c 0.5800054,0.64935 1.2133048,1.26355 1.9007363,1.83428 0.560664,0.45234 1.1483341,0.86247 1.757741,1.23032 -1.670794,-0.33899 -3.041226,-1.5126 -3.6584773,-3.0646 z m 7.7563001,2.08596 c -1.5219903,-0.48989 -2.9531414,-1.25547 -4.20974,-2.27285 -1.3602522,-1.12044 -2.4815202,-2.46573 -3.3463786,-3.94365 0.1238335,-0.24066 0.2659306,-0.47031 0.4256926,-0.68648 0.8479121,1.54074 1.9773239,2.93969 3.367277,4.08138 1.2897127,1.0457 2.779547,1.8117 4.362256,2.26518 -0.1838935,0.20156 -0.3848535,0.38707 -0.599107,0.55642 z" />
  </g>
</svg>
