<?xml version="1.0" encoding="UTF-8" standalone="no"?>
<svg
   viewBox="0 0 512 512"
   height="512"
   width="512"
   xml:space="preserve"
   id="svg2"
   version="1.1"
   sodipodi:docname="gva.svg"
   inkscape:version="1.3 (1:1.3+202307231459+0e150ed6c4)"
   xmlns:inkscape="http://www.inkscape.org/namespaces/inkscape"
   xmlns:sodipodi="http://sodipodi.sourceforge.net/DTD/sodipodi-0.dtd"
   xmlns="http://www.w3.org/2000/svg"
   xmlns:svg="http://www.w3.org/2000/svg"
   xmlns:rdf="http://www.w3.org/1999/02/22-rdf-syntax-ns#"
   xmlns:cc="http://creativecommons.org/ns#"
   xmlns:dc="http://purl.org/dc/elements/1.1/"><sodipodi:namedview
     id="namedview1"
     pagecolor="#ffffff"
     bordercolor="#666666"
     borderopacity="1.0"
     inkscape:showpageshadow="2"
     inkscape:pageopacity="0.0"
     inkscape:pagecheckerboard="0"
     inkscape:deskcolor="#d1d1d1"
     inkscape:zoom="0.73530966"
     inkscape:cx="302.5936"
     inkscape:cy="314.83334"
     inkscape:window-width="1366"
     inkscape:window-height="696"
     inkscape:window-x="0"
     inkscape:window-y="0"
     inkscape:window-maximized="1"
     inkscape:current-layer="svg2" /><metadata
     id="metadata8"><rdf:RDF><cc:Work
         rdf:about=""><dc:format>image/svg+xml</dc:format><dc:type
           rdf:resource="http://purl.org/dc/dcmitype/StillImage" /></cc:Work></rdf:RDF></metadata><defs
     id="defs6"><clipPath
       id="clipPath22"
       clipPathUnits="userSpaceOnUse"><path
         id="path20"
         d="M 0,472.25 H 453.54 V 0 H 0 Z" /></clipPath></defs><g
     transform="matrix(1.3333333,0,0,-1.3333333,-46.361859,570.60413)"
     id="g10"><g
       transform="translate(240.9355,317.0078)"
       id="g12"><path
         id="path14"
         style="fill:#c80f2e;fill-opacity:1;fill-rule:nonzero;stroke:none"
         d="m 0,0 h -3.713 v -4.375 h -4.375 v -3.711 h 4.375 v -4.377 h 1.274 v -5.67 h 1.165 v 5.67 H 0 v 4.377 h 4.376 v 3.711 H 0 Z" /></g><g
       id="g16"><g
         clip-path="url(#clipPath22)"
         id="g18"><g
           transform="translate(200.1406,358.1523)"
           id="g24"><path
             id="path26"
             style="fill:#c80f2e;fill-opacity:1;fill-rule:nonzero;stroke:none"
             d="m 0,0 c 3.741,5.519 4.383,5.635 4.383,5.635 0,0 -3.541,1.122 -5.762,-2.153 -3.73,-5.503 -4.346,-5.637 -4.346,-5.637 0,0 3.533,-1.077 5.725,2.155" /></g><g
           transform="translate(229.5146,267.7168)"
           id="g28"><path
             id="path30"
             style="fill:#c80f2e;fill-opacity:1;fill-rule:nonzero;stroke:none"
             d="m 0,0 -6.814,-6.815 44.018,-44.018 c -2.474,11.111 -7.996,21.624 -16.582,30.21 z" /></g><g
           transform="translate(268.2246,203.2686)"
           id="g32"><path
             id="path34"
             style="fill:#c80f2e;fill-opacity:1;fill-rule:nonzero;stroke:none"
             d="m 0,0 -51.579,51.579 -6.815,-6.816 57.202,-57.201 C -0.39,-8.325 0.009,-4.159 0,0" /></g><g
           transform="translate(196.9614,235.1621)"
           id="g36"><path
             id="path38"
             style="fill:#c80f2e;fill-opacity:1;fill-rule:nonzero;stroke:none"
             d="m 0,0 51.58,-51.579 c 4.157,-0.008 8.325,0.39 12.437,1.193 L 6.815,6.814 Z" /></g><g
           transform="translate(206.9009,334.3374)"
           id="g40"><path
             id="path42"
             style="fill:#c80f2e;fill-opacity:1;fill-rule:nonzero;stroke:none"
             d="M 0,0 C 4.212,0 7.913,2.168 10.059,5.446 12.204,2.168 15.907,0 20.116,0 24.328,0 28.03,2.168 30.174,5.446 32.32,2.168 36.022,0 40.233,0 c 1.673,0 3.266,0.343 4.715,0.962 L 42.8,-4.229 H -2.567 L -4.714,0.962 C -3.266,0.343 -1.673,0 0,0 m 0.468,12.426 c 3.412,8.707 14.429,13.036 19.505,16.643 1.397,0.992 4.235,3.809 4.168,7.524 -0.076,4.26 -3.466,7.727 -7.727,7.727 -3.99,0 -9.787,-4.486 -12.535,-7.202 -0.775,1.225 -1.631,1.854 -2.91,2.328 2.501,4.355 3.411,8.396 4.091,12.906 1.666,-0.709 3.499,-1.101 5.42,-1.101 3.201,0 6.153,1.088 8.505,2.914 2.851,-2.907 6.822,-4.713 11.206,-4.713 0.331,0 0.658,0.01 0.983,0.03 0.404,-4.419 2.542,-8.337 5.714,-11.093 -1.898,-1.561 -3.429,-3.304 -4.942,-5.524 -3.276,-4.806 -6.712,-7.232 -9.018,-8.423 -2.071,-1.069 -3.614,-1.358 -4.085,-1.424 0.261,-1.223 0.398,-2.402 0.398,-3.702 0,-2.292 -0.428,-4.483 -1.208,-6.498 l 3.22,-1.247 c 0.93,2.401 1.442,5.013 1.442,7.745 0,0.315 -0.008,0.628 -0.022,0.942 3.191,1.244 7.952,4.077 12.341,10.515 3.616,5.307 7.67,7.417 10.928,8.176 C 45.2,37.204 44.718,35.312 44.559,33.317 44.293,30.045 44.917,26.905 46.222,24.134 43.664,22.442 41.498,20.081 40.02,17.144 37.811,12.757 37.552,7.902 38.907,3.557 35.849,4.034 33.334,6.129 32.25,8.94 c 0.608,0.559 0.99,1.358 0.99,2.248 0,1.692 -1.373,3.065 -3.066,3.065 -1.691,0 -3.063,-1.373 -3.063,-3.065 0,-0.89 0.382,-1.689 0.988,-2.248 -1.236,-3.206 -4.34,-5.485 -7.983,-5.485 -3.641,0 -6.745,2.279 -7.982,5.485 0.607,0.559 0.99,1.358 0.99,2.248 0,1.692 -1.372,3.065 -3.065,3.065 -1.692,0 -3.064,-1.373 -3.064,-3.065 0,-0.89 0.382,-1.689 0.988,-2.248 C 6.747,5.734 3.643,3.429 0,3.455 c -0.417,0.002 -0.809,0.042 -1.191,0.096 0.024,1.485 0.233,5.234 1.659,8.875 m 54.459,-60.26 -18.035,-17.979 -4.133,4.134 c -7.032,7.032 -8.938,15.661 -9.638,26.455 -0.324,5.004 -0.481,10.444 -0.481,16.629 v 10.652 h 18.929 0.018 v -10.652 c 0,-11.211 4.113,-20.147 13.34,-29.239 M 13.828,-59.939 v 38.235 H -8.021 l 6.797,13.761 h 20.151 v -10.652 c 0,-3.166 0.031,-9.803 0.49,-16.87 0.452,-6.957 1.432,-13.575 4.218,-19.554 z m -3.713,-1.865 -10.689,-5.366 c 0.268,5.884 0.362,14.576 -0.834,21.249 -1.386,7.721 -4.686,15.95 -6.693,20.503 h 18.216 z m -21.587,70.122 6.433,-15.604 -8.043,-16.278 c 0,0 6.075,-12.182 8.018,-23.014 1.886,-10.509 0.362,-26.818 0.362,-26.818 L 25.37,-58.26 c 1.29,-2.114 2.853,-4.134 4.762,-6.043 5.058,-5.058 6.76,-6.761 6.76,-6.761 l 23.336,23.316 -1.538,1.443 c -9.386,8.797 -13.391,17.085 -13.391,27.71 v 11.374 l 6.406,15.539 c 1.168,0.434 2,1.553 2,2.87 0,1.692 -1.372,3.065 -3.065,3.065 -1.692,0 -3.064,-1.373 -3.064,-3.065 0,-0.757 0.277,-1.45 0.735,-1.986 -0.922,-2.646 -3.102,-4.697 -5.822,-5.44 -1.405,3.721 -1.315,7.996 0.615,11.829 1.738,3.451 4.646,5.924 8.001,7.178 -2.216,2.807 -3.416,6.425 -3.105,10.272 0.309,3.845 2.077,7.223 4.71,9.638 -1.678,0.382 -7.067,1.187 -12.894,-2.213 -3.184,2.428 -5.251,6.246 -5.251,10.55 0,0.969 0.103,1.913 0.301,2.824 -1.441,-0.597 -3.02,-0.928 -4.675,-0.928 -4.74,0 -8.861,2.709 -10.894,6.66 -1.851,-2.92 -5.111,-4.861 -8.817,-4.861 -3.668,0 -6.9,1.904 -8.761,4.776 C 2.501,50.84 -0.093,40.655 -7.459,35.262 l 2.003,-2.656 c 1.203,0.904 2.418,1.922 3.463,3.007 0.462,0.478 0.913,0.752 1.54,0.74 0.91,-0.018 1.711,-0.765 1.714,-1.761 C 1.263,34.145 1.094,33.829 0.933,33.501 0.425,32.473 0.135,31.319 0.135,30.096 c 0,-1.174 0.264,-2.287 0.735,-3.285 l 3.017,1.418 c -1.408,3.025 0.997,5.847 4.804,8.668 2.736,2.028 5.617,3.939 7.723,3.954 2.348,0.017 4.258,-1.911 4.258,-4.258 0,-2.637 -2.608,-4.738 -4.617,-6.005 C 8.527,25.84 0.932,22.382 -2.573,14.031 -4.045,10.526 -4.513,6.92 -4.663,4.886 c -1.936,1.316 -3.032,3.222 -3.413,4.316 0.456,0.536 0.734,1.229 0.734,1.986 0,1.692 -1.373,3.065 -3.066,3.065 -1.691,0 -3.063,-1.373 -3.063,-3.065 0,-1.317 0.833,-2.436 1.999,-2.87" /></g><g
           transform="translate(234.9258,185.0889)"
           id="g44"><path
             id="path46"
             style="fill:#c80f2e;fill-opacity:1;fill-rule:nonzero;stroke:none"
             d="m 0,0 -44.019,44.02 -6.814,-6.815 20.621,-20.622 C -21.626,7.997 -11.113,2.474 0,0" /></g><g
           transform="translate(215.5,382.8115)"
           id="g48"><path
             id="path50"
             style="fill:#c80f2e;fill-opacity:1;fill-rule:nonzero;stroke:none"
             d="m 0,0 c -1.088,0 -1.972,-0.883 -1.972,-1.974 0,-1.088 0.884,-1.97 1.972,-1.97 1.089,0 1.972,0.882 1.972,1.97 C 1.972,-0.883 1.089,0 0,0" /></g><g
           transform="translate(348.9268,89.2031)"
           id="g52"><path
             id="path54"
             style="fill:#c80f2e;fill-opacity:1;fill-rule:nonzero;stroke:none"
             d="M 0,0 5.165,12.636 10.33,0 Z M 4.448,21.851 -9.044,-10.784 h 4.676 l 2.656,6.559 h 13.753 l 2.657,-6.559 h 4.676 L 5.882,21.851 Z" /></g><g
           transform="translate(330.1123,87.7656)"
           id="g56"><path
             id="path58"
             style="fill:#c80f2e;fill-opacity:1;fill-rule:nonzero;stroke:none"
             d="m 0,0 -20.498,23.288 h -1.434 V -9.347 h 4.361 V 13.535 L 2.927,-9.768 H 4.359 V 22.867 H 0 Z" /></g><path
           id="path60"
           style="fill:#c80f2e;fill-opacity:1;fill-rule:nonzero;stroke:none"
           d="m 264.358,78.419 h 4.584 v 32.214 h -4.584 z" /><g
           transform="translate(243.4502,135.8594)"
           id="g62"><path
             id="path64"
             style="fill:#c80f2e;fill-opacity:1;fill-rule:nonzero;stroke:none"
             d="M 0,0 5.164,12.637 H 5.165 L 10.33,0 Z M 4.448,21.852 -9.044,-10.785 h 4.675 l 2.657,6.56 h 13.753 l 2.657,-6.56 h 4.675 L 5.881,21.852 Z" /></g><g
           transform="translate(243.8828,82.3281)"
           id="g66"><path
             id="path68"
             style="fill:#c80f2e;fill-opacity:1;fill-rule:nonzero;stroke:none"
             d="m 0,0 c -6.834,0 -11.793,5.131 -11.793,12.197 0,6.954 4.974,12.198 11.567,12.198 4.757,0 7.582,-2.156 9.65,-4.983 l 3.556,2.56 c -2.729,3.866 -6.945,6.694 -13.16,6.694 -9.285,0 -16.287,-7.078 -16.287,-16.464 0,-9.402 7.002,-16.473 16.378,-16.473 6.574,0 10.903,2.84 13.929,7.107 L 10.222,5.389 C 7.975,2.211 4.756,0 0,0" /></g><g
           transform="translate(216.5781,138.1562)"
           id="g70"><path
             id="path72"
             style="fill:#c80f2e;fill-opacity:1;fill-rule:nonzero;stroke:none"
             d="M 0,0 H -3.798 V 14.909 H 0 c 6.028,0 8.957,-2.445 8.957,-7.477 C 8.957,2.431 6.028,0 0,0 m 6.909,-2.901 c 4.4,1.893 6.724,5.463 6.724,10.333 0,7.328 -5.029,11.702 -13.453,11.702 h -8.517 v -32.216 h 4.539 v 8.901 H 0.18 c 0.818,0 1.499,0.036 2.132,0.116 l 6.032,-9.017 h 5.514 z" /></g><g
           transform="translate(216.4844,87.7656)"
           id="g74"><path
             id="path76"
             style="fill:#c80f2e;fill-opacity:1;fill-rule:nonzero;stroke:none"
             d="m 0,0 -20.499,23.288 h -1.432 V -9.347 h 4.36 V 13.535 L 2.927,-9.768 H 4.36 V 22.867 H 0 Z" /></g><g
           transform="translate(170.6123,89.7939)"
           id="g78"><path
             id="path80"
             style="fill:#c80f2e;fill-opacity:1;fill-rule:nonzero;stroke:none"
             d="M 0,0 H 13.858 V 4.179 H 0 v 12.435 h 15.524 v 4.225 H -4.541 v -32.214 h 20.696 v 4.224 H 0 Z" /></g><g
           transform="translate(116.5811,89.2031)"
           id="g82"><path
             id="path84"
             style="fill:#c80f2e;fill-opacity:1;fill-rule:nonzero;stroke:none"
             d="M 0,0 5.165,12.636 H 5.166 L 10.33,0 Z M 4.449,21.851 -9.043,-10.784 h 4.675 l 2.657,6.559 h 13.753 l 2.657,-6.559 h 4.675 L 5.882,21.851 Z" /></g><g
           transform="translate(95.1899,124.7148)"
           id="g86"><path
             id="path88"
             style="fill:#c80f2e;fill-opacity:1;fill-rule:nonzero;stroke:none"
             d="M 0,0 C 5.751,0 9.475,1.604 12.913,4.719 V 15.915 H -0.717 V 11.688 H 8.508 V 6.818 C 6.324,5.104 3.54,4.27 0,4.27 c -7.015,0 -12.107,5.129 -12.107,12.198 0,6.954 4.973,12.198 11.567,12.198 5.613,0 7.792,-2.51 9.491,-4.395 l 3.251,3.039 c -2.883,3.365 -6.65,5.625 -12.652,5.625 -9.158,0 -16.332,-7.233 -16.332,-16.467 C -16.782,7.08 -9.567,0 0,0" /></g><g
           transform="translate(104.9131,110.6318)"
           id="g90"><path
             id="path92"
             style="fill:#c80f2e;fill-opacity:1;fill-rule:nonzero;stroke:none"
             d="m 0,0 -9.31,-23.148 -9.309,23.149 h -4.903 l 13.496,-32.635 1.433,-10e-4 L 4.903,0 Z" /></g><g
           transform="translate(120.519,136.4512)"
           id="g94"><path
             id="path96"
             style="fill:#c80f2e;fill-opacity:1;fill-rule:nonzero;stroke:none"
             d="M 0,0 H 13.859 V 4.179 H 0 v 12.435 h 15.525 v 4.225 H -4.539 V -11.377 H 16.156 V -7.15 H 0 Z" /></g><g
           transform="translate(145.9092,110.6328)"
           id="g98"><path
             id="path100"
             style="fill:#c80f2e;fill-opacity:1;fill-rule:nonzero;stroke:none"
             d="m 0,0 h -4.54 v -32.214 h 18.76 v 4.226 H 0 Z" /></g><g
           transform="translate(148.8223,147.959)"
           id="g102"><path
             id="path104"
             style="fill:#c80f2e;fill-opacity:1;fill-rule:nonzero;stroke:none"
             d="M 0,0 20.498,-23.306 H 21.93 V 9.33 H 17.571 V -13.536 L -2.928,9.752 H -4.36 V -22.885 H 0 Z" /></g><g
           transform="translate(200.4531,129.3008)"
           id="g106"><path
             id="path108"
             style="fill:#c80f2e;fill-opacity:1;fill-rule:nonzero;stroke:none"
             d="m 0,0 h -16.155 v 7.15 h 13.859 v 4.179 H -16.155 V 23.765 H -0.63 v 4.224 H -20.695 V -4.227 H 0 Z" /></g><g
           transform="translate(286.9971,129.3008)"
           id="g110"><path
             id="path112"
             style="fill:#c80f2e;fill-opacity:1;fill-rule:nonzero;stroke:none"
             d="m 0,0 h -14.221 v 27.989 h -4.538 V -4.227 H 0 Z" /></g><path
           id="path114"
           style="fill:#c80f2e;fill-opacity:1;fill-rule:nonzero;stroke:none"
           d="m 297.526,157.29 h -4.586 v -32.216 h 4.586 z" /><g
           transform="translate(283.3965,89.2031)"
           id="g116"><path
             id="path118"
             style="fill:#c80f2e;fill-opacity:1;fill-rule:nonzero;stroke:none"
             d="M 0,0 5.165,12.636 10.33,0 Z M 4.448,21.851 -9.044,-10.784 h 4.676 l 2.657,6.559 h 13.753 l 2.655,-6.559 h 4.677 L 5.882,21.851 Z" /></g><g
           transform="translate(312.9629,125.0742)"
           id="g120"><path
             id="path122"
             style="fill:#c80f2e;fill-opacity:1;fill-rule:nonzero;stroke:none"
             d="m 0,0 h 4.541 v 27.991 h 9.449 v 4.225 H -9.495 V 27.991 H 0 Z" /></g><g
           transform="translate(339.1484,148.4961)"
           id="g124"><path
             id="path126"
             style="fill:#c80f2e;fill-opacity:1;fill-rule:nonzero;stroke:none"
             d="m 0,0 5.165,-12.637 h -10.33 z m -9.534,-23.422 2.657,6.561 H 6.877 l 2.655,-6.561 h 4.677 L 0.716,9.215 h -1.434 l -13.491,-32.637 z" /></g><g
           transform="translate(351.2939,157.291)"
           id="g128"><path
             id="path130"
             style="fill:#c80f2e;fill-opacity:1;fill-rule:nonzero;stroke:none"
             d="m 0,0 v -4.225 h 9.495 v -27.99 h 4.54 v 27.99 h 9.806 V 0 Z" /></g></g></g></g></svg>
