<?xml version="1.0" encoding="UTF-8" standalone="no"?>
<!-- Created with Inkscape (http://www.inkscape.org/) -->

<svg
   xmlns:dc="http://purl.org/dc/elements/1.1/"
   xmlns:cc="http://creativecommons.org/ns#"
   xmlns:rdf="http://www.w3.org/1999/02/22-rdf-syntax-ns#"
   xmlns:svg="http://www.w3.org/2000/svg"
   xmlns="http://www.w3.org/2000/svg"
   xmlns:xlink="http://www.w3.org/1999/xlink"
   xmlns:sodipodi="http://sodipodi.sourceforge.net/DTD/sodipodi-0.dtd"
   xmlns:inkscape="http://www.inkscape.org/namespaces/inkscape"
   width="1920"
   height="1080"
   viewBox="0 0 507.99999 285.75001"
   version="1.1"
   id="svg8"
   inkscape:export-filename="/home/quique/workspace/lliurex-artwork/wallpaper/lliurex-19-mountains.png"
   inkscape:export-xdpi="96"
   inkscape:export-ydpi="96"
   inkscape:version="0.92.3 (2405546, 2018-03-11)"
   sodipodi:docname="lliurex-19-mountains.svg">
  <defs
     id="defs2">
    <linearGradient
       inkscape:collect="always"
       id="linearGradient835">
      <stop
         style="stop-color:#b0caa8;stop-opacity:1"
         offset="0"
         id="stop831" />
      <stop
         style="stop-color:#567a8c;stop-opacity:1"
         offset="1"
         id="stop833" />
    </linearGradient>
    <radialGradient
       inkscape:collect="always"
       xlink:href="#linearGradient835"
       id="radialGradient837"
       cx="251.73215"
       cy="369.15143"
       fx="251.73215"
       fy="369.15143"
       r="254"
       gradientTransform="matrix(1.6578084,0,0,1.1347277,-165.59155,-143.80897)"
       gradientUnits="userSpaceOnUse" />
  </defs>
  <sodipodi:namedview
     id="base"
     pagecolor="#ffffff"
     bordercolor="#666666"
     borderopacity="1.0"
     inkscape:pageopacity="0.0"
     inkscape:pageshadow="2"
     inkscape:zoom="0.49497475"
     inkscape:cx="883.70674"
     inkscape:cy="575.96109"
     inkscape:document-units="px"
     inkscape:current-layer="layer1"
     showgrid="false"
     units="px"
     inkscape:showpageshadow="false"
     inkscape:window-width="1920"
     inkscape:window-height="948"
     inkscape:window-x="0"
     inkscape:window-y="36"
     inkscape:window-maximized="1" />
  <metadata
     id="metadata5">
    <rdf:RDF>
      <cc:Work
         rdf:about="">
        <dc:format>image/svg+xml</dc:format>
        <dc:type
           rdf:resource="http://purl.org/dc/dcmitype/StillImage" />
        <dc:title></dc:title>
      </cc:Work>
    </rdf:RDF>
  </metadata>
  <g
     inkscape:label="Capa 1"
     inkscape:groupmode="layer"
     id="layer1"
     transform="translate(0,-11.249983)">
    <rect
       style="opacity:1;fill:url(#radialGradient837);fill-opacity:1;stroke:none;stroke-width:0.69284189;stroke-miterlimit:4;stroke-dasharray:none"
       id="rect821"
       width="508"
       height="285.75"
       x="-3.5527137e-15"
       y="11.249985"
       rx="1.8142859"
       ry="2.3812501" />
    <path
       style="opacity:1;fill:#1e455c;fill-opacity:1;fill-rule:evenodd;stroke:none;stroke-width:0.82925808;stroke-linecap:butt;stroke-linejoin:miter;stroke-miterlimit:4;stroke-dasharray:none;stroke-opacity:1"
       d="m 335.93084,39.871055 -14.80672,1.704917 -8.3997,8.092926 c -2.16554,-2.159197 -4.33105,-4.318406 -6.4966,-6.477598 -4.15787,0.329045 -8.31586,0.658256 -12.47377,0.987295 10e-4,0.0012 0.002,0.0024 0.004,0.0036 -0.16461,0.01345 -0.32828,0.02538 -0.4932,0.03892 -0.84453,0.114944 -5.9087,0.233376 -8.9327,0.315826 -0.0299,8.166201 -0.0606,16.332466 -0.0905,24.498671 2.92224,0.02823 5.84486,0.05591 8.7671,0.08416 l 13.11084,0.89861 6.69931,-6.775325 c 2.79842,2.798428 5.59674,5.596752 8.39518,8.395173 0.22549,0.201218 0.40326,0.335026 0.60541,0.435282 5.0616,0.04614 10.01361,0.89495 15.00941,1.628899 -5.76572,-5.748814 -11.5314,-11.497629 -17.29711,-17.246439 z m -164.75974,3.589015 0.0897,26.473264 20.10155,-1.076886 0.0897,-7.178928 h -10.14 l -0.18021,-17.858187 z m 21.71689,0.897705 v 24.498673 l 11.30727,-0.538443 8.61417,-0.179179 0.0905,-6.282126 -10.14083,-0.08959 0.0897,-16.691712 z m 84.94718,0.398174 c -1.76016,0.01946 -3.62019,0.04391 -5.40071,0.142076 -4.97879,0.134441 -9.95939,0.207906 -14.93793,0.352026 0.0299,7.567933 0.0569,15.136232 0.0869,22.704165 h 9.70283 c 0.0599,-2.18346 0.11295,-4.36743 0.17284,-6.550895 1.8301,2.35681 3.6322,4.732986 5.5057,7.055858 3.16156,-0.05926 6.32077,0.1295 9.48201,0.1285 -2.06396,-3.200632 -4.12677,-6.402644 -6.19072,-9.603277 2.80941,-0.03956 4.87142,-2.635105 5.36632,-5.219724 0.80771,-2.711673 0.32999,-5.821436 -1.40357,-8.07392 -0.7035,-0.528383 -1.45891,-0.894031 -2.38363,-0.934809 z m -53.26959,0.589122 -9.96075,0.08959 -0.26965,22.344901 10.2304,0.08959 z m 19.74228,0 c -0.038,5.28613 0.15305,13.215869 -0.42441,15.362348 -0.5774,2.146472 -5.50736,2.739107 -6.00613,-0.26877 -0.49876,-3.007877 -0.10945,-9.943524 -0.20995,-14.914399 h -9.60236 c -0.0175,4.298219 -0.0321,9.067017 -0.0778,12.89456 -0.0457,3.827547 0.5876,7.263436 3.39896,9.450342 6.26488,0 12.534,0.04332 18.78757,-0.142073 3.2091,-1.317982 3.789,-4.95916 3.789,-8.105592 0,-3.14643 0.0371,-7.429225 0.0371,-14.097233 -3.23061,-0.05982 -6.46138,-0.119359 -9.69197,-0.17918 z m 22.79195,3.503947 c 1.32307,0.03132 2.66657,-0.02037 3.69941,0.236188 0.91118,0.58587 1.54367,1.843519 1.7565,3.019803 0.0816,1.23357 -0.41038,2.272476 -1.34385,2.938359 -1.28314,0.289359 -2.69085,0.20343 -4.0261,0.169216 -0.0478,-0.207924 -0.0562,-4.242456 -0.086,-6.363571 z m 27.01352,0.444326 c 1.61778,0.03268 3.23543,0.06505 4.85322,0.09773 1.10464,1.104648 2.20925,2.209259 3.31391,3.313907 -2.72243,0.05918 -5.44472,0.1191 -8.16713,0.178277 z m 8.25581,3.500329 c 1.16316,1.163172 2.32629,2.326297 3.48946,3.489468 l -3.48946,3.362775 z m -8.34632,6.998846 8.1038,0.08688 -3.49218,3.364586 c -1.47715,0.04616 -2.95439,0.09229 -4.43152,0.138448 -0.0599,-1.196508 -0.12031,-2.393402 -0.1801,-3.589914 z"
       id="path3214"
       inkscape:connector-curvature="0" />
    <path
       inkscape:connector-curvature="0"
       style="fill:#76393f;stroke-width:0.19843821;fill-opacity:1"
       d="m 24.592093,255.00848 c -0.161291,0.006 -0.305912,0.029 -0.427495,0.0713 -0.195403,0.0681 -0.446625,0.12637 -0.680584,0.16589 -0.06868,0.009 -0.138311,0.0202 -0.208122,0.0318 -0.08705,0.0101 -0.168335,0.0169 -0.235646,0.0175 -0.761089,0.005 -1.936776,0.45939 -2.46226,0.95304 -0.253446,0.2381 -0.608651,0.43293 -0.789487,0.43293 -0.982408,0 -3.098573,1.38988 -3.511042,2.28164 -0.22626,0.19199 -0.47447,0.37819 -0.7147,0.53485 -0.11952,0.0636 -0.24797,0.12824 -0.38098,0.19071 -0.39565,0.18581 -0.65503,0.34 -0.83523,0.51276 -0.21749,0.18119 -0.32921,0.37949 -0.40501,0.67205 -0.0544,0.2101 -0.14659,0.39418 -0.2775,0.55771 -0.0141,0.008 -0.0272,0.0127 -0.0395,0.0127 -0.1021,0 -0.66304,0.40772 -1.24645,0.90614 -0.0711,0.0607 -0.13895,0.11646 -0.2058,0.17054 -0.0223,0.0177 -0.0427,0.0342 -0.064,0.0515 -0.39723,0.31498 -0.70938,0.50178 -0.89724,0.54029 -0.0553,-0.002 -0.11265,-0.0107 -0.17284,-0.0279 -0.17101,-0.11317 -0.83603,-0.65584 -1.5293801,-1.24994 l -1.30729,-1.12048 -1.92856,-0.12634 c -1.06076,-0.0697 -2.27157,-0.22975 -2.69095,-0.3554 -0.62331,-0.18675 -0.93558,-0.16917 -1.71076,0.0949 -0.52151,0.1777 -1.15587996,0.32286 -1.40959996,0.32286 H 4.5694444e-4 l 0.003999996,16.10644 c 0,4.19744 0.009,7.33009 0.0248,9.74246 -0.002,0.0435 -0.003,0.0782 -0.005,0.12365 -0.0231,0.1034 -0.0237999956,0.23943 -0.006,0.38291 -0.009,0.55792 -0.0136,1.20422 -0.0142,2.03129 0,1.08109 0.0115,1.89853 0.0372,2.51187 -0.0245,0.0422 -0.0378,0.10724 -0.0372,0.19494 0.002,0.26226 0.0447,0.52164 0.10581,0.7298 0.0209,0.16093 0.0436,0.29305 0.0713,0.37362 0.0214,0.17911 0.045,0.28611 0.0713,0.31859 0.0434,0.0536 0.0733,0.0932 0.0973,0.12675 -0.0103,0.0193 -0.0237,0.0393 -0.0399,0.0601 -0.0196,-0.0105 -0.0336,-0.0169 -0.0605,-0.0329 -0.10414,-0.0625 -0.16732,0.0353 -0.20425,0.36508 -0.0372,0.0749 -0.044,0.13446 -0.0166,0.17054 -0.0193,0.27775 -0.0272,0.67114 -0.0272,1.21156 v 0.003 1.8964 l 26.87558606,-0.002 v 0 0 h 8.640199 c 0,2e-5 0.0019,0 0.0028,0 h 0.0024 0.002 c 0.0019,4e-5 0.0022,0 0.0036,0 h 0.0037 0.779406 c 0.0019,2e-5 0.0019,0 0.0031,0 h 0.0032 0.106184 c 0,2e-5 0.002,0 0.002,0 h 0.0019 1.194895 c 0.0022,4e-5 0.004,0 0.0062,0 h 0.0093 1.15614 c 0,2e-5 0.0019,0 0.0019,0 h 0.002 0.643773 c 2.708603,-1.8e-4 4.737793,-0.004 7.18021,-0.006 0.01191,0.002 0.02439,0.007 0.03565,0.007 0.01131,0 0.01826,-0.005 0.0279,-0.007 0.245627,-1.8e-4 0.479923,0 0.722831,0 v 0 c 0.640539,0 1.28459,0 1.906079,-0.002 0,4e-5 0,-4e-5 0,0 0.0228,0.004 0.0458,0.006 0.06822,0.005 0.01607,-1.6e-4 0.03435,-0.005 0.05116,-0.006 0.495679,0 1.039737,0 1.523172,-0.002 0.01806,0.005 0.0365,0.0101 0.0531,0.0101 0.04271,0 0.07537,-0.005 0.102692,-0.0101 1.575263,-0.002 3.532638,-0.002 4.976077,-0.004 0.05807,0.0161 0.128489,0.0154 0.202705,0 0.02633,0.008 0.05224,0.0139 0.07636,0.0139 0.02879,0 0.05376,-0.006 0.07596,-0.0147 3.773858,-0.007 6.704712,-0.0181 9.539759,-0.0295 0.06388,0.0235 0.122357,0.0401 0.159683,0.0411 0.03455,0 0.05991,-0.0153 0.07906,-0.0419 0.326748,-0.002 0.795062,-0.002 1.108852,-0.004 0.101998,0.0547 0.211615,0.0556 0.27712,0 0.725252,-0.004 1.483802,-0.006 2.137854,-0.0101 0.113904,0.0216 0.209015,0.0346 0.275571,0.0349 0.155298,0.0141 0.267058,0.004 0.3151,-0.0388 0.935438,-0.005 1.929435,-0.0107 2.706043,-0.017 0.0663,0.0428 0.169784,0.0599 0.331768,0.0612 0.1246,0.0151 0.298769,0.019 0.553445,0.019 0.481431,0 0.7014,-0.005 0.780576,-0.0977 2.515786,-0.0274 3.932534,-0.0599 3.873441,-0.098 -0.178838,-0.11541 -0.203206,-0.1927 -0.0612,-0.19497 0.129975,-0.002 0.291383,0.0864 0.358891,0.19574 0.0075,0.0115 0.126901,0.022 0.304246,0.0326 0.0023,0.0137 0.003,0.0282 0.0081,0.0407 v 0 c 0.01012,0.0236 0.02475,0.0448 0.0426,0.0628 v 0 c 0.036,0.036 0.08575,0.0581 0.140318,0.0581 0.0546,0 0.104317,-0.0226 0.140295,-0.0585 0.01785,-0.0179 0.03255,-0.0396 0.0426,-0.0632 0.003,-0.007 0.0023,-0.0157 0.0045,-0.0233 0.518837,0.0194 1.32467,0.0369 2.385519,0.0527 0.02325,0.007 0.05197,0.0127 0.07946,0.0187 0.01147,0.0438 0.0492,0.0733 0.113948,0.0733 0.04305,0 0.08088,-0.0153 0.114315,-0.0365 0.207549,0.0241 0.47413,0.0372 0.797643,0.0372 0.04785,0 0.0887,-0.002 0.135256,-0.003 0.02092,0 0.04013,0.002 0.06278,0.002 0.09072,0 0.160178,-0.003 0.218198,-0.009 0.207923,-0.009 0.393722,-0.0223 0.538345,-0.0415 0.03495,0.0307 0.0796,0.0508 0.129465,0.0508 0.05753,0 0.108226,-0.0256 0.144556,-0.0651 0.117105,0.002 0.205965,0.003 0.326333,0.004 0.01507,0.0376 0.05355,0.0613 0.112793,0.0613 0.05797,0 0.110731,-0.0223 0.148831,-0.0585 0.13218,0.002 0.230026,0.003 0.365859,0.004 -0.01823,0.0565 0.04425,0.0554 0.180998,0.002 2.258858,0.0194 5.033246,0.0348 8.090624,0.0461 0.03735,0.0115 0.07193,0.0147 0.09922,0 h 0.205801 c 0.0775,0.0117 0.150953,0.0119 0.220148,0.003 0.0068,0 0.01312,0.005 0.02018,0.005 0.0099,0 0.02092,-0.005 0.03142,-0.006 0.49873,0.002 1.012864,0.003 1.526639,0.005 0.0153,8e-5 0.02557,0.002 0.0411,0.002 0.0123,0 0.02168,-0.002 0.03375,-0.002 7.889451,0.0235 17.329611,0.0207 26.035711,-0.002 h 0.0213 c 2.06493,-0.005 4.10853,-0.01 6.04229,-0.0175 0.0379,0.007 0.0709,0.006 0.0984,0 0.22213,0 0.44521,-0.002 0.66508,-0.003 0.0314,0.0187 0.0607,0.0172 0.0911,0 0.48261,-0.002 0.99107,-0.004 1.46194,-0.006 0.10857,0.01 0.19788,0.009 0.26781,-0.002 1.57286,-0.008 3.03371,-0.0165 4.4451,-0.0256 1.2e-4,0 0,0 0,0 0.0211,0.0208 0.0901,0.0352 0.20542,0.0399 0.13427,0.005 0.22988,-0.0121 0.26432,-0.0427 0.15837,-0.002 0.34521,-0.002 0.50114,-0.003 l 0.0442,0.0539 2.32506,0.004 c 1.31009,0.002 1.88723,-0.0123 2.10684,-0.0958 0.26065,-0.003 0.43115,-0.006 0.67826,-0.009 0.28648,0.10603 0.90212,0.12656 1.32087,0.0701 0.17016,0.0641 0.37262,0.0414 0.40927,-0.0926 1.18083,-0.0171 2.15177,-0.035 2.80719,-0.0547 0.34495,0.22211 0.3737,0.22066 0.37402,-0.0101 0.46855,-0.0171 0.74368,-0.0346 0.767,-0.0535 0.23769,-0.19351 0.27125,-0.19381 0.15621,-0.002 -0.0356,0.0592 1.00918,0.10372 3.27383,0.13913 0.28516,0.0651 0.59187,0.11124 0.79957,0.11124 0.0992,0 0.18199,-0.0115 0.25659,-0.0275 0.11526,-0.004 0.20008,-0.0249 0.24996,-0.064 0.32541,0.004 0.7455,0.007 1.11158,0.0101 0.10918,0.0867 0.14855,0.0899 0.14379,0.002 0.57196,0.005 1.22581,0.0101 1.89951,0.0147 0.0926,0.0879 0.17968,0.0918 0.25074,0.002 0.59887,0.004 1.17362,0.008 1.85417,0.0113 0.32236,0.0308 0.66653,0.0523 0.98755,0.0523 0.22558,0 0.37088,-0.003 0.52671,-0.006 0.0441,0.004 0.0923,0.006 0.14843,0.006 0.0838,0 0.15556,-0.007 0.21626,-0.019 0.0743,-0.006 0.13581,-0.0143 0.18371,-0.0248 0.24033,0.002 0.48106,0.002 0.7302,0.003 0.0187,0.0258 0.0416,0.0411 0.0694,0.0411 0.0226,0 0.0619,-0.0169 0.10658,-0.0403 0.1271,0.0818 0.25196,0.0946 0.31704,0.002 1.56479,0.005 3.33724,0.0109 5.25203,0.0151 0.27688,0.009 0.56356,0.0131 0.85227,0.008 l 0.33797,-0.006 c 1.30595,0.002 2.56036,0.006 4.02922,0.008 0.0767,0.004 0.14996,0.004 0.2213,0 1.30039,0.002 3.35539,0.002 4.78812,0.003 0.0208,0.005 0.042,0.0109 0.0612,0.0109 0.0191,0 0.0326,-0.006 0.0469,-0.0109 h 0.0127 c 0.042,0.006 0.0846,0.0109 0.12714,0.0109 0.0417,0 0.0801,-0.005 0.11781,-0.0109 0.40334,0 0.92433,0 1.33829,0.002 0.26093,0.06 0.55589,0.0619 0.77129,0 h 1.17822 c 0.0789,0.006 0.16908,0.009 0.28409,0.009 0.0598,0 0.10708,-0.005 0.15891,-0.009 4.04768,0.003 7.45758,0.007 12.50276,0.008 5.10828,0 8.52943,-0.002 12.60936,-0.005 0,0.003 0.007,0 0.0105,0 h 1.74796 c 0.009,0.002 0.0172,0.006 0.0268,0.006 0.0227,0 0.0437,-0.003 0.064,-0.006 h 2.34095 c 0.0226,0.0101 0.0521,0.01 0.0876,0 1.24979,0 3.05067,0 4.19782,-0.002 0.0259,0.002 0.0547,0.002 0.0868,0 3.87421,-0.005 7.2859,-0.0104 10.07965,-0.0187 0.0389,0.017 0.0818,0.0268 0.12712,0.0268 0.0568,0 0.10279,-0.0105 0.13797,-0.0279 0.28526,0 0.51062,-0.002 0.78522,-0.003 0.0243,0.0181 0.0468,0.0311 0.0631,0.0311 0.0165,0 0.031,-0.0133 0.0442,-0.0314 0.43912,-0.002 0.85009,-0.003 1.26232,-0.005 0.0371,0.0218 0.0711,0.0361 0.0981,0.0361 0.0469,0 0.09,-0.0153 0.13061,-0.0368 0.2163,0 0.46125,-0.002 0.67013,-0.003 0.0379,0.0881 0.0991,0.10355 0.16238,0 0.36535,-0.002 0.83931,-0.002 1.18212,-0.005 0.10656,0.0412 0.2381,0.0432 0.37903,0.005 0.28153,0.0187 0.52824,0.0187 0.63447,-0.0105 0.50937,-0.003 0.89501,-0.007 1.35031,-0.0101 0.0131,0.0374 0.0481,0.0609 0.10387,0.0609 0.0568,0 0.12287,-0.0247 0.18294,-0.0632 1.27085,-0.01 2.35498,-0.021 3.2219,-0.0337 0.0149,0.0351 0.0671,0.0301 0.13565,-0.002 0.0407,0 0.0815,-0.002 0.12131,-0.002 0.0448,0.01 0.0911,0.0159 0.13722,0.0159 0.057,0 0.1057,-0.008 0.14997,-0.0202 2.07195,-0.0352 3.03247,-0.0802 3.03627,-0.13952 0.0123,-0.19684 0.037,-0.1976 0.11549,-0.003 0.004,0.0113 0.0901,0.0223 0.24999,0.033 0.031,0.0344 0.0625,0.0659 0.0942,0.0922 0.0117,0.0512 0.0815,0.0909 0.18875,0.10968 0.0798,0.0278 0.15658,0.0305 0.22594,0.009 0.17661,-0.0125 0.25575,-0.067 0.25194,-0.17828 0.45298,0.0143 1.08722,0.0274 1.81812,0.0403 -0.007,0.002 -0.0145,0.003 -0.0213,0.006 -0.15834,0.0634 -0.11141,0.11062 0.11976,0.12015 0.20946,0.009 0.32644,-0.0383 0.26044,-0.10426 -0.007,-0.007 -0.0188,-0.0103 -0.0279,-0.0159 0.41053,0.007 0.94866,0.0127 1.43015,0.019 0.0561,0.0684 0.11603,0.11666 0.15115,0.11666 0.0344,0 0.064,-0.0472 0.0783,-0.11395 0.14253,0.002 0.30642,0.003 0.45463,0.005 0.0614,0.0649 0.13119,0.10891 0.19263,0.10891 0.058,0 0.0934,-0.0418 0.10541,-0.10543 0.24181,0.003 0.46837,0.005 0.72398,0.008 0.009,0.0712 0.0779,0.0766 0.21743,0.0202 0.0111,-0.005 0.0302,-0.0121 0.0422,-0.017 0.26437,0.003 0.45695,0.006 0.73486,0.009 0.007,0.0512 0.0419,0.0857 0.10658,0.0857 0.0614,0 0.11758,-0.0326 0.15929,-0.0825 0.10233,0 0.22773,0.002 0.33177,0.002 0.15752,0.0972 0.37876,0.10389 0.47012,0.004 1.09514,0.009 2.28718,0.0181 3.54708,0.026 0.0712,0.031 0.16579,0.0508 0.27093,0.0508 0.088,0 0.16538,-0.0194 0.23138,-0.0469 0.23682,0.002 0.45501,0.003 0.69685,0.005 0.0443,0.0159 0.0827,0.0171 0.11859,0 3.0472,0.0175 6.52395,0.0306 10.19089,0.0411 0.002,2e-5 0.002,0 0.003,0 h 0.006 c 4.02129,0.0115 8.34544,0.0163 12.72176,0.0194 0.0716,0.0197 0.14712,0.0194 0.22167,0 9.08768,0.006 18.38808,-0.002 26.27408,-0.0322 0.0121,0.007 0.0239,0.0131 0.0325,0.0131 0.009,0 0.0209,-0.006 0.0333,-0.0135 1.58493,-0.006 3.0257,-0.0137 4.473,-0.0213 0.0137,0.0199 0.0288,0.0349 0.0461,0.0349 0.0147,0 0.0348,-0.0107 0.0562,-0.0256 0.0684,0.0343 0.11525,0.032 0.15155,-0.0105 0.10957,0 0.23082,0 0.3395,-0.002 0.008,0.022 0.0464,0.0335 0.12053,0.0345 0.0423,0 0.0864,-0.0145 0.12984,-0.0357 0.59344,-0.004 1.1717,-0.007 1.73633,-0.0101 0.003,8e-5 0.006,-8e-5 0.01,0 0.91717,-0.006 1.72981,-0.0121 2.56341,-0.0187 0.63754,0.0196 1.31649,0.0337 1.99641,0.0422 0.0123,0.0147 0.0256,0.0256 0.0403,0.0256 0.0147,0 0.0343,-0.0105 0.0554,-0.0252 2.13913,0.0248 4.22102,-0.009 4.8284,-0.11976 0.53892,-0.01 1.00442,-0.0203 1.3821,-0.031 0.004,0.0202 0.0105,0.0394 0.0221,0.0574 -0.0161,0.0157 -0.0256,0.0298 -0.0256,0.0407 0,0.0832 0.10164,0.0979 0.21548,0.0678 0.0233,0.005 0.0458,0.0101 0.071,0.0101 0.15726,0 0.341,-0.0893 0.4085,-0.19844 0,0 0,-0.002 0.002,-0.003 0.32209,-0.0149 0.54715,-0.0301 0.55307,-0.0465 0.0711,-0.19548 0.17492,-0.1951 0.50928,0.002 0.53377,0.31512 1.66265,0.32097 1.97352,0.0101 0.18489,-0.18598 0.23799,-0.18582 0.23799,0 0,0.34165 7.67021,0.32111 7.81001,-0.0209 0.0683,-0.16696 0.14617,-0.17425 0.26122,-0.0245 0.2166,0.28222 3.04131,0.32514 3.04131,0.0461 0,-0.14096 0.0806,-0.14437 0.24805,-0.0101 0.084,0.0672 0.44458,0.11892 0.9445,0.15656 0.1762,0.12004 0.49977,0.12165 0.72942,0.0372 1.08085,0.0446 2.42416,0.0425 3.44941,-0.007 0.0376,0.0353 0.0727,0.0578 0.0965,0.0578 0.025,0 0.0475,-0.0256 0.0635,-0.0647 0.1828,-0.0101 0.36259,-0.02 0.51353,-0.0333 0.0704,0.0349 0.17386,0.0533 0.29028,0.0446 0.16006,-0.0121 0.2722,-0.0634 0.29379,-0.12519 0.0866,-0.0208 0.15331,-0.0434 0.17091,-0.0683 0.14055,-0.19849 0.19588,-0.19839 0.27635,0 0.0704,0.17346 0.54896,0.25123 1.03289,0.23914 0.0275,0.003 0.0579,0.005 0.0891,0.006 0.005,1.6e-4 0.008,0.002 0.0129,0.002 h 0.007 c 0.005,8e-5 0.0103,0 0.0159,0 0.0458,0 0.0879,-0.008 0.12674,-0.0202 0.32918,-0.0309 0.62699,-0.10611 0.75692,-0.22674 0.21385,-0.19844 0.23918,-0.19844 0.12715,0 -0.10269,0.18195 0.088,0.24721 0.71507,0.24496 0.6249,-0.002 0.77498,-0.0547 0.55733,-0.19535 -0.25448,-0.16441 -0.24717,-0.19308 0.0496,-0.19532 0.19102,-0.002 0.34727,0.0847 0.34727,0.19222 0,0.0661 1.83534,0.11553 4.58694,0.15 0.034,0.0301 0.0655,0.0504 0.0872,0.0504 0.0211,0 0.0398,-0.0197 0.055,-0.0485 0.15649,0.002 0.30052,0.004 0.46276,0.006 0.03,0.0249 0.058,0.0427 0.0775,0.0427 0.019,0 0.0359,-0.0172 0.0504,-0.0415 0.57479,0.006 1.29784,0.009 1.93477,0.0143 0.038,0.0157 0.0756,0.0272 0.11007,0.0272 0.0346,0 0.0608,-0.0101 0.0794,-0.0259 0.42268,0.003 0.82884,0.007 1.2732,0.01 0.0231,0.01 0.0457,0.0163 0.067,0.0163 0.0338,0 0.0588,-0.006 0.0783,-0.0151 0.66123,0.004 1.25558,0.009 1.95337,0.0117 0.003,0 0.007,0.004 0.01,0.004 0.002,0 0.004,-0.003 0.007,-0.004 3.10077,0.0123 6.43747,0.0113 9.6134,0 0.005,0 0.0104,0.003 0.0151,0.003 0.005,0 0.007,-0.002 0.0121,-0.003 0.16023,0 0.32661,0 0.48563,-0.002 0.0323,0 0.0587,0.004 0.0922,0.004 0.0504,0 0.0922,-0.003 0.13914,-0.005 0.002,-6e-5 0.004,0 0.006,0 0.002,0 0.003,3e-5 0.004,0 0.0363,0.003 0.075,0.005 0.11821,0.005 0.0179,0 0.0356,-0.005 0.0535,-0.005 0.40624,-0.002 0.80609,-0.002 1.20185,-0.005 0.0153,0.004 0.0298,0.01 0.0461,0.01 0.0177,0 0.0336,-0.006 0.05,-0.0105 1.15868,-0.006 2.17992,-0.0151 3.20758,-0.0244 0.0578,0.0255 0.0868,0.0251 0.0891,0 0.33813,-0.003 0.74061,-0.004 1.06001,-0.008 0.0135,0.009 0.0314,0.009 0.0535,0 0.27694,-0.003 0.5558,-0.006 0.81701,-0.009 1.3e-4,-10e-6 0,0 0,0 0.0188,0.005 0.0337,0.005 0.0449,0 0.9348,-0.0119 1.73433,-0.0261 2.4239,-0.0415 0.002,0.002 0.003,0.002 0.005,0.004 0.0107,0.007 0.0221,0.0109 0.0333,0.0159 0.0365,0.0452 0.0901,0.076 0.15233,0.076 0.0742,0 0.13686,-0.0428 0.17091,-0.10349 1.15575,-0.0289 1.89447,-0.0625 1.91928,-0.1027 0.0896,-0.14536 0.20516,-0.146 0.37828,-0.002 0.0137,0.0113 0.0578,0.0219 0.11626,0.0322 0.0117,0.0981 0.0926,0.17595 0.1938,0.17595 0.0877,0 0.16042,-0.0586 0.18641,-0.13797 0.17626,0.0139 0.3912,0.0266 0.65346,0.038 0.0539,0.0589 0.14925,0.10039 0.26277,0.10039 0.055,0 0.10008,-0.01 0.13488,-0.0263 0.0363,-0.01 0.0613,-0.029 0.0725,-0.0551 0.38017,0.0125 0.81544,0.0232 1.29374,0.0322 0.0336,0.0296 0.0649,0.0492 0.0864,0.0492 0.0213,0 0.0399,-0.0193 0.055,-0.0477 1.85911,0.0332 4.28211,0.0387 6.63762,0.0229 0.021,0.0142 0.0401,0.0244 0.0547,0.0244 0.0147,0 0.0277,-0.0104 0.0399,-0.0252 2.89611,-0.0203 5.6012,-0.073 6.78566,-0.15814 0.0111,0.12941 0.124,0.13095 0.36433,0.002 0.0308,-0.0165 0.0606,-0.0305 0.0895,-0.0426 0.11418,-0.0157 0.18559,-0.0323 0.19726,-0.0496 1.2e-4,-2e-5 0,0 0,0 0.0529,-0.004 0.1019,0.003 0.14806,0.0199 4e-5,0.003 0,0.004 0,0.007 0,0.074 0.0831,0.12824 0.24999,0.16782 0.059,0.0349 0.11748,0.0459 0.18062,0.0322 0.17209,0.023 0.42224,0.035 0.71275,0.0411 0.0322,0.019 0.0654,0.0213 0.0945,0.002 0.088,0.002 0.15481,0.005 0.25349,0.005 1.04992,0 1.49253,-0.0731 1.50378,-0.24805 0.0119,-0.18792 0.0397,-0.19014 0.11317,-0.009 0.003,0.008 0.0414,0.0157 0.0973,0.0233 0.0734,0.18899 0.27757,0.19999 0.8771,0.19999 0.45267,0 0.7015,-0.0287 0.84529,-0.12171 0.27616,0.008 0.59987,0.0143 0.93289,0.0213 -0.0884,0.0943 0.0528,0.12875 0.49183,0.13062 0.0442,1.8e-4 0.0855,-0.003 0.12752,-0.005 0.0282,0.003 0.0545,0.007 0.086,0.007 0.0415,0 0.0942,-0.0137 0.15232,-0.0349 0.0865,-0.017 0.17032,-0.044 0.25387,-0.0767 0.38387,0.007 0.77857,0.0127 1.20962,0.0187 -0.0362,0.087 0.0587,0.0934 0.30192,0.0934 0.0334,0 0.0675,-0.003 0.10154,-0.008 0.0201,0.002 0.0388,0.008 0.0601,0.008 0.10454,0 0.17637,-0.0336 0.20076,-0.0849 1.50482,0.0188 3.18455,0.0355 5.0877,0.0488 0.0268,0.0209 0.0516,0.0361 0.0694,0.0361 0.0175,0 0.0331,-0.0145 0.0469,-0.0349 0.37882,0.002 0.79218,0.005 1.18289,0.007 0.0411,0.0159 0.0862,0.0272 0.13643,0.0272 0.0194,0 0.0394,-0.005 0.0593,-0.008 0.0131,0.003 0.0255,0.009 0.0395,0.009 0.0321,0 0.0676,-0.0111 0.10348,-0.0263 1.39643,0.008 2.87628,0.0139 4.38309,0.0194 0.19129,0.034 0.35258,0.0325 0.48291,0.002 0.58197,0.002 1.17895,0.003 1.77083,0.005 0.006,1.1e-4 0.0107,0.002 0.0167,0.002 0.01,0 0.0181,-0.002 0.0275,-0.002 4.67366,0.0125 9.51462,0.0157 13.95462,0.002 1.7284,-0.005 3.34576,-0.0135 4.88035,-0.0233 0.0176,0.002 0.0372,0.002 0.0574,0 0.8658,-0.005 1.72089,-0.0109 2.50219,-0.0179 0.15207,0.0284 0.36264,0.0415 0.65113,0.0415 0.12873,0 0.23482,-0.005 0.33564,-0.0117 0.22092,-0.006 0.44782,-0.0226 0.67514,-0.0473 0.87022,-0.01 1.6379,-0.0204 2.33397,-0.0322 0.007,0 0.0137,0 0.0206,0.002 0.0358,0.0528 0.0934,0.0899 0.16161,0.0899 0.0598,0 0.11198,-0.0284 0.14845,-0.0705 0.23258,0.0105 0.48684,0.0182 0.75576,0.0217 0.37675,0.005 0.69999,0 0.98445,-0.009 0.0653,0.0352 0.15516,0.0574 0.25463,0.0574 0.0735,0 0.14782,-0.0296 0.22053,-0.0806 0.2116,-0.0171 0.35235,-0.0383 0.32596,-0.0647 -0.006,-0.006 -0.009,-0.0137 -0.0123,-0.0209 0.30262,-0.0159 0.50046,-0.0326 0.53447,-0.0508 0.27143,-0.14718 0.3665,-0.15033 0.27905,-0.009 -0.007,0.0121 0.0712,0.0235 0.18991,0.0345 -0.10209,0.15968 0.0321,0.16542 0.5988,0.0767 0.0701,-0.0109 0.13531,-0.026 0.20153,-0.0403 0.384,0.0135 0.89319,0.0263 1.53946,0.0376 -0.0188,0.136 0.20803,0.14506 0.43524,0.045 0.19324,0.019 0.44492,0.0279 0.77786,0.0279 0.32032,0 0.6052,-0.0175 0.83136,-0.0442 0.30361,0.003 0.67379,0.006 1.00963,0.009 l 0.0492,0.0794 h 1.48558 c 0.45455,0 0.85823,-0.0232 1.13132,-0.0593 1.32412,0.008 2.82017,0.0145 4.49084,0.0201 0.34806,0.0135 0.72348,0.0237 1.12318,0.0272 0.69543,0.006 1.21718,0.002 1.61775,-0.0109 0.0805,0.0135 0.16726,0.0233 0.26122,0.0233 0.10695,0 0.20985,-0.0129 0.30697,-0.0302 0.35371,0 0.69094,0.002 1.05729,0.003 0.0731,0.0115 0.16842,0.0163 0.26704,0.0205 0.0241,0.002 0.0487,0.002 0.0733,0.004 0.029,0 0.0506,0.004 0.0814,0.004 h 0.0166 0.005 0.0155 c 0.16139,-0.002 0.30437,-0.0115 0.4275,-0.026 h 0.84181 c 0.0261,0.0149 0.0545,0.0252 0.086,0.0252 0.0313,0 0.066,-0.0105 0.10115,-0.0252 h 0.73019 c 0.0262,0.0163 0.0943,0.0216 0.21006,0.0225 0.0548,0 0.11066,-0.009 0.16511,-0.022 h 1.03483 c 0.0282,0.0172 0.0745,0.0163 0.14302,0 h 1.24837 c 0.0117,0.0133 0.0245,0.0225 0.0384,0.0225 0.0139,0 0.032,-0.009 0.0519,-0.022 2.37617,0.002 4.53825,0.005 7.33678,0.005 0.01,0.002 0.0175,0.002 0.0233,0 h 0.55888 c 0.0239,0.0104 0.05,0.0159 0.0775,0.0159 0.0273,0 0.0534,-0.005 0.0771,-0.0154 h 0.11511 c 1.50605,-8e-5 2.55178,-0.003 3.94706,-0.004 0.0785,0.0172 0.16184,0.0177 0.24145,0 0.53325,0 0.99888,-0.002 1.51581,-0.002 0.0879,0.0511 0.19811,0.0517 0.32596,0 1.23295,-0.002 2.50107,-0.002 3.64009,-0.004 0.002,0 0.0197,0.006 0.0209,0.007 0.007,0.002 0.01,-0.002 0.0117,-0.007 0.33314,0 0.74034,0 1.06543,-0.002 0.0123,0.0153 0.0262,0.026 0.0411,0.026 0.0151,0 0.0352,-0.0107 0.057,-0.026 0.76473,-0.002 1.79178,0 2.51187,-0.002 0.0391,0.0208 0.068,0.0207 0.0876,0 0.20586,0 0.38768,-0.002 0.58987,-0.002 0.0314,0.0161 0.0581,0.0154 0.0826,0 0.17185,0 0.31139,-0.002 0.48058,-0.002 0.0361,0.0212 0.0874,0.0333 0.15077,0.0333 0.0482,0 0.0925,-0.0119 0.13179,-0.0341 1.45028,-0.004 2.87864,-0.008 4.13037,-0.0127 0.0954,0.0343 0.15492,0.0349 0.18022,0 0.29746,-0.002 0.52785,-0.003 0.81391,-0.005 0.0964,0.0306 0.28433,0.0477 0.56004,0.0488 0.22844,0 0.43531,-0.0202 0.58757,-0.0547 0.66967,-0.004 1.4187,-0.006 2.0185,-0.0101 0.0113,0.002 0.0217,0.002 0.0333,0.003 0.036,0.005 0.0775,0.007 0.11551,0.0113 0.0204,0.002 0.0351,0.004 0.0562,0.004 0.27375,0.0263 0.58284,0.0444 0.90189,0.0454 0.40864,0 0.74418,-0.0181 1.01854,-0.0628 0.10003,-0.007 0.19925,-0.0133 0.28875,-0.0217 0.62879,-0.006 1.20444,-0.0121 1.72004,-0.0187 0.0753,0.12561 0.18199,0.13001 0.29611,-0.004 0.14693,-0.002 0.28871,-0.004 0.42557,-0.006 -0.0421,0.15275 0.16038,0.14014 0.34842,-0.005 1.65005,-0.0273 2.56691,-0.0596 2.56691,-0.0977 0,-0.11033 0.08,-0.15114 0.1779,-0.0907 0.0979,0.0605 0.18356,-0.38386 0.19106,-0.98753 0.008,-0.65596 -0.0637,-1.04997 -0.17788,-0.97941 -0.10509,0.065 -0.19108,0.0233 -0.19108,-0.0922 0,-0.11558 0.0892,-0.21007 0.19845,-0.21007 0.27622,0 0.24836,-0.66431 -0.0399,-0.95266 -0.17844,-0.17761 -0.18003,-0.23797 -0.007,-0.23797 0.0753,0 0.12817,-0.85565 0.1655,-2.78278 0.0438,-0.01 0.0795,-0.092 0.0795,-0.19456 0,-0.0593 -0.0292,-0.11123 -0.0733,-0.14769 0.002,-0.11575 0.005,-0.20704 0.006,-0.33019 0.0133,-0.006 0.0268,-0.0113 0.0372,-0.0217 0.0379,-0.0379 0.0202,-0.11955 -0.0325,-0.20775 0.002,-0.14923 0.004,-0.3505 0.005,-0.51005 0.0348,-0.0157 0.057,-0.0372 0.057,-0.0608 0,-0.0232 -0.0217,-0.0572 -0.0554,-0.0938 0.008,-0.68337 0.0153,-1.45529 0.0213,-2.33088 0.005,-0.14157 0.009,-0.27898 0.0121,-0.44532 0.005,-0.20368 0.002,-0.3623 0.002,-0.52826 -8e-5,-0.15696 1.6e-4,-0.31679 -0.005,-0.44184 0.0121,-2.37366 0.0193,-5.28514 0.0213,-8.98397 0.006,-11.04331 0,-14.95816 -0.10968,-16.30643 0.11245,-0.16623 0.15601,-0.37377 0.0445,-0.48525 -0.025,-0.0251 -0.0669,-0.0262 -0.11395,-0.0187 -0.0431,-0.1653 -0.0959,-0.18973 -0.16123,-0.17132 -0.19231,0.0542 -0.66254,0.16132 -1.04452,0.23797 -0.38198,0.0767 -0.87035,0.26184 -1.0856,0.4116 -0.21532,0.14977 -0.5678,0.27248 -0.78329,0.27248 -0.21538,0 -0.74587,0.24557 -1.179,0.5457 -0.0821,0.0569 -0.15776,0.10659 -0.23176,0.1527 -0.12384,0.0587 -0.25298,0.11819 -0.36316,0.17518 -0.0511,0.0265 -0.0942,0.0469 -0.14146,0.0706 -0.43059,0.14549 -1.00492,0.19062 -2.23476,0.2465 -0.24384,0.0111 -0.43437,0.025 -0.63718,0.0383 -0.94216,-0.054 -1.22062,-0.0133 -1.5379,0.22945 -0.0414,0.0223 -0.0733,0.0453 -0.0852,0.0701 -0.0194,0.0163 -0.0374,0.0298 -0.0577,0.0477 -0.0876,0.077 -0.17277,0.13971 -0.25619,0.18992 -0.28563,0.0303 -0.79199,-0.10146 -1.66851,-0.40928 -1.11,-0.38983 -1.31279,-0.40662 -2.03399,-0.1686 -0.62137,0.20505 -0.91449,0.2127 -1.30652,0.0341 -0.65875,-0.30015 -1.43494,-0.27897 -2.03825,0.05 -0.0951,0.0365 -0.19535,0.0773 -0.30927,0.12907 -0.0101,0.005 -0.0226,0.009 -0.0329,0.0131 -0.29536,0.0947 -0.6787,0.16321 -0.99335,0.16587 -0.44206,0.004 -0.89041,0.0939 -0.99645,0.19998 -0.10604,0.10607 -0.77157,0.28361 -1.4786,0.39456 -0.7071,0.11093 -1.68739,0.28696 -2.17856,0.39146 -0.49109,0.10454 -1.34311,0.14012 -1.89369,0.0791 -0.55057,-0.0611 -1.52186,-0.003 -2.15802,0.12906 -1.05186,0.21839 -1.20389,0.20556 -1.6778,-0.14261 -0.28666,-0.21063 -0.80484,-0.43887 -1.15149,-0.50735 -0.34665,-0.0685 -1.03384,-0.31423 -1.52705,-0.54608 -1.00531,-0.47253 -1.41683,-0.41234 -2.30761,0.33718 -0.49088,0.41309 -0.68753,0.4678 -1.13986,0.31703 -0.22971,-0.0766 -0.4306,-0.0921 -0.67477,-0.0383 l -0.007,-0.0306 -0.0919,0.0542 c -0.18472,0.0524 -0.3969,0.14134 -0.66623,0.27479 -0.36043,0.17858 -0.91249,0.36384 -1.39683,0.47905 -0.0179,0.002 -0.0385,0.005 -0.0539,0.005 -0.0953,0 -0.19147,0.0131 -0.2864,0.0349 -0.10285,0.0165 -0.1934,0.0389 -0.26744,0.0706 -0.83283,0.10585 -0.93161,0.0556 -1.56774,-0.60694 -0.88358,-0.92042 -1.97198,-1.48247 -2.87114,-1.48247 -0.64285,0 -0.74341,0.081 -1.14918,0.92668 -0.44145,0.92018 -0.45159,0.92685 -1.48944,0.96157 -0.82306,0.0275 -1.20259,0.15866 -1.78594,0.61703 -1.42892,1.12269 -1.76926,1.26505 -3.02618,1.26505 -1.16004,0 -1.21613,-0.0232 -1.41273,-0.58718 -0.25904,-0.74328 -0.77583,-0.90978 -1.56153,-0.50346 l -0.19495,0.10077 c -0.10155,0.0135 -0.19275,0.047 -0.25386,0.10812 -0.009,0.009 -0.0149,0.0216 -0.0209,0.0341 l -0.14651,0.0756 -0.93792,-0.99918 c -0.9249,-0.98513 -0.94836,-0.99606 -1.68944,-0.79143 -0.11855,0.0328 -0.2169,0.0559 -0.30812,0.074 -0.10159,0.008 -0.19312,0.0143 -0.3244,0.0275 -0.24009,-0.0173 -0.43942,-0.13815 -0.79996,-0.41315 -0.37448,-0.28563 -0.68097,-0.59994 -0.68097,-0.6984 0,-0.31074 -1.356,-0.57613 -1.99987,-0.39147 -0.57671,0.16542 -1.84551,0.83845 -2.60258,1.33133 -0.12649,0.0631 -0.25547,0.15559 -0.39494,0.27867 -0.0646,0.0514 -0.12838,0.10199 -0.162,0.13992 l -0.002,0.002 c -0.0951,0.0779 -0.19822,0.14464 -0.30115,0.20657 -0.21092,0.0464 -0.5428,0.0625 -0.98832,0.0446 -1.01273,-0.041 -1.21432,0.0127 -1.50766,0.40154 -0.30816,0.40856 -0.38929,0.42567 -0.90265,0.18913 -1.11113,-0.51197 -3.87978,-1.11756 -6.41824,-1.40419 -0.81856,-0.0924 -1.84546,-0.26182 -2.28204,-0.37634 -0.43659,-0.11451 -1.42397,-0.31198 -2.19445,-0.43873 -1.19925,-0.19726 -1.48805,-0.18516 -2.00802,0.0837 -0.39384,0.20338 -0.85686,0.27352 -1.31698,0.19882 -0.6277,-0.10185 -1.05614,-0.0719 -1.50689,0.16936 -0.13359,0.0293 -0.24519,0.10543 -0.36355,0.23681 -0.18156,0.1362 -0.37328,0.30232 -0.59027,0.51082 -0.9774,0.93916 -1.58731,1.01867 -2.9727,0.38758 -0.88988,-0.40541 -2.09158,-0.45068 -2.85178,-0.10773 -0.20091,0.0906 -0.58688,-0.0802 -1.09141,-0.48292 -0.74581,-0.59544 -0.83673,-0.61755 -2.04949,-0.49495 -0.97725,0.0988 -1.46804,0.27112 -2.13321,0.74881 -0.4752,0.34125 -0.8643,0.69649 -0.8643,0.78948 0,0.005 -0.003,0.0115 -0.005,0.0171 -0.17093,0.13964 -0.33308,0.25847 -0.48486,0.36239 -0.0193,0.009 -0.0364,0.0193 -0.0562,0.0279 -0.13218,0.0578 -0.31716,0.1605 -0.51237,0.27789 -0.0616,0.028 -0.11448,0.0636 -0.16318,0.10077 -0.19758,0.12466 -0.3981,0.25928 -0.56469,0.38525 -0.58582,0.44298 -0.89684,0.52557 -1.98787,0.52557 -1.62323,0 -3.13826,0.61511 -4.02341,1.63207 -1.35421,1.55591 -2.55165,2.06294 -4.84313,2.05026 -1.02886,-0.006 -1.32995,-0.0914 -1.84176,-0.52205 -0.59601,-0.50153 -0.66936,-0.51255 -2.8041,-0.42013 -2.18333,0.0945 -3.189,0.37229 -3.40716,0.94103 -0.12533,0.32645 -2.86689,0.73601 -3.96257,0.59182 -0.50529,-0.0665 -1.02277,0.0327 -1.61114,0.30929 -0.53926,0.25346 -1.25689,0.40483 -1.89912,0.39958 -0.7585,-0.006 -0.99189,0.0299 -1.37085,0.41084 -0.15155,0.14351 -0.32865,0.34373 -0.57555,0.63794 -0.002,0.002 -0.002,0.003 -0.004,0.005 -0.64071,0.69548 -0.90876,0.67637 -1.52898,0.0562 -0.38888,-0.3889 -0.6125,-0.47194 -0.95149,-0.35385 -0.24376,0.0849 -1.08605,0.13268 -1.87199,0.10619 -1.07867,-0.0363 -1.37006,-0.0113 -1.55573,0.22209 -0.043,0.0241 -0.0695,0.0646 -0.0818,0.12285 -0.005,0.009 -0.0107,0.0163 -0.0159,0.026 -0.12331,0.23038 -0.53925,0.55067 -0.92436,0.71158 -0.32141,0.1343 -0.58797,0.34058 -0.76081,0.57942 -0.0949,0.081 -0.16584,0.20345 -0.2062,0.36433 -0.005,0.0225 -0.0137,0.0452 -0.0209,0.0678 -0.28702,0.50975 -1.01051,1.03743 -1.48557,1.05111 -0.14685,0.004 -0.44762,0.29442 -0.66856,0.64492 -0.39279,0.62306 -0.43482,0.63739 -1.88516,0.64608 -0.87916,0.005 -1.66407,-0.0966 -1.92663,-0.25037 -0.65297,-0.3823 -1.87428,-0.17401 -2.23361,0.38061 -0.52177,0.80539 -1.3259,1.52362 -1.85377,1.6561 -0.38805,0.0974 -0.74575,-0.0287 -1.46426,-0.51586 -0.98685,-0.66921 -1.78082,-0.95292 -3.13353,-1.12048 -0.57067,-0.0707 -1.01682,-0.31266 -1.58751,-0.86081 -0.85507,-0.82137 -2.4548,-1.48088 -3.16183,-1.30342 -0.24023,0.0603 -0.9005,-0.0668 -1.46736,-0.28216 -0.56678,-0.21536 -1.23894,-0.39144 -1.49372,-0.39144 -0.25477,0 -0.62488,-0.17859 -0.82243,-0.39687 -0.19754,-0.21828 -0.59329,-0.39688 -0.87979,-0.39688 -0.33622,0 -0.74873,-0.24129 -1.1631,-0.68058 -0.53791,-0.57028 -0.82627,-0.70162 -1.77976,-0.81003 -1.68569,-0.19163 -1.74548,-0.22297 -2.8692,-1.49954 -0.94807,-1.07706 -1.10512,-1.17705 -1.84875,-1.17705 -0.44706,0 -1.29816,-0.14405 -1.89098,-0.32014 -0.81726,-0.24277 -1.46151,-0.28725 -2.66534,-0.18372 -2.5185,0.2166 -3.27107,0.14629 -4.18736,-0.39067 -0.73267,-0.42939 -0.91242,-0.4608 -1.49757,-0.26122 -0.36571,0.12474 -0.91737,0.43603 -1.22592,0.69142 -0.65939,0.54593 -0.73057,0.55568 -1.23675,0.17286 -0.23302,-0.17624 -0.84014,-0.2939 -1.53712,-0.29765 -0.99959,-0.005 -1.22299,-0.08 -1.68672,-0.56393 -0.29401,-0.30678 -0.91968,-0.7247 -1.39022,-0.92861 -0.80701,-0.34977 -0.88749,-0.35199 -1.41969,-0.0376 -0.31027,0.18329 -0.75039,0.33331 -0.97824,0.33331 -0.22778,0 -0.52562,0.17859 -0.66199,0.39688 -0.13627,0.21828 -0.45383,0.39687 -0.70537,0.39687 -0.24195,0 -0.48337,0.11631 -0.79686,0.40075 -0.0109,-0.002 -0.022,-0.005 -0.0341,-0.005 -0.0813,0 -0.26301,0.22509 -0.43293,0.48989 -0.10632,0.12128 -0.21781,0.25181 -0.34145,0.40346 -0.2967,0.36396 -1.04398,0.33609 -2.50528,-0.093 -0.43659,-0.12819 -1.27961,-0.31988 -1.87354,-0.42595 -0.594,-0.10604 -1.42282,-0.38562 -1.84214,-0.62128 l -0.76236,-0.42828 -0.47983,0.51743 c -0.59835,0.64534 -1.95201,0.9273 -2.44596,0.50965 -0.47485,-0.40138 -1.80716,-1.14489 -2.05144,-1.14489 -0.11295,0 -0.43254,-0.1786 -0.71005,-0.39688 -0.32361,-0.25455 -0.80478,-0.39687 -1.34215,-0.39687 -0.77078,0 -0.92743,0.0968 -1.95222,1.20575 l -1.11429,1.20535 -1.08792,-0.13565 c -0.91883,-0.11479 -1.19621,-0.0692 -1.78362,0.29378 -0.54457,0.33658 -0.78038,0.38431 -1.08715,0.22014 -0.21546,-0.11532 -0.68806,-0.21084 -1.04993,-0.21084 -0.36187,0 -0.92566,-0.17862 -1.25302,-0.39534 -0.4126,-0.27304 -0.7823,-0.35954 -1.20343,-0.28136 -0.49177,0.0913 -0.73161,-0.003 -1.25691,-0.49377 l -0.64918,-0.60655 -2.61265,-0.004 c -1.43684,-0.002 -3.01443,0.0966 -3.50561,0.21935 -1.31234,0.32794 -2.5099,0.24857 -3.2626,-0.21665 -0.36173,-0.22352 -1.0873,-0.45722 -1.61231,-0.51896 -0.52507,-0.0617 -1.18989,-0.23401 -1.47783,-0.38292 -0.28791,-0.14889 -1.4991,-0.36854 -2.69131,-0.48834 -1.1922,-0.11981 -3.11927,-0.40557 -4.2823,-0.63484 l -2.11422,-0.41664 -1.16001,0.4678 c -0.63782,0.25725 -1.49242,0.67078 -1.89952,0.91932 -0.40709,0.24854 -0.82407,0.45191 -0.9263,0.45191 -0.10222,0 -0.35918,0.23829 -0.57129,0.52942 -0.33165,0.4553 -0.5157,0.5244 -1.3158,0.49416 -0.51159,-0.0193 -1.12699,0.0711 -1.36738,0.20116 -0.24045,0.13003 -1.0219,0.21726 -1.73711,0.19379 -1.07077,-0.0352 -1.41873,0.0374 -1.9708,0.41043 -0.3687,0.2492 -0.73484,0.69503 -0.81352,0.99064 -0.2511,0.94304 -0.95386,1.72204 -1.77509,1.96811 -0.72145,0.21616 -0.83785,0.19272 -1.57007,-0.3147 -0.70584,-0.48915 -0.85971,-0.52408 -1.43016,-0.32518 -0.816,0.28446 -1.3596,0.77672 -1.3596,1.23093 0,0.19582 -0.33486,0.59853 -0.74415,0.89492 -0.40927,0.29641 -1.05701,0.86516 -1.43906,1.26387 -0.68767,0.71779 -1.91129,1.22351 -3.59902,1.48751 -0.39706,0.0621 -1.1283,0.42333 -1.62511,0.80266 -0.97312,0.74299 -1.89539,0.89891 -2.31613,0.39184 -0.13592,-0.16371 -0.44935,-0.29766 -0.69648,-0.29766 -0.26587,0 -0.88061,-0.40495 -1.50611,-0.99218 -0.58126,-0.54569 -1.15457,-0.9922 -1.27397,-0.9922 -0.11932,0 -0.76425,0.18492 -1.43324,0.41083 -0.92962,0.31394 -1.30987,0.36074 -1.61309,0.19844 -0.21818,-0.11674 -0.58618,-0.21239 -0.81778,-0.21239 -0.4548,0 -1.8122,1.30903 -3.39516,3.27423 -0.52746,0.65485 -1.17483,1.45922 -1.43867,1.78711 -0.14814,0.1841 -0.32564,0.46185 -0.48719,0.74724 -0.0869,0.0969 -0.17165,0.26438 -0.25541,0.49687 -0.0221,0.0479 -0.0493,0.10045 -0.0678,0.14496 -0.18203,0.43609 -0.46743,1.00098 -0.63407,1.25574 -0.006,0.009 -0.0104,0.0149 -0.0159,0.0233 -0.0628,0.0808 -0.11845,0.14131 -0.17169,0.18681 -0.0708,0.0385 -0.13593,0.0706 -0.19572,0.0977 -0.0248,0.003 -0.0502,0.002 -0.0764,-0.002 -0.0499,-0.0284 -0.10613,-0.0719 -0.17518,-0.13216 -0.18248,-0.15909 -0.66487,-0.34871 -1.07204,-0.42168 -0.51652,-0.0925 -0.89425,-0.33429 -1.24915,-0.79957 -0.27974,-0.36683 -0.7277,-0.72222 -0.99569,-0.78948 -0.26805,-0.0673 -0.48756,-0.20646 -0.48756,-0.30969 0,-0.10321 -0.1796,-0.284 -0.3992,-0.40152 -0.30809,-0.1649 -0.59696,-0.12632 -1.26544,0.16937 -0.47631,0.21072 -1.34563,0.44827 -1.93205,0.52749 -0.5865,0.0792 -1.23222,0.23098 -1.43481,0.33758 -0.25558,0.13454 -0.81224,0.0896 -1.81965,-0.14767 -1.95572,-0.46058 -3.42053,-0.33358 -4.25596,0.36936 -0.45204,0.38035 -0.85443,0.53097 -1.41776,0.53097 -0.47895,0 -0.99903,0.15766 -1.33055,0.40269 -0.42741,0.31603 -0.88274,0.40919 -2.1204,0.43448 -1.35691,0.0277 -1.55403,0.0401 -2.08128,0.55189 -9e-5,9e-5 0,-6e-5 0,0 -0.10914,0 -0.19844,0.0373 -0.19844,0.0829 0,0.0229 -0.0141,0.0799 -0.0361,0.15232 -0.007,0.008 -0.0131,0.0131 -0.0209,0.0209 -0.51855,0.52903 -0.881,0.74482 -1.13869,0.67747 -0.23063,-0.0603 -0.58345,0.0915 -0.9046,0.38914 -0.33497,0.31043 -0.64431,0.4391 -0.85035,0.35385 -0.77086,-0.31889 -0.95882,-0.28059 -1.47781,0.3019 -0.51068,0.57313 -0.60947,0.60494 -1.51466,0.48487 -0.72029,-0.0955 -1.08184,-0.049 -1.41193,0.18216 -0.39584,0.27724 -0.50509,0.27885 -1.01582,0.0147 -0.47814,-0.24725 -0.83442,-0.26009 -2.16228,-0.0783 l -1.58945,0.21742 -0.82398,-0.60579 c -0.45323,-0.33329 -0.9626,-0.61178 -1.13211,-0.61779 -0.1695,-0.007 -0.70418,-0.20737 -1.18831,-0.44649 -0.63383,-0.31314 -0.92278,-0.59619 -1.03289,-1.01156 -0.2292,-0.86509 -1.32539,-1.90378 -2.00879,-1.90378 -0.79208,0 -1.33674,0.33555 -1.33674,0.82283 0,0.19691 -0.21348,0.68396 -0.49028,1.1511 -0.007,0.007 -0.0172,0.0199 -0.024,0.0256 -0.10674,0.0886 -0.18792,0.22166 -0.23527,0.35309 l -0.28525,0.4116 0.024,0.0302 -0.21898,0.33756 -1.21079,-0.0655 c -0.92909,-0.0503 -1.28248,-0.15889 -1.51851,-0.46547 -0.89926,-1.16823 -2.97603,-2.17669 -4.93655,-2.39716 -1.00304,-0.11281 -1.58778,-0.28563 -1.88516,-0.55734 -0.23713,-0.21659 -0.72541,-0.54226 -1.08482,-0.724 -0.35932,-0.18171 -0.73696,-0.5509 -0.83948,-0.82048 -0.17265,-0.45422 -1.11686,-1.01479 -1.33753,-0.79414 -0.0532,0.0532 -0.34915,-0.0337 -0.65732,-0.19301 -0.30818,-0.15935 -0.86653,-0.28991 -1.24062,-0.28991 -0.38462,0 -0.79572,-0.13923 -0.94645,-0.3209 -0.21128,-0.25457 -0.5094,-0.2994 -1.43481,-0.21551 -0.9681,0.0878 -1.31426,0.0281 -2.02391,-0.3492 -0.75639,-0.40216 -0.96215,-0.43097 -1.76503,-0.24726 -0.85971,0.19674 -0.95594,0.17403 -1.7844,-0.42091 -0.48157,-0.34585 -0.99717,-0.62905 -1.14604,-0.62905 -0.14881,0 -0.46385,-0.13488 -0.69957,-0.29998 -0.23573,-0.16509 -0.90265,-0.33675 -1.48247,-0.38137 -0.57984,-0.0446 -1.42965,-0.26651 -1.88829,-0.49338 -0.90547,-0.44796 -2.13573,-0.54654 -2.35683,-0.18876 -0.0914,0.14782 -0.52659,0.18315 -1.28131,0.10426 -1.09764,-0.11471 -1.14785,-0.0996 -1.26776,0.37829 -0.0687,0.27373 -0.3456,0.59809 -0.61508,0.72089 -0.43666,0.19895 -0.59287,0.13706 -1.43326,-0.56935 -0.82598,-0.69439 -1.03928,-0.78139 -1.7154,-0.70111 -0.42474,0.0504 -1.08437,0.30362 -1.4662,0.56274 -0.38181,0.2591 -0.88279,0.47122 -1.11312,0.47129 -0.23033,8e-5 -0.97401,0.26266 -1.65261,0.58369 -0.9078,0.42942 -1.41153,0.55503 -1.9061,0.47478 -0.58546,-0.095 -0.7292,-0.0292 -1.1135,0.51042 -0.24263,0.34082 -0.71005,0.75868 -1.0387,0.92864 -0.53737,0.27747 -0.67376,0.27833 -1.35379,0.006 -1.31445,-0.52592 -2.63923,-0.60661 -3.64708,-0.2217 -0.76569,0.29242 -1.09264,0.31252 -2.15104,0.13216 -0.68648,-0.11698 -1.73311,-0.26702 -2.32584,-0.33332 -0.86835,-0.0971 -1.25947,-0.27259 -2.01345,-0.90382 l -0.9356,-0.78328 -1.06234,0.21821 c -0.58434,0.12011 -1.21897,0.30017 -1.41,0.39997 -0.22755,0.1189 -0.48431,0.0956 -0.74529,-0.0674 -0.3364,-0.21007 -0.53598,-0.17538 -1.28599,0.22247 -0.96361,0.51122 -1.86781,0.4804 -2.4925,-0.0849 -0.29865,-0.27031 -0.40311,-0.2665 -1.00537,0.0368 -0.36958,0.18611 -0.91938,0.46305 -1.22201,0.61545 -0.66001,0.33235 -1.76795,0.0521 -2.19291,-0.55461 -0.27704,-0.39553 -1.98184,-0.87799 -4.30168,-1.21776 -2.05778,-0.30139 -2.42611,-0.26932 -3.27384,0.28641 -1.08564,0.71167 -1.74423,0.84231 -2.45606,0.48718 -0.45375,-0.22633 -1.1462,-0.27604 -3.0068,-0.21625 -1.32954,0.0427 -2.49888,0.12825 -2.59869,0.1899 -0.35094,0.21688 -1.49912,-0.32792 -1.93554,-0.91816 -0.24264,-0.32821 -0.512615,-0.55243 -0.599982,-0.49843 -0.08745,0.054 -0.908171,-0.16683 -1.823925,-0.49066 -0.915753,-0.32383 -1.861829,-0.58872 -2.102197,-0.58872 -0.557492,0 -1.355608,-0.69678 -1.81851,-1.58751 -0.558819,-1.07518 -1.332649,-1.36312 -3.663343,-1.36312 -1.565721,0 -2.045047,0.0655 -2.219656,0.30425 -0.329843,0.45105 -1.834341,0.67031 -2.815337,0.41008 -0.616653,-0.16358 -0.959786,-0.16173 -1.331705,0.008 -0.405684,0.18483 -0.71578,0.15453 -1.631301,-0.16046 -0.62176,-0.21393 -1.491658,-0.38912 -1.933222,-0.38912 -0.62155,0 -0.940218,-0.13305 -1.411153,-0.5895 -0.530026,-0.51371 -0.87628,-0.63123 -2.688617,-0.91158 -3.82776,-0.5921 -3.530044,-0.59802 -4.235412,0.0857 -0.348359,0.33762 -0.943792,0.67275 -1.322789,0.74452 -0.378997,0.0718 -0.91236,0.24083 -1.185212,0.37557 -1.928383,0.95221 -1.869645,0.94958 -3.968765,0.18449 -2.660322,-0.96965 -3.512178,-1.14158 -4.465634,-0.90151 -0.515741,0.12988 -2.512704,0.28105 -4.437336,0.33604 -2.093265,0.0598 -2.973498,0.10743 -3.466081,0.23797 l -0.127914,-0.004 -0.07442,0.0655 c -0.128965,0.0518 -0.229712,0.11366 -0.327105,0.1903 -0.506197,0.3983 -0.668559,0.48125 -2.118091,1.08096 -0.792641,0.32793 -0.860884,0.32674 -1.573952,-0.0279 -0.842152,-0.41887 -0.899342,-0.50912 -1.37355,-2.15685 -0.640201,-2.22442 -0.800936,-2.57152 -1.32513,-2.86573 -0.440414,-0.24723 -0.600852,-0.25243 -1.013107,-0.0318 -0.447399,0.23944 -0.611309,0.19013 -1.892922,-0.57128 -0.771806,-0.45851 -1.452885,-0.98166 -1.513489,-1.16273 -0.06056,-0.18104 -0.279043,-0.54837 -0.485241,-0.81584 -0.321946,-0.41763 -0.420014,-0.44867 -0.69491,-0.22052 -0.269976,0.22403 -0.3761,0.21484 -0.679036,-0.0593 -0.197545,-0.17877 -0.495957,-0.32518 -0.663141,-0.32518 -0.167164,0 -0.651394,-0.23644 -1.075912,-0.52556 -0.424499,-0.2891 -1.058767,-0.68745 -1.409209,-0.88521 -0.350462,-0.19777 -0.796948,-0.50118 -0.992191,-0.674 -0.944685,-0.8362 -2.101402,-1.68556 -2.295613,-1.68556 -0.119063,0 -0.401004,-0.16498 -0.626311,-0.36665 -0.225326,-0.20169 -0.811513,-0.52056 -1.302648,-0.70886 -0.491134,-0.18828 -1.205512,-0.63734 -1.587506,-0.99763 -0.519253,-0.48972 -0.94139,-0.68677 -1.673548,-0.78057 -0.538621,-0.069 -1.18291,-0.25867 -1.431692,-0.42168 -0.760058,-0.49798 -1.767648,-0.80277 -2.466528,-0.77826 z"
       id="path905"
       sodipodi:nodetypes="ccccccsccccccsccccccccccsccccccccccccccccsccccccsccsccscccccsccccccsccccccccscccscccccccccccscccccccccscccccscscsccsccscccccccsccscccccccccccccccccccccccccscccccccscscccsccccccccsccsccccscccscsccccccsccsccscccccccsccccsccccccccccccccsccscccccsccccsccccsccccsccscccccccccsccccscscccccsccsccccscccccsccscscccsccscsccsccsccsccsccsccscscsccscccccccccccsccccsccscccsccscccccccsccccscccsccccscccscsccsccscsccccscccccsccccscccsccccccccccscccsccccsccccscccccscccccccsccccsccccccccccsccccccscccccccccccccccccscccsscscsccsccsccccccccccccscccccccccccccccccccccccsccccccccscccscccscccscccccccsccccccccscscccccccccccsccccccsccccccccccccccccccccccccccccccccscscccscsccccccccscscsccccccccscscccccsccccccccccccccscccccccccscccccscsccsccccccccccccccsccccccsccccscccccccccccccccssccccccccccccccscccccscccccccccccccccccccccccccccccccccccccscsccccsccccccccccccccccccccccscccsccccccc" />
    <text
       xml:space="preserve"
       style="font-style:normal;font-variant:normal;font-weight:normal;font-stretch:normal;font-size:10.58333397px;line-height:1.25;font-family:'Fira Sans Condensed';-inkscape-font-specification:'Fira Sans Condensed, ';letter-spacing:0px;word-spacing:0px;fill:#170b0c;fill-opacity:1;stroke:none;stroke-width:0.26458335;"
       x="471.39102"
       y="293.46198"
       id="text866"><tspan
         sodipodi:role="line"
         id="tspan864"
         x="471.39102"
         y="293.46198"
         style="font-style:normal;font-variant:normal;font-weight:normal;font-stretch:normal;font-family:'Fira Sans Condensed';-inkscape-font-specification:'Fira Sans Condensed, ';stroke-width:0.26458335;fill:#170b0c;fill-opacity:1;">19 ALFA</tspan></text>
  </g>
</svg>
